G75*
%MOIN*%
%OFA0B0*%
%FSLAX24Y24*%
%IPPOS*%
%LPD*%
%AMOC8*
5,1,8,0,0,1.08239X$1,22.5*
%
%ADD10OC8,0.0480*%
%ADD11OC8,0.0531*%
%ADD12R,0.0531X0.0531*%
%ADD13R,0.0500X0.0500*%
%ADD14OC8,0.0500*%
%ADD15C,0.0600*%
%ADD16OC8,0.0472*%
%ADD17C,0.0827*%
%ADD18R,0.0480X0.0480*%
%ADD19C,0.0480*%
%ADD20C,0.0480*%
%ADD21OC8,0.0591*%
%ADD22C,0.0669*%
%ADD23C,0.0160*%
%ADD24C,0.2500*%
D10*
X004600Y006770D03*
X006100Y007770D03*
X007600Y006770D03*
X008600Y006770D03*
X010100Y006770D03*
X011100Y006770D03*
X012100Y006770D03*
X013100Y006770D03*
X016100Y005270D03*
X016100Y009270D03*
X016100Y010270D03*
X016100Y011270D03*
X018100Y011770D03*
X018100Y012770D03*
X019600Y013770D03*
X020600Y013770D03*
X022100Y012770D03*
X022100Y011770D03*
X023600Y012270D03*
X024350Y012770D03*
X023600Y013270D03*
X022100Y014770D03*
X022100Y015770D03*
X022100Y016770D03*
X018100Y016770D03*
X018100Y015770D03*
X018100Y014770D03*
X016100Y019770D03*
X016100Y023770D03*
X016100Y024770D03*
X015350Y025270D03*
X016100Y025770D03*
X017600Y027770D03*
X019600Y027770D03*
X019600Y029770D03*
X017600Y029770D03*
X015600Y029270D03*
X014850Y029770D03*
X015600Y030270D03*
X012850Y030020D03*
X011850Y028645D03*
X010600Y026770D03*
X010600Y025770D03*
X008600Y024270D03*
X009100Y022770D03*
X010100Y022770D03*
X010100Y021270D03*
X009100Y021270D03*
X009100Y019770D03*
X010100Y019770D03*
X011100Y019770D03*
X012100Y019770D03*
X012100Y015770D03*
X011100Y015770D03*
X010100Y015770D03*
X009100Y015770D03*
X007600Y015770D03*
X006600Y015770D03*
X005600Y015770D03*
X004600Y015770D03*
X004600Y019770D03*
X005600Y019770D03*
X006600Y019770D03*
X007600Y019770D03*
X012600Y024270D03*
X007850Y028645D03*
X007850Y030020D03*
X006600Y030270D03*
X006600Y029270D03*
X005100Y027020D03*
X004600Y026270D03*
X005600Y026270D03*
X006600Y025770D03*
X006600Y026770D03*
X007600Y010770D03*
X008600Y010770D03*
X010100Y010770D03*
X011100Y010770D03*
X012100Y010770D03*
X013100Y010770D03*
X006100Y009770D03*
X004600Y010770D03*
X020600Y004770D03*
X020600Y003770D03*
X020600Y002770D03*
X020600Y001770D03*
X024600Y001770D03*
X024600Y002770D03*
X024600Y003770D03*
X024600Y004770D03*
X025600Y007770D03*
X027600Y007770D03*
X024350Y010270D03*
X023600Y009770D03*
X023600Y010770D03*
X027600Y016270D03*
X027600Y017270D03*
X027100Y018270D03*
X028100Y018270D03*
X028100Y022270D03*
X027100Y022270D03*
D11*
X005100Y029975D03*
D12*
X005100Y028825D03*
D13*
X004600Y024270D03*
X023100Y014270D03*
D14*
X024100Y014270D03*
X025100Y014270D03*
X026100Y014270D03*
X026100Y017270D03*
X025100Y017270D03*
X024100Y017270D03*
X023100Y017270D03*
X007600Y021270D03*
X007600Y022270D03*
X007600Y023270D03*
X007600Y024270D03*
X004600Y023270D03*
X004600Y022270D03*
X004600Y021270D03*
D15*
X012600Y002945D02*
X012600Y002345D01*
X013600Y002345D02*
X013600Y002945D01*
X014600Y002945D02*
X014600Y002345D01*
X015600Y002345D02*
X015600Y002945D01*
X016600Y002945D02*
X016600Y002345D01*
X017600Y002345D02*
X017600Y002945D01*
X021600Y005470D02*
X021600Y006070D01*
X022600Y006070D02*
X022600Y005470D01*
X023600Y005470D02*
X023600Y006070D01*
D16*
X026600Y010285D03*
X026600Y012255D03*
X026100Y025020D03*
X028100Y025020D03*
X028100Y027020D03*
X026100Y027020D03*
X023600Y028270D03*
X022600Y028270D03*
D17*
X021600Y029770D03*
X024600Y029770D03*
D18*
X005600Y011770D03*
D19*
X006600Y011770D03*
X007600Y011770D03*
X008600Y011770D03*
X009600Y011770D03*
X010600Y011770D03*
X011600Y011770D03*
X011600Y014770D03*
X010600Y014770D03*
X009600Y014770D03*
X008600Y014770D03*
X007600Y014770D03*
X006600Y014770D03*
X005600Y014770D03*
D20*
X015860Y014770D02*
X016340Y014770D01*
X016340Y013770D02*
X015860Y013770D01*
X015860Y012770D02*
X016340Y012770D01*
X019600Y010510D02*
X019600Y010030D01*
X020600Y010030D02*
X020600Y010510D01*
X021600Y010510D02*
X021600Y010030D01*
D21*
X018650Y022270D03*
X024550Y022270D03*
D22*
X024600Y007770D03*
X021600Y007770D03*
D23*
X000600Y000770D02*
X000600Y031070D01*
X028400Y031070D01*
X028400Y027337D01*
X028281Y027456D01*
X027919Y027456D01*
X027664Y027201D01*
X027664Y026840D01*
X027919Y026584D01*
X028281Y026584D01*
X028400Y026703D01*
X028400Y025337D01*
X028281Y025456D01*
X027919Y025456D01*
X027664Y025201D01*
X027664Y024840D01*
X027919Y024584D01*
X028281Y024584D01*
X028400Y024703D01*
X028400Y022564D01*
X028274Y022690D01*
X028100Y022690D01*
X027926Y022690D01*
X027680Y022444D01*
X027680Y022270D01*
X027680Y022096D01*
X027926Y021850D01*
X028100Y021850D01*
X028100Y022270D01*
X028100Y021850D01*
X028274Y021850D01*
X028400Y021976D01*
X028400Y018592D01*
X028282Y018710D01*
X027918Y018710D01*
X027660Y018452D01*
X027660Y018088D01*
X027918Y017830D01*
X028282Y017830D01*
X028400Y017948D01*
X028400Y000770D01*
X000600Y000770D01*
X000600Y000904D02*
X028400Y000904D01*
X028400Y001063D02*
X017788Y001063D01*
X017759Y001033D02*
X017837Y001112D01*
X018759Y002033D01*
X018837Y002112D01*
X018880Y002215D01*
X018880Y004654D01*
X020716Y006490D01*
X021367Y006490D01*
X021348Y006481D01*
X021287Y006436D01*
X021234Y006383D01*
X021189Y006322D01*
X021155Y006254D01*
X021132Y006183D01*
X021120Y006108D01*
X021120Y005790D01*
X021580Y005790D01*
X021580Y005750D01*
X021620Y005750D01*
X021620Y004990D01*
X021638Y004990D01*
X021712Y005002D01*
X021784Y005025D01*
X022368Y005025D01*
X022317Y005046D02*
X022501Y004970D01*
X022699Y004970D01*
X022883Y005046D01*
X023024Y005187D01*
X023100Y005371D01*
X023176Y005187D01*
X023317Y005046D01*
X023320Y005045D01*
X023320Y004715D01*
X023363Y004612D01*
X023441Y004533D01*
X024160Y003814D01*
X024160Y003588D01*
X024418Y003330D01*
X024782Y003330D01*
X025040Y003588D01*
X025040Y003952D01*
X024782Y004210D01*
X024556Y004210D01*
X024436Y004330D01*
X024782Y004330D01*
X025040Y004588D01*
X025040Y004952D01*
X024782Y005210D01*
X024418Y005210D01*
X024160Y004952D01*
X024160Y004606D01*
X023880Y004886D01*
X023880Y005045D01*
X023883Y005046D01*
X024024Y005187D01*
X024100Y005371D01*
X024100Y006170D01*
X024024Y006353D01*
X023887Y006490D01*
X024656Y006490D01*
X024759Y006533D01*
X024837Y006612D01*
X025259Y007033D01*
X025337Y007112D01*
X025380Y007215D01*
X025380Y007368D01*
X025418Y007330D01*
X025782Y007330D01*
X026040Y007588D01*
X026040Y007952D01*
X025782Y008210D01*
X025418Y008210D01*
X025380Y008172D01*
X025380Y012826D01*
X025337Y012929D01*
X025259Y013008D01*
X024759Y013508D01*
X024728Y013520D01*
X024759Y013533D01*
X025046Y013820D01*
X025286Y013820D01*
X025550Y014084D01*
X025550Y014424D01*
X025650Y014324D01*
X025650Y014084D01*
X025914Y013820D01*
X026286Y013820D01*
X026550Y014084D01*
X026550Y014457D01*
X026286Y014720D01*
X026046Y014720D01*
X025759Y015008D01*
X025656Y015050D01*
X022442Y015050D01*
X022282Y015210D01*
X021918Y015210D01*
X021660Y014952D01*
X021660Y014588D01*
X021918Y014330D01*
X022282Y014330D01*
X022442Y014490D01*
X022650Y014490D01*
X022650Y014050D01*
X020942Y014050D01*
X020782Y014210D01*
X020418Y014210D01*
X020160Y013952D01*
X020160Y013588D01*
X020418Y013330D01*
X020782Y013330D01*
X020942Y013490D01*
X023198Y013490D01*
X023160Y013452D01*
X023160Y013088D01*
X023418Y012830D01*
X023782Y012830D01*
X023942Y012990D01*
X023948Y012990D01*
X023910Y012952D01*
X023910Y012588D01*
X024168Y012330D01*
X024532Y012330D01*
X024790Y012588D01*
X024790Y012684D01*
X024820Y012654D01*
X024820Y008258D01*
X024706Y008305D01*
X024494Y008305D01*
X024471Y008295D01*
X022880Y009886D01*
X022880Y010326D01*
X022837Y010429D01*
X022759Y010508D01*
X021936Y011330D01*
X022282Y011330D01*
X022540Y011588D01*
X022540Y011952D01*
X022282Y012210D01*
X021918Y012210D01*
X021660Y011952D01*
X021660Y011606D01*
X020259Y013008D01*
X020156Y013050D01*
X018442Y013050D01*
X018282Y013210D01*
X018056Y013210D01*
X017380Y013886D01*
X017380Y020326D01*
X017337Y020429D01*
X017259Y020508D01*
X014880Y022886D01*
X014880Y025826D01*
X014837Y025929D01*
X014759Y026008D01*
X012290Y028476D01*
X012290Y028827D01*
X012032Y029085D01*
X011668Y029085D01*
X011410Y028827D01*
X011410Y028463D01*
X011668Y028205D01*
X011769Y028205D01*
X014320Y025654D01*
X014320Y022715D01*
X014363Y022612D01*
X016820Y020154D01*
X016820Y013715D01*
X016863Y013612D01*
X017660Y012814D01*
X017660Y012588D01*
X017918Y012330D01*
X018282Y012330D01*
X018442Y012490D01*
X019984Y012490D01*
X021547Y010927D01*
X021502Y010920D01*
X021439Y010899D01*
X021380Y010869D01*
X021326Y010831D01*
X021280Y010784D01*
X021241Y010730D01*
X021211Y010671D01*
X021190Y010609D01*
X021180Y010543D01*
X021180Y010270D01*
X021180Y009997D01*
X021190Y009932D01*
X021211Y009869D01*
X021241Y009810D01*
X021280Y009757D01*
X021326Y009710D01*
X021380Y009671D01*
X021439Y009641D01*
X021502Y009621D01*
X021567Y009610D01*
X021600Y009610D01*
X021633Y009610D01*
X021698Y009621D01*
X021761Y009641D01*
X021820Y009671D01*
X021874Y009710D01*
X021920Y009757D01*
X021959Y009810D01*
X021989Y009869D01*
X022010Y009932D01*
X022020Y009997D01*
X022020Y010270D01*
X021600Y010270D01*
X021600Y009610D01*
X021600Y010270D01*
X021600Y010270D01*
X021600Y010270D01*
X021180Y010270D01*
X021600Y010270D01*
X021600Y010270D01*
X022020Y010270D01*
X022020Y010454D01*
X022320Y010154D01*
X022320Y009715D01*
X022363Y009612D01*
X024075Y007899D01*
X024065Y007877D01*
X024065Y007664D01*
X024147Y007467D01*
X024297Y007317D01*
X024494Y007236D01*
X024669Y007236D01*
X024484Y007050D01*
X020544Y007050D01*
X020441Y007008D01*
X018441Y005008D01*
X018363Y004929D01*
X018320Y004826D01*
X018320Y002386D01*
X018044Y002110D01*
X018100Y002246D01*
X018100Y003045D01*
X018024Y003228D01*
X017883Y003369D01*
X017699Y003445D01*
X017501Y003445D01*
X017317Y003369D01*
X017176Y003228D01*
X017100Y003045D01*
X017024Y003228D01*
X016883Y003369D01*
X016880Y003370D01*
X016880Y005826D01*
X016837Y005929D01*
X016759Y006008D01*
X013880Y008886D01*
X013880Y025826D01*
X013837Y025929D01*
X013759Y026008D01*
X012759Y027008D01*
X012656Y027050D01*
X010942Y027050D01*
X010782Y027210D01*
X010418Y027210D01*
X010160Y026952D01*
X010160Y026588D01*
X010418Y026330D01*
X010782Y026330D01*
X010942Y026490D01*
X012484Y026490D01*
X013320Y025654D01*
X013320Y011172D01*
X013282Y011210D01*
X012918Y011210D01*
X012660Y010952D01*
X012660Y010588D01*
X012918Y010330D01*
X013282Y010330D01*
X013320Y010368D01*
X013320Y008715D01*
X013363Y008612D01*
X016264Y005710D01*
X015918Y005710D01*
X015660Y005452D01*
X015660Y005088D01*
X015918Y004830D01*
X016282Y004830D01*
X016320Y004868D01*
X016320Y003370D01*
X016317Y003369D01*
X016176Y003228D01*
X016100Y003045D01*
X016100Y002246D01*
X016176Y002062D01*
X016317Y001921D01*
X016501Y001845D01*
X016699Y001845D01*
X016883Y001921D01*
X017024Y002062D01*
X017100Y002246D01*
X017100Y003045D01*
X017100Y002246D01*
X017176Y002062D01*
X017317Y001921D01*
X017501Y001845D01*
X017699Y001845D01*
X017835Y001901D01*
X017484Y001550D01*
X014716Y001550D01*
X014365Y001901D01*
X014501Y001845D01*
X014699Y001845D01*
X014883Y001921D01*
X015024Y002062D01*
X015100Y002246D01*
X015176Y002062D01*
X015317Y001921D01*
X015501Y001845D01*
X015699Y001845D01*
X015883Y001921D01*
X016024Y002062D01*
X016100Y002246D01*
X016100Y003045D01*
X016024Y003228D01*
X015883Y003369D01*
X015699Y003445D01*
X015501Y003445D01*
X015317Y003369D01*
X015176Y003228D01*
X015100Y003045D01*
X015100Y002246D01*
X015100Y003045D01*
X015024Y003228D01*
X014883Y003369D01*
X014699Y003445D01*
X014501Y003445D01*
X014317Y003369D01*
X014176Y003228D01*
X014100Y003045D01*
X014024Y003228D01*
X013883Y003369D01*
X013699Y003445D01*
X013501Y003445D01*
X013317Y003369D01*
X013176Y003228D01*
X013100Y003045D01*
X013100Y002246D01*
X013176Y002062D01*
X013317Y001921D01*
X013501Y001845D01*
X013629Y001845D01*
X014441Y001033D01*
X014544Y000990D01*
X017656Y000990D01*
X017759Y001033D01*
X017947Y001221D02*
X028400Y001221D01*
X028400Y001380D02*
X024832Y001380D01*
X024782Y001330D02*
X025040Y001588D01*
X025040Y001952D01*
X024782Y002210D01*
X024418Y002210D01*
X024160Y001952D01*
X024160Y001588D01*
X024418Y001330D01*
X024782Y001330D01*
X024990Y001538D02*
X028400Y001538D01*
X028400Y001697D02*
X025040Y001697D01*
X025040Y001855D02*
X028400Y001855D01*
X028400Y002014D02*
X024979Y002014D01*
X024820Y002172D02*
X028400Y002172D01*
X028400Y002331D02*
X024783Y002331D01*
X024782Y002330D02*
X025040Y002588D01*
X025040Y002952D01*
X024782Y003210D01*
X024418Y003210D01*
X024160Y002952D01*
X024160Y002588D01*
X024418Y002330D01*
X024782Y002330D01*
X024941Y002489D02*
X028400Y002489D01*
X028400Y002648D02*
X025040Y002648D01*
X025040Y002806D02*
X028400Y002806D01*
X028400Y002965D02*
X025028Y002965D01*
X024869Y003123D02*
X028400Y003123D01*
X028400Y003282D02*
X018880Y003282D01*
X018880Y003440D02*
X020336Y003440D01*
X020426Y003350D02*
X020600Y003350D01*
X020774Y003350D01*
X021020Y003596D01*
X021020Y003770D01*
X020600Y003770D01*
X020600Y003350D01*
X020600Y003770D01*
X020600Y003770D01*
X020600Y003770D01*
X020180Y003770D01*
X020180Y003596D01*
X020426Y003350D01*
X020418Y003210D02*
X020160Y002952D01*
X020160Y002588D01*
X020418Y002330D01*
X020782Y002330D01*
X021040Y002588D01*
X021040Y002952D01*
X020782Y003210D01*
X020418Y003210D01*
X020331Y003123D02*
X018880Y003123D01*
X018880Y002965D02*
X020172Y002965D01*
X020160Y002806D02*
X018880Y002806D01*
X018880Y002648D02*
X020160Y002648D01*
X020259Y002489D02*
X018880Y002489D01*
X018880Y002331D02*
X020417Y002331D01*
X020418Y002210D02*
X020160Y001952D01*
X020160Y001588D01*
X020418Y001330D01*
X020782Y001330D01*
X021040Y001588D01*
X021040Y001952D01*
X020782Y002210D01*
X020418Y002210D01*
X020380Y002172D02*
X018862Y002172D01*
X018759Y002033D02*
X018759Y002033D01*
X018739Y002014D02*
X020221Y002014D01*
X020160Y001855D02*
X018581Y001855D01*
X018422Y001697D02*
X020160Y001697D01*
X020210Y001538D02*
X018264Y001538D01*
X018105Y001380D02*
X020368Y001380D01*
X020832Y001380D02*
X024368Y001380D01*
X024210Y001538D02*
X020990Y001538D01*
X021040Y001697D02*
X024160Y001697D01*
X024160Y001855D02*
X021040Y001855D01*
X020979Y002014D02*
X024221Y002014D01*
X024380Y002172D02*
X020820Y002172D01*
X020783Y002331D02*
X024417Y002331D01*
X024259Y002489D02*
X020941Y002489D01*
X021040Y002648D02*
X024160Y002648D01*
X024160Y002806D02*
X021040Y002806D01*
X021028Y002965D02*
X024172Y002965D01*
X024331Y003123D02*
X020869Y003123D01*
X020864Y003440D02*
X024308Y003440D01*
X024160Y003599D02*
X021020Y003599D01*
X021020Y003757D02*
X024160Y003757D01*
X024059Y003916D02*
X021020Y003916D01*
X021020Y003944D02*
X020774Y004190D01*
X020600Y004190D01*
X020600Y003770D01*
X020600Y003770D01*
X021020Y003770D01*
X021020Y003944D01*
X020890Y004074D02*
X023900Y004074D01*
X023742Y004233D02*
X018880Y004233D01*
X018880Y004391D02*
X020385Y004391D01*
X020426Y004350D02*
X020600Y004350D01*
X020774Y004350D01*
X021020Y004596D01*
X021020Y004770D01*
X020600Y004770D01*
X020600Y004350D01*
X020600Y004770D01*
X020600Y004770D01*
X020600Y004770D01*
X020180Y004770D01*
X020180Y004596D01*
X020426Y004350D01*
X020426Y004190D02*
X020180Y003944D01*
X020180Y003770D01*
X020600Y003770D01*
X020600Y004190D01*
X020426Y004190D01*
X020310Y004074D02*
X018880Y004074D01*
X018880Y003916D02*
X020180Y003916D01*
X020180Y003757D02*
X018880Y003757D01*
X018880Y003599D02*
X020180Y003599D01*
X020600Y003599D02*
X020600Y003599D01*
X020600Y003757D02*
X020600Y003757D01*
X020600Y003770D02*
X020600Y003770D01*
X020600Y003916D02*
X020600Y003916D01*
X020600Y004074D02*
X020600Y004074D01*
X020600Y004391D02*
X020600Y004391D01*
X020600Y004550D02*
X020600Y004550D01*
X020600Y004708D02*
X020600Y004708D01*
X020600Y004770D02*
X020600Y004770D01*
X021020Y004770D01*
X021020Y004944D01*
X020774Y005190D01*
X020600Y005190D01*
X020600Y004770D01*
X020180Y004770D01*
X020180Y004944D01*
X020426Y005190D01*
X020600Y005190D01*
X020600Y004770D01*
X020600Y004770D01*
X020600Y004867D02*
X020600Y004867D01*
X020600Y005025D02*
X020600Y005025D01*
X020600Y005184D02*
X020600Y005184D01*
X020780Y005184D02*
X021215Y005184D01*
X021234Y005158D02*
X021287Y005104D01*
X021348Y005060D01*
X021416Y005025D01*
X020939Y005025D01*
X021020Y004867D02*
X023320Y004867D01*
X023320Y005025D02*
X022832Y005025D01*
X023021Y005184D02*
X023179Y005184D01*
X023112Y005342D02*
X023088Y005342D01*
X023100Y005371D02*
X023100Y006170D01*
X023176Y006353D01*
X023313Y006490D01*
X022887Y006490D01*
X023024Y006353D01*
X023100Y006170D01*
X023100Y005371D01*
X023100Y005501D02*
X023100Y005501D01*
X023100Y005659D02*
X023100Y005659D01*
X023100Y005818D02*
X023100Y005818D01*
X023100Y005976D02*
X023100Y005976D01*
X023100Y006135D02*
X023100Y006135D01*
X023049Y006293D02*
X023151Y006293D01*
X023274Y006452D02*
X022926Y006452D01*
X023600Y005770D02*
X023600Y004770D01*
X024600Y003770D01*
X024918Y004074D02*
X028400Y004074D01*
X028400Y003916D02*
X025040Y003916D01*
X025040Y003757D02*
X028400Y003757D01*
X028400Y003599D02*
X025040Y003599D01*
X024892Y003440D02*
X028400Y003440D01*
X028400Y004233D02*
X024533Y004233D01*
X024843Y004391D02*
X028400Y004391D01*
X028400Y004550D02*
X025002Y004550D01*
X025040Y004708D02*
X028400Y004708D01*
X028400Y004867D02*
X025040Y004867D01*
X024967Y005025D02*
X028400Y005025D01*
X028400Y005184D02*
X024809Y005184D01*
X024391Y005184D02*
X024021Y005184D01*
X024088Y005342D02*
X028400Y005342D01*
X028400Y005501D02*
X024100Y005501D01*
X024100Y005659D02*
X028400Y005659D01*
X028400Y005818D02*
X024100Y005818D01*
X024100Y005976D02*
X028400Y005976D01*
X028400Y006135D02*
X024100Y006135D01*
X024049Y006293D02*
X028400Y006293D01*
X028400Y006452D02*
X023926Y006452D01*
X024600Y006770D02*
X020600Y006770D01*
X018600Y004770D01*
X018600Y002270D01*
X017600Y001270D01*
X014600Y001270D01*
X013600Y002270D01*
X013600Y002645D01*
X013100Y002648D02*
X012620Y002648D01*
X012620Y002665D02*
X013080Y002665D01*
X013080Y002983D01*
X013068Y003058D01*
X013045Y003129D01*
X013011Y003197D01*
X012966Y003258D01*
X012913Y003311D01*
X012852Y003356D01*
X012784Y003390D01*
X012712Y003413D01*
X012638Y003425D01*
X012620Y003425D01*
X012620Y002665D01*
X012620Y002625D01*
X012620Y001865D01*
X012638Y001865D01*
X012712Y001877D01*
X012784Y001900D01*
X012852Y001935D01*
X012913Y001979D01*
X012966Y002033D01*
X013011Y002094D01*
X013045Y002161D01*
X013068Y002233D01*
X013080Y002307D01*
X013080Y002625D01*
X012620Y002625D01*
X012580Y002625D01*
X012580Y001865D01*
X012562Y001865D01*
X012488Y001877D01*
X012416Y001900D01*
X012348Y001935D01*
X012287Y001979D01*
X012234Y002033D01*
X012189Y002094D01*
X012155Y002161D01*
X012132Y002233D01*
X012120Y002307D01*
X012120Y002625D01*
X012580Y002625D01*
X012580Y002665D01*
X012120Y002665D01*
X012120Y002983D01*
X012132Y003058D01*
X012155Y003129D01*
X012189Y003197D01*
X012234Y003258D01*
X012287Y003311D01*
X012348Y003356D01*
X012416Y003390D01*
X012488Y003413D01*
X012562Y003425D01*
X012580Y003425D01*
X012580Y002665D01*
X012620Y002665D01*
X012580Y002648D02*
X000600Y002648D01*
X000600Y002806D02*
X012120Y002806D01*
X012120Y002965D02*
X000600Y002965D01*
X000600Y003123D02*
X012153Y003123D01*
X012258Y003282D02*
X000600Y003282D01*
X000600Y003440D02*
X013488Y003440D01*
X013712Y003440D02*
X014488Y003440D01*
X014712Y003440D02*
X015488Y003440D01*
X015712Y003440D02*
X016320Y003440D01*
X016320Y003599D02*
X000600Y003599D01*
X000600Y003757D02*
X016320Y003757D01*
X016320Y003916D02*
X000600Y003916D01*
X000600Y004074D02*
X016320Y004074D01*
X016320Y004233D02*
X000600Y004233D01*
X000600Y004391D02*
X016320Y004391D01*
X016320Y004550D02*
X000600Y004550D01*
X000600Y004708D02*
X016320Y004708D01*
X016319Y004867D02*
X016320Y004867D01*
X015881Y004867D02*
X000600Y004867D01*
X000600Y005025D02*
X015723Y005025D01*
X015660Y005184D02*
X000600Y005184D01*
X000600Y005342D02*
X015660Y005342D01*
X015708Y005501D02*
X000600Y005501D01*
X000600Y005659D02*
X015867Y005659D01*
X016157Y005818D02*
X000600Y005818D01*
X000600Y005976D02*
X015998Y005976D01*
X015840Y006135D02*
X000600Y006135D01*
X000600Y006293D02*
X015681Y006293D01*
X015523Y006452D02*
X013375Y006452D01*
X013274Y006350D02*
X013520Y006596D01*
X013520Y006770D01*
X013100Y006770D01*
X013100Y006350D01*
X013274Y006350D01*
X013100Y006350D02*
X013100Y006770D01*
X013100Y006770D01*
X012680Y006770D01*
X012680Y006596D01*
X012926Y006350D01*
X013100Y006350D01*
X013100Y006452D02*
X013100Y006452D01*
X013100Y006610D02*
X013100Y006610D01*
X013100Y006769D02*
X013100Y006769D01*
X013100Y006770D02*
X013100Y006770D01*
X013100Y006770D01*
X012680Y006770D01*
X012680Y006944D01*
X012926Y007190D01*
X013100Y007190D01*
X013100Y006770D01*
X013520Y006770D01*
X013520Y006944D01*
X013274Y007190D01*
X013100Y007190D01*
X013100Y006770D01*
X013100Y006770D01*
X013100Y006927D02*
X013100Y006927D01*
X013100Y007086D02*
X013100Y007086D01*
X013378Y007086D02*
X014889Y007086D01*
X015047Y006927D02*
X013520Y006927D01*
X013520Y006769D02*
X015206Y006769D01*
X015364Y006610D02*
X013520Y006610D01*
X012825Y006452D02*
X012404Y006452D01*
X012282Y006330D02*
X011918Y006330D01*
X011660Y006588D01*
X011660Y006952D01*
X011918Y007210D01*
X012282Y007210D01*
X012540Y006952D01*
X012540Y006588D01*
X012282Y006330D01*
X012540Y006610D02*
X012680Y006610D01*
X012680Y006769D02*
X012540Y006769D01*
X012540Y006927D02*
X012680Y006927D01*
X012822Y007086D02*
X012407Y007086D01*
X011793Y007086D02*
X011407Y007086D01*
X011282Y007210D02*
X011540Y006952D01*
X011540Y006588D01*
X011282Y006330D01*
X010918Y006330D01*
X010660Y006588D01*
X010660Y006952D01*
X010918Y007210D01*
X011282Y007210D01*
X011540Y006927D02*
X011660Y006927D01*
X011660Y006769D02*
X011540Y006769D01*
X011540Y006610D02*
X011660Y006610D01*
X011796Y006452D02*
X011404Y006452D01*
X010796Y006452D02*
X010404Y006452D01*
X010282Y006330D02*
X009918Y006330D01*
X009660Y006588D01*
X009660Y006952D01*
X009918Y007210D01*
X010282Y007210D01*
X010540Y006952D01*
X010540Y006588D01*
X010282Y006330D01*
X010540Y006610D02*
X010660Y006610D01*
X010660Y006769D02*
X010540Y006769D01*
X010540Y006927D02*
X010660Y006927D01*
X010793Y007086D02*
X010407Y007086D01*
X009793Y007086D02*
X008878Y007086D01*
X008774Y007190D02*
X008600Y007190D01*
X008426Y007190D01*
X008180Y006944D01*
X008180Y006770D01*
X008180Y006596D01*
X008426Y006350D01*
X008600Y006350D01*
X008774Y006350D01*
X009020Y006596D01*
X009020Y006770D01*
X008600Y006770D01*
X008600Y006350D01*
X008600Y006770D01*
X008600Y006770D01*
X008180Y006770D01*
X008600Y006770D01*
X008600Y006770D01*
X008600Y006770D01*
X009020Y006770D01*
X009020Y006944D01*
X008774Y007190D01*
X008600Y007190D02*
X008600Y006770D01*
X008600Y007190D01*
X008600Y007086D02*
X008600Y007086D01*
X008600Y006927D02*
X008600Y006927D01*
X008600Y006770D02*
X008600Y006770D01*
X008600Y006769D02*
X008600Y006769D01*
X008600Y006610D02*
X008600Y006610D01*
X008600Y006452D02*
X008600Y006452D01*
X008875Y006452D02*
X009796Y006452D01*
X009660Y006610D02*
X009020Y006610D01*
X009020Y006769D02*
X009660Y006769D01*
X009660Y006927D02*
X009020Y006927D01*
X008322Y007086D02*
X007907Y007086D01*
X007782Y007210D02*
X008040Y006952D01*
X008040Y006588D01*
X007782Y006330D01*
X007418Y006330D01*
X007160Y006588D01*
X007160Y006952D01*
X007418Y007210D01*
X007782Y007210D01*
X008040Y006927D02*
X008180Y006927D01*
X008180Y006769D02*
X008040Y006769D01*
X008040Y006610D02*
X008180Y006610D01*
X008325Y006452D02*
X007904Y006452D01*
X007296Y006452D02*
X004904Y006452D01*
X004782Y006330D02*
X004418Y006330D01*
X004160Y006588D01*
X004160Y006952D01*
X004418Y007210D01*
X004782Y007210D01*
X005040Y006952D01*
X005040Y006588D01*
X004782Y006330D01*
X005040Y006610D02*
X007160Y006610D01*
X007160Y006769D02*
X005040Y006769D01*
X005040Y006927D02*
X007160Y006927D01*
X007293Y007086D02*
X004907Y007086D01*
X004293Y007086D02*
X000600Y007086D01*
X000600Y007244D02*
X014730Y007244D01*
X014572Y007403D02*
X006326Y007403D01*
X006274Y007350D02*
X006520Y007596D01*
X006520Y007770D01*
X006100Y007770D01*
X006100Y007350D01*
X006274Y007350D01*
X006100Y007350D02*
X006100Y007770D01*
X006100Y007770D01*
X005680Y007770D01*
X005680Y007596D01*
X005926Y007350D01*
X006100Y007350D01*
X006100Y007403D02*
X006100Y007403D01*
X006100Y007561D02*
X006100Y007561D01*
X006100Y007720D02*
X006100Y007720D01*
X006100Y007770D02*
X006100Y007770D01*
X006100Y007770D01*
X005680Y007770D01*
X005680Y007944D01*
X005926Y008190D01*
X006100Y008190D01*
X006100Y007770D01*
X006520Y007770D01*
X006520Y007944D01*
X006274Y008190D01*
X006100Y008190D01*
X006100Y007770D01*
X006100Y007770D01*
X006100Y007878D02*
X006100Y007878D01*
X006100Y008037D02*
X006100Y008037D01*
X006427Y008037D02*
X013938Y008037D01*
X014096Y007878D02*
X006520Y007878D01*
X006520Y007720D02*
X014255Y007720D01*
X014413Y007561D02*
X006485Y007561D01*
X005874Y007403D02*
X000600Y007403D01*
X000600Y007561D02*
X005715Y007561D01*
X005680Y007720D02*
X000600Y007720D01*
X000600Y007878D02*
X005680Y007878D01*
X005773Y008037D02*
X000600Y008037D01*
X000600Y008195D02*
X013779Y008195D01*
X013621Y008354D02*
X000600Y008354D01*
X000600Y008512D02*
X013462Y008512D01*
X013338Y008671D02*
X000600Y008671D01*
X000600Y008829D02*
X013320Y008829D01*
X013320Y008988D02*
X000600Y008988D01*
X000600Y009146D02*
X013320Y009146D01*
X013320Y009305D02*
X000600Y009305D01*
X000600Y009463D02*
X005785Y009463D01*
X005660Y009588D02*
X005918Y009330D01*
X006282Y009330D01*
X006540Y009588D01*
X006540Y009952D01*
X006380Y010112D01*
X006380Y010154D01*
X007160Y010934D01*
X007160Y010588D01*
X007418Y010330D01*
X007782Y010330D01*
X008040Y010588D01*
X008040Y010952D01*
X007782Y011210D01*
X007436Y011210D01*
X007556Y011330D01*
X007688Y011330D01*
X007849Y011397D01*
X007973Y011521D01*
X008040Y011683D01*
X008040Y011858D01*
X007973Y012019D01*
X007849Y012143D01*
X007688Y012210D01*
X007512Y012210D01*
X007351Y012143D01*
X007227Y012019D01*
X007160Y011858D01*
X007160Y011726D01*
X006986Y011552D01*
X007040Y011683D01*
X007040Y011858D01*
X006973Y012019D01*
X006849Y012143D01*
X006688Y012210D01*
X006512Y012210D01*
X006351Y012143D01*
X006227Y012019D01*
X006160Y011858D01*
X006160Y011683D01*
X006227Y011521D01*
X006351Y011397D01*
X006512Y011330D01*
X006688Y011330D01*
X006818Y011384D01*
X005863Y010429D01*
X005820Y010326D01*
X005820Y010112D01*
X005660Y009952D01*
X005660Y009588D01*
X005660Y009622D02*
X000600Y009622D01*
X000600Y009780D02*
X005660Y009780D01*
X005660Y009939D02*
X000600Y009939D01*
X000600Y010097D02*
X005805Y010097D01*
X005820Y010256D02*
X000600Y010256D01*
X000600Y010414D02*
X004334Y010414D01*
X004418Y010330D02*
X004160Y010588D01*
X004160Y010952D01*
X004418Y011210D01*
X004782Y011210D01*
X005040Y010952D01*
X005040Y010588D01*
X004782Y010330D01*
X004418Y010330D01*
X004175Y010573D02*
X000600Y010573D01*
X000600Y010731D02*
X004160Y010731D01*
X004160Y010890D02*
X000600Y010890D01*
X000600Y011048D02*
X004256Y011048D01*
X004414Y011207D02*
X000600Y011207D01*
X000600Y011365D02*
X005242Y011365D01*
X005277Y011330D02*
X005923Y011330D01*
X006040Y011447D01*
X006040Y012093D01*
X005923Y012210D01*
X005880Y012210D01*
X005880Y012654D01*
X007259Y014033D01*
X007337Y014112D01*
X007380Y014215D01*
X007380Y014385D01*
X007512Y014330D01*
X007688Y014330D01*
X007849Y014397D01*
X007973Y014521D01*
X008040Y014683D01*
X008040Y014858D01*
X007973Y015019D01*
X007849Y015143D01*
X007688Y015210D01*
X007512Y015210D01*
X007380Y015155D01*
X007380Y015368D01*
X007418Y015330D01*
X007782Y015330D01*
X008040Y015588D01*
X008040Y015952D01*
X007782Y016210D01*
X007436Y016210D01*
X007716Y016490D01*
X009156Y016490D01*
X009259Y016533D01*
X012056Y019330D01*
X012282Y019330D01*
X012540Y019588D01*
X012540Y019952D01*
X012282Y020210D01*
X011918Y020210D01*
X011660Y019952D01*
X011660Y019726D01*
X011540Y019606D01*
X011540Y019952D01*
X011282Y020210D01*
X010918Y020210D01*
X010660Y019952D01*
X010660Y019726D01*
X009984Y019050D01*
X007544Y019050D01*
X007441Y019008D01*
X007363Y018929D01*
X004644Y016210D01*
X004418Y016210D01*
X004380Y016172D01*
X004380Y018154D01*
X005556Y019330D01*
X005782Y019330D01*
X006040Y019588D01*
X006040Y019952D01*
X005782Y020210D01*
X005418Y020210D01*
X005160Y019952D01*
X005160Y019726D01*
X005040Y019606D01*
X005040Y019952D01*
X004782Y020210D01*
X004418Y020210D01*
X004160Y019952D01*
X004160Y019588D01*
X004418Y019330D01*
X004764Y019330D01*
X003863Y018429D01*
X003820Y018326D01*
X003820Y015215D01*
X003863Y015112D01*
X003941Y015033D01*
X004441Y014533D01*
X004544Y014490D01*
X005258Y014490D01*
X005351Y014397D01*
X005512Y014330D01*
X005688Y014330D01*
X005849Y014397D01*
X005973Y014521D01*
X006040Y014683D01*
X006040Y014858D01*
X005973Y015019D01*
X005849Y015143D01*
X005688Y015210D01*
X005512Y015210D01*
X005351Y015143D01*
X005258Y015050D01*
X004716Y015050D01*
X004436Y015330D01*
X004782Y015330D01*
X005040Y015588D01*
X005040Y015814D01*
X005160Y015934D01*
X005160Y015588D01*
X005418Y015330D01*
X005782Y015330D01*
X006040Y015588D01*
X006040Y015952D01*
X005782Y016210D01*
X005436Y016210D01*
X007716Y018490D01*
X010156Y018490D01*
X010259Y018533D01*
X011056Y019330D01*
X011264Y019330D01*
X008984Y017050D01*
X007544Y017050D01*
X007441Y017008D01*
X007363Y016929D01*
X006863Y016429D01*
X006820Y016326D01*
X006820Y016172D01*
X006782Y016210D01*
X006418Y016210D01*
X006160Y015952D01*
X006160Y015588D01*
X006320Y015428D01*
X006320Y015112D01*
X006227Y015019D01*
X006160Y014858D01*
X006160Y014683D01*
X006227Y014521D01*
X006351Y014397D01*
X006512Y014330D01*
X006688Y014330D01*
X006818Y014384D01*
X005363Y012929D01*
X005320Y012826D01*
X005320Y012210D01*
X005277Y012210D01*
X005160Y012093D01*
X005160Y011447D01*
X005277Y011330D01*
X005160Y011524D02*
X000600Y011524D01*
X000600Y011682D02*
X005160Y011682D01*
X005160Y011841D02*
X000600Y011841D01*
X000600Y011999D02*
X005160Y011999D01*
X005225Y012158D02*
X000600Y012158D01*
X000600Y012316D02*
X005320Y012316D01*
X005320Y012475D02*
X000600Y012475D01*
X000600Y012633D02*
X005320Y012633D01*
X005320Y012792D02*
X000600Y012792D01*
X000600Y012950D02*
X005384Y012950D01*
X005543Y013109D02*
X000600Y013109D01*
X000600Y013267D02*
X005701Y013267D01*
X005860Y013426D02*
X000600Y013426D01*
X000600Y013584D02*
X006018Y013584D01*
X006177Y013743D02*
X000600Y013743D01*
X000600Y013901D02*
X006335Y013901D01*
X006494Y014060D02*
X000600Y014060D01*
X000600Y014218D02*
X006652Y014218D01*
X006800Y014377D02*
X006811Y014377D01*
X007100Y014270D02*
X007100Y016270D01*
X007600Y016770D01*
X009100Y016770D01*
X012100Y019770D01*
X011660Y019766D02*
X011540Y019766D01*
X011540Y019924D02*
X011660Y019924D01*
X011790Y020083D02*
X011410Y020083D01*
X011100Y019770D02*
X010100Y018770D01*
X007600Y018770D01*
X004600Y015770D01*
X004438Y015328D02*
X006320Y015328D01*
X006320Y015169D02*
X005786Y015169D01*
X005977Y015011D02*
X006223Y015011D01*
X006160Y014852D02*
X006040Y014852D01*
X006040Y014694D02*
X006160Y014694D01*
X006221Y014535D02*
X005979Y014535D01*
X005800Y014377D02*
X006400Y014377D01*
X006600Y014770D02*
X006600Y015770D01*
X006160Y015803D02*
X006040Y015803D01*
X006040Y015645D02*
X006160Y015645D01*
X006262Y015486D02*
X005938Y015486D01*
X006031Y015962D02*
X006169Y015962D01*
X006328Y016120D02*
X005872Y016120D01*
X005663Y016437D02*
X006871Y016437D01*
X006820Y016279D02*
X005505Y016279D01*
X005188Y016754D02*
X004380Y016754D01*
X004380Y016596D02*
X005030Y016596D01*
X004871Y016437D02*
X004380Y016437D01*
X004380Y016279D02*
X004713Y016279D01*
X005040Y015803D02*
X005160Y015803D01*
X005160Y015645D02*
X005040Y015645D01*
X004938Y015486D02*
X005262Y015486D01*
X005414Y015169D02*
X004597Y015169D01*
X004600Y014770D02*
X004100Y015270D01*
X004100Y018270D01*
X005600Y019770D01*
X006040Y019766D02*
X006180Y019766D01*
X006180Y019770D02*
X006180Y019596D01*
X006426Y019350D01*
X006600Y019350D01*
X006600Y019770D01*
X006600Y019350D01*
X006774Y019350D01*
X007020Y019596D01*
X007020Y019770D01*
X006600Y019770D01*
X006600Y019770D01*
X006180Y019770D01*
X006600Y019770D01*
X006600Y019770D01*
X006600Y019770D01*
X007020Y019770D01*
X007020Y019944D01*
X006774Y020190D01*
X006600Y020190D01*
X006426Y020190D01*
X006180Y019944D01*
X006180Y019770D01*
X006180Y019924D02*
X006040Y019924D01*
X005910Y020083D02*
X006319Y020083D01*
X006600Y020083D02*
X006600Y020083D01*
X006600Y020190D02*
X006600Y019770D01*
X006600Y019770D01*
X006600Y020190D01*
X006600Y019924D02*
X006600Y019924D01*
X006600Y019766D02*
X006600Y019766D01*
X006600Y019607D02*
X006600Y019607D01*
X006600Y019449D02*
X006600Y019449D01*
X006872Y019449D02*
X007299Y019449D01*
X007418Y019330D02*
X007782Y019330D01*
X008040Y019588D01*
X008040Y019952D01*
X007782Y020210D01*
X007418Y020210D01*
X007160Y019952D01*
X007160Y019588D01*
X007418Y019330D01*
X007160Y019607D02*
X007020Y019607D01*
X007020Y019766D02*
X007160Y019766D01*
X007160Y019924D02*
X007020Y019924D01*
X006881Y020083D02*
X007290Y020083D01*
X007910Y020083D02*
X008790Y020083D01*
X008918Y020210D02*
X008660Y019952D01*
X008660Y019588D01*
X008918Y019330D01*
X009282Y019330D01*
X009540Y019588D01*
X009540Y019952D01*
X009282Y020210D01*
X008918Y020210D01*
X008660Y019924D02*
X008040Y019924D01*
X008040Y019766D02*
X008660Y019766D01*
X008660Y019607D02*
X008040Y019607D01*
X007901Y019449D02*
X008799Y019449D01*
X009401Y019449D02*
X009828Y019449D01*
X009926Y019350D02*
X009680Y019596D01*
X009680Y019770D01*
X010100Y019770D01*
X010100Y019350D01*
X010100Y019770D01*
X010100Y019770D01*
X010100Y019770D01*
X010100Y019770D01*
X010520Y019770D01*
X010520Y019596D01*
X010274Y019350D01*
X010100Y019350D01*
X009926Y019350D01*
X010100Y019449D02*
X010100Y019449D01*
X010100Y019607D02*
X010100Y019607D01*
X010100Y019766D02*
X010100Y019766D01*
X010100Y019770D02*
X009680Y019770D01*
X009680Y019944D01*
X009926Y020190D01*
X010100Y020190D01*
X010100Y019770D01*
X010520Y019770D01*
X010520Y019944D01*
X010274Y020190D01*
X010100Y020190D01*
X010100Y019770D01*
X010100Y019770D01*
X010100Y019924D02*
X010100Y019924D01*
X010100Y020083D02*
X010100Y020083D01*
X010381Y020083D02*
X010790Y020083D01*
X010660Y019924D02*
X010520Y019924D01*
X010520Y019766D02*
X010660Y019766D01*
X010541Y019607D02*
X010520Y019607D01*
X010383Y019449D02*
X010372Y019449D01*
X010224Y019290D02*
X005516Y019290D01*
X005358Y019132D02*
X010066Y019132D01*
X009680Y019607D02*
X009540Y019607D01*
X009540Y019766D02*
X009680Y019766D01*
X009680Y019924D02*
X009540Y019924D01*
X009410Y020083D02*
X009819Y020083D01*
X009926Y020850D02*
X010100Y020850D01*
X010274Y020850D01*
X010520Y021096D01*
X010520Y021270D01*
X010100Y021270D01*
X010100Y020850D01*
X010100Y021270D01*
X010100Y021270D01*
X010100Y021270D01*
X009680Y021270D01*
X009680Y021096D01*
X009926Y020850D01*
X009901Y020875D02*
X009327Y020875D01*
X009282Y020830D02*
X009540Y021088D01*
X009540Y021452D01*
X009282Y021710D01*
X008918Y021710D01*
X008660Y021452D01*
X008660Y021088D01*
X008918Y020830D01*
X009282Y020830D01*
X009486Y021034D02*
X009742Y021034D01*
X009680Y021192D02*
X009540Y021192D01*
X009540Y021351D02*
X009680Y021351D01*
X009680Y021270D02*
X010100Y021270D01*
X010100Y021270D01*
X010520Y021270D01*
X010520Y021444D01*
X010274Y021690D01*
X010100Y021690D01*
X010100Y021270D01*
X010100Y021690D01*
X009926Y021690D01*
X009680Y021444D01*
X009680Y021270D01*
X009745Y021509D02*
X009483Y021509D01*
X009325Y021668D02*
X009904Y021668D01*
X010100Y021668D02*
X010100Y021668D01*
X010100Y021509D02*
X010100Y021509D01*
X010100Y021351D02*
X010100Y021351D01*
X010100Y021270D02*
X010100Y021270D01*
X010100Y021192D02*
X010100Y021192D01*
X010100Y021034D02*
X010100Y021034D01*
X010100Y020875D02*
X010100Y020875D01*
X010299Y020875D02*
X013320Y020875D01*
X013320Y020717D02*
X000600Y020717D01*
X000600Y020875D02*
X004359Y020875D01*
X004414Y020820D02*
X004786Y020820D01*
X005050Y021084D01*
X005050Y021324D01*
X007150Y023424D01*
X007150Y023084D01*
X007414Y022820D01*
X007786Y022820D01*
X008050Y023084D01*
X008050Y023457D01*
X007786Y023720D01*
X007446Y023720D01*
X007546Y023820D01*
X007786Y023820D01*
X008050Y024084D01*
X008050Y024457D01*
X007786Y024720D01*
X007414Y024720D01*
X007150Y024457D01*
X007150Y024216D01*
X005050Y022116D01*
X005050Y022457D01*
X004786Y022720D01*
X004414Y022720D01*
X004150Y022457D01*
X004150Y022084D01*
X004414Y021820D01*
X004754Y021820D01*
X004654Y021720D01*
X004414Y021720D01*
X004150Y021457D01*
X004150Y021084D01*
X004414Y020820D01*
X004200Y021034D02*
X000600Y021034D01*
X000600Y021192D02*
X004150Y021192D01*
X004150Y021351D02*
X000600Y021351D01*
X000600Y021509D02*
X004203Y021509D01*
X004361Y021668D02*
X000600Y021668D01*
X000600Y021826D02*
X004408Y021826D01*
X004249Y021985D02*
X000600Y021985D01*
X000600Y022143D02*
X004150Y022143D01*
X004150Y022302D02*
X000600Y022302D01*
X000600Y022460D02*
X004154Y022460D01*
X004312Y022619D02*
X000600Y022619D01*
X000600Y022777D02*
X005711Y022777D01*
X005553Y022619D02*
X004888Y022619D01*
X005046Y022460D02*
X005394Y022460D01*
X005236Y022302D02*
X005050Y022302D01*
X005050Y022143D02*
X005077Y022143D01*
X005394Y021668D02*
X007361Y021668D01*
X007414Y021720D02*
X007150Y021457D01*
X007150Y021084D01*
X007414Y020820D01*
X007786Y020820D01*
X008050Y021084D01*
X008050Y021457D01*
X007786Y021720D01*
X007414Y021720D01*
X007414Y021820D02*
X007786Y021820D01*
X008050Y022084D01*
X008050Y022457D01*
X007786Y022720D01*
X007414Y022720D01*
X007150Y022457D01*
X007150Y022084D01*
X007414Y021820D01*
X007408Y021826D02*
X005552Y021826D01*
X005711Y021985D02*
X007249Y021985D01*
X007150Y022143D02*
X005869Y022143D01*
X006028Y022302D02*
X007150Y022302D01*
X007154Y022460D02*
X006186Y022460D01*
X006345Y022619D02*
X007312Y022619D01*
X007298Y022936D02*
X006662Y022936D01*
X006820Y023094D02*
X007150Y023094D01*
X007150Y023253D02*
X006979Y023253D01*
X007137Y023411D02*
X007150Y023411D01*
X007454Y023728D02*
X013320Y023728D01*
X013320Y023570D02*
X007937Y023570D01*
X008050Y023411D02*
X013320Y023411D01*
X013320Y023253D02*
X008050Y023253D01*
X008050Y023094D02*
X008802Y023094D01*
X008918Y023210D02*
X008660Y022952D01*
X008660Y022588D01*
X008918Y022330D01*
X009282Y022330D01*
X009540Y022588D01*
X009540Y022952D01*
X009282Y023210D01*
X008918Y023210D01*
X008660Y022936D02*
X007902Y022936D01*
X007888Y022619D02*
X008660Y022619D01*
X008660Y022777D02*
X006503Y022777D01*
X006028Y023094D02*
X005050Y023094D01*
X005050Y023084D02*
X004786Y022820D01*
X004414Y022820D01*
X004150Y023084D01*
X004150Y023457D01*
X004414Y023720D01*
X004786Y023720D01*
X005050Y023457D01*
X005050Y023084D01*
X005050Y023253D02*
X006187Y023253D01*
X006345Y023411D02*
X005050Y023411D01*
X004937Y023570D02*
X006504Y023570D01*
X006662Y023728D02*
X000600Y023728D01*
X000600Y023570D02*
X004263Y023570D01*
X004150Y023411D02*
X000600Y023411D01*
X000600Y023253D02*
X004150Y023253D01*
X004150Y023094D02*
X000600Y023094D01*
X000600Y022936D02*
X004298Y022936D01*
X004902Y022936D02*
X005870Y022936D01*
X004961Y023876D02*
X004994Y023910D01*
X005018Y023951D01*
X005030Y023997D01*
X005030Y024270D01*
X004600Y024270D01*
X004600Y023840D01*
X004874Y023840D01*
X004919Y023852D01*
X004961Y023876D01*
X004971Y023887D02*
X006821Y023887D01*
X006979Y024045D02*
X005030Y024045D01*
X005030Y024204D02*
X007138Y024204D01*
X007150Y024362D02*
X005030Y024362D01*
X005030Y024270D02*
X005030Y024544D01*
X005018Y024590D01*
X004994Y024631D01*
X004961Y024664D01*
X004919Y024688D01*
X004874Y024700D01*
X004600Y024700D01*
X004600Y024270D01*
X004600Y024270D01*
X004600Y023840D01*
X004326Y023840D01*
X004281Y023852D01*
X004239Y023876D01*
X004206Y023910D01*
X004182Y023951D01*
X004170Y023997D01*
X004170Y024270D01*
X004600Y024270D01*
X004600Y024270D01*
X004600Y024270D01*
X005030Y024270D01*
X005030Y024521D02*
X007214Y024521D01*
X007373Y024679D02*
X004935Y024679D01*
X004600Y024679D02*
X004600Y024679D01*
X004600Y024700D02*
X004326Y024700D01*
X004281Y024688D01*
X004239Y024664D01*
X004206Y024631D01*
X004182Y024590D01*
X004170Y024544D01*
X004170Y024270D01*
X004600Y024270D01*
X004600Y024700D01*
X004600Y024521D02*
X004600Y024521D01*
X004600Y024362D02*
X004600Y024362D01*
X004600Y024270D02*
X004600Y024270D01*
X004600Y024204D02*
X004600Y024204D01*
X004600Y024045D02*
X004600Y024045D01*
X004600Y023887D02*
X004600Y023887D01*
X004229Y023887D02*
X000600Y023887D01*
X000600Y024045D02*
X004170Y024045D01*
X004170Y024204D02*
X000600Y024204D01*
X000600Y024362D02*
X004170Y024362D01*
X004170Y024521D02*
X000600Y024521D01*
X000600Y024679D02*
X004265Y024679D01*
X004426Y025850D02*
X004600Y025850D01*
X004774Y025850D01*
X005020Y026096D01*
X005020Y026270D01*
X004600Y026270D01*
X004600Y025850D01*
X004600Y026270D01*
X004600Y026270D01*
X004600Y026270D01*
X004180Y026270D01*
X004180Y026096D01*
X004426Y025850D01*
X004329Y025947D02*
X000600Y025947D01*
X000600Y025789D02*
X006160Y025789D01*
X006160Y025947D02*
X005899Y025947D01*
X005782Y025830D02*
X006040Y026088D01*
X006040Y026452D01*
X005782Y026710D01*
X005418Y026710D01*
X005160Y026452D01*
X005160Y026088D01*
X005418Y025830D01*
X005782Y025830D01*
X006040Y026106D02*
X006313Y026106D01*
X006418Y026210D02*
X006160Y025952D01*
X006160Y025588D01*
X006418Y025330D01*
X006782Y025330D01*
X007040Y025588D01*
X007040Y025952D01*
X006782Y026210D01*
X006418Y026210D01*
X006418Y026330D02*
X006160Y026588D01*
X006160Y026952D01*
X006418Y027210D01*
X006782Y027210D01*
X007040Y026952D01*
X007040Y026588D01*
X006782Y026330D01*
X006418Y026330D01*
X006325Y026423D02*
X006040Y026423D01*
X006040Y026264D02*
X012710Y026264D01*
X012868Y026106D02*
X010887Y026106D01*
X010782Y026210D02*
X010418Y026210D01*
X010160Y025952D01*
X010160Y025588D01*
X010418Y025330D01*
X010782Y025330D01*
X011040Y025588D01*
X011040Y025952D01*
X010782Y026210D01*
X010875Y026423D02*
X012551Y026423D01*
X012600Y026770D02*
X013600Y025770D01*
X013600Y008770D01*
X016600Y005770D01*
X016600Y002645D01*
X017100Y002648D02*
X017100Y002648D01*
X017100Y002806D02*
X017100Y002806D01*
X017100Y002965D02*
X017100Y002965D01*
X017067Y003123D02*
X017133Y003123D01*
X017229Y003282D02*
X016971Y003282D01*
X016880Y003440D02*
X017488Y003440D01*
X017712Y003440D02*
X018320Y003440D01*
X018320Y003282D02*
X017971Y003282D01*
X018067Y003123D02*
X018320Y003123D01*
X018320Y002965D02*
X018100Y002965D01*
X018100Y002806D02*
X018320Y002806D01*
X018320Y002648D02*
X018100Y002648D01*
X018100Y002489D02*
X018320Y002489D01*
X018265Y002331D02*
X018100Y002331D01*
X018106Y002172D02*
X018070Y002172D01*
X017789Y001855D02*
X017724Y001855D01*
X017631Y001697D02*
X014569Y001697D01*
X014476Y001855D02*
X014411Y001855D01*
X014724Y001855D02*
X015476Y001855D01*
X015724Y001855D02*
X016476Y001855D01*
X016724Y001855D02*
X017476Y001855D01*
X017224Y002014D02*
X016976Y002014D01*
X017070Y002172D02*
X017130Y002172D01*
X017100Y002331D02*
X017100Y002331D01*
X017100Y002489D02*
X017100Y002489D01*
X016224Y002014D02*
X015976Y002014D01*
X016070Y002172D02*
X016130Y002172D01*
X016100Y002331D02*
X016100Y002331D01*
X016100Y002489D02*
X016100Y002489D01*
X016100Y002648D02*
X016100Y002648D01*
X016100Y002806D02*
X016100Y002806D01*
X016100Y002965D02*
X016100Y002965D01*
X016067Y003123D02*
X016133Y003123D01*
X016229Y003282D02*
X015971Y003282D01*
X015229Y003282D02*
X014971Y003282D01*
X015067Y003123D02*
X015133Y003123D01*
X015100Y002965D02*
X015100Y002965D01*
X015100Y002806D02*
X015100Y002806D01*
X015100Y002648D02*
X015100Y002648D01*
X015100Y002489D02*
X015100Y002489D01*
X015100Y002331D02*
X015100Y002331D01*
X015070Y002172D02*
X015130Y002172D01*
X015224Y002014D02*
X014976Y002014D01*
X014156Y002110D02*
X014077Y002189D01*
X014100Y002246D01*
X014100Y003045D01*
X014100Y002246D01*
X014156Y002110D01*
X014130Y002172D02*
X014094Y002172D01*
X014100Y002331D02*
X014100Y002331D01*
X014100Y002489D02*
X014100Y002489D01*
X014100Y002648D02*
X014100Y002648D01*
X014100Y002806D02*
X014100Y002806D01*
X014100Y002965D02*
X014100Y002965D01*
X014067Y003123D02*
X014133Y003123D01*
X014229Y003282D02*
X013971Y003282D01*
X013229Y003282D02*
X012942Y003282D01*
X013047Y003123D02*
X013133Y003123D01*
X013100Y002965D02*
X013080Y002965D01*
X013080Y002806D02*
X013100Y002806D01*
X013080Y002489D02*
X013100Y002489D01*
X013100Y002331D02*
X013080Y002331D01*
X013048Y002172D02*
X013130Y002172D01*
X013224Y002014D02*
X012947Y002014D01*
X012620Y002014D02*
X012580Y002014D01*
X012580Y002172D02*
X012620Y002172D01*
X012620Y002331D02*
X012580Y002331D01*
X012580Y002489D02*
X012620Y002489D01*
X012620Y002806D02*
X012580Y002806D01*
X012580Y002965D02*
X012620Y002965D01*
X012620Y003123D02*
X012580Y003123D01*
X012580Y003282D02*
X012620Y003282D01*
X012120Y002489D02*
X000600Y002489D01*
X000600Y002331D02*
X012120Y002331D01*
X012152Y002172D02*
X000600Y002172D01*
X000600Y002014D02*
X012253Y002014D01*
X013476Y001855D02*
X000600Y001855D01*
X000600Y001697D02*
X013778Y001697D01*
X013936Y001538D02*
X000600Y001538D01*
X000600Y001380D02*
X014095Y001380D01*
X014253Y001221D02*
X000600Y001221D01*
X000600Y001063D02*
X014412Y001063D01*
X016880Y003599D02*
X018320Y003599D01*
X018320Y003757D02*
X016880Y003757D01*
X016880Y003916D02*
X018320Y003916D01*
X018320Y004074D02*
X016880Y004074D01*
X016880Y004233D02*
X018320Y004233D01*
X018320Y004391D02*
X016880Y004391D01*
X016880Y004550D02*
X018320Y004550D01*
X018320Y004708D02*
X016880Y004708D01*
X016880Y004867D02*
X018337Y004867D01*
X018441Y005008D02*
X018441Y005008D01*
X018459Y005025D02*
X016880Y005025D01*
X016880Y005184D02*
X018618Y005184D01*
X018776Y005342D02*
X016880Y005342D01*
X016880Y005501D02*
X018935Y005501D01*
X019093Y005659D02*
X016880Y005659D01*
X016880Y005818D02*
X019252Y005818D01*
X019410Y005976D02*
X016790Y005976D01*
X016631Y006135D02*
X019569Y006135D01*
X019727Y006293D02*
X016473Y006293D01*
X016314Y006452D02*
X019886Y006452D01*
X020044Y006610D02*
X016156Y006610D01*
X015997Y006769D02*
X020203Y006769D01*
X020361Y006927D02*
X015839Y006927D01*
X015680Y007086D02*
X024520Y007086D01*
X024473Y007244D02*
X021727Y007244D01*
X021706Y007236D02*
X021903Y007317D01*
X022053Y007467D01*
X022135Y007664D01*
X022135Y007877D01*
X022053Y008073D01*
X021903Y008223D01*
X021706Y008305D01*
X021494Y008305D01*
X021297Y008223D01*
X021147Y008073D01*
X021065Y007877D01*
X021065Y007664D01*
X021147Y007467D01*
X021297Y007317D01*
X021494Y007236D01*
X021706Y007236D01*
X021473Y007244D02*
X015522Y007244D01*
X015363Y007403D02*
X021211Y007403D01*
X021108Y007561D02*
X015205Y007561D01*
X015046Y007720D02*
X021065Y007720D01*
X021066Y007878D02*
X014888Y007878D01*
X014729Y008037D02*
X021132Y008037D01*
X021269Y008195D02*
X014571Y008195D01*
X014412Y008354D02*
X023621Y008354D01*
X023779Y008195D02*
X021931Y008195D01*
X022068Y008037D02*
X023938Y008037D01*
X024066Y007878D02*
X022134Y007878D01*
X022135Y007720D02*
X024065Y007720D01*
X024108Y007561D02*
X022092Y007561D01*
X021989Y007403D02*
X024211Y007403D01*
X024600Y007770D02*
X022600Y009770D01*
X022600Y010270D01*
X020100Y012770D01*
X018100Y012770D01*
X017100Y013770D01*
X017100Y020270D01*
X014600Y022770D01*
X014600Y025770D01*
X011850Y028520D01*
X011850Y028645D01*
X011410Y028642D02*
X008290Y028642D01*
X008290Y028800D02*
X011410Y028800D01*
X011541Y028959D02*
X008159Y028959D01*
X008032Y029085D02*
X008290Y028827D01*
X008290Y028463D01*
X008032Y028205D01*
X007668Y028205D01*
X007410Y028463D01*
X007410Y028827D01*
X007668Y029085D01*
X008032Y029085D01*
X007541Y028959D02*
X006911Y028959D01*
X006782Y028830D02*
X007040Y029088D01*
X007040Y029452D01*
X006782Y029710D01*
X006418Y029710D01*
X006160Y029452D01*
X006160Y029088D01*
X006418Y028830D01*
X006782Y028830D01*
X007040Y029117D02*
X015160Y029117D01*
X015160Y029088D02*
X015418Y028830D01*
X015782Y028830D01*
X016040Y029088D01*
X016040Y029452D01*
X015782Y029710D01*
X015418Y029710D01*
X015160Y029452D01*
X015160Y029088D01*
X015289Y028959D02*
X012159Y028959D01*
X012290Y028800D02*
X028400Y028800D01*
X028400Y028642D02*
X023845Y028642D01*
X023781Y028706D02*
X023419Y028706D01*
X023164Y028451D01*
X023164Y028090D01*
X023419Y027834D01*
X023781Y027834D01*
X024036Y028090D01*
X024036Y028451D01*
X023781Y028706D01*
X024004Y028483D02*
X028400Y028483D01*
X028400Y028325D02*
X024036Y028325D01*
X024036Y028166D02*
X028400Y028166D01*
X028400Y028008D02*
X023954Y028008D01*
X023796Y027849D02*
X028400Y027849D01*
X028400Y027691D02*
X020040Y027691D01*
X020040Y027588D02*
X019782Y027330D01*
X019418Y027330D01*
X019160Y027588D01*
X019160Y027952D01*
X019418Y028210D01*
X019782Y028210D01*
X020040Y027952D01*
X020040Y027588D01*
X019984Y027532D02*
X028400Y027532D01*
X028400Y027374D02*
X028363Y027374D01*
X027837Y027374D02*
X026363Y027374D01*
X026281Y027456D02*
X025919Y027456D01*
X025664Y027201D01*
X025664Y026840D01*
X025919Y026584D01*
X026281Y026584D01*
X026536Y026840D01*
X026536Y027201D01*
X026281Y027456D01*
X026522Y027215D02*
X027678Y027215D01*
X027664Y027057D02*
X026536Y027057D01*
X026536Y026898D02*
X027664Y026898D01*
X027764Y026740D02*
X026436Y026740D01*
X025837Y027374D02*
X019826Y027374D01*
X020040Y027849D02*
X023404Y027849D01*
X023246Y028008D02*
X022926Y028008D01*
X023016Y028098D02*
X023016Y028270D01*
X022600Y028270D01*
X022600Y027854D01*
X022772Y027854D01*
X023016Y028098D01*
X023016Y028166D02*
X023164Y028166D01*
X023164Y028325D02*
X023016Y028325D01*
X023016Y028270D02*
X023016Y028443D01*
X022772Y028686D01*
X022600Y028686D01*
X022428Y028686D01*
X022184Y028443D01*
X022184Y028270D01*
X022184Y028098D01*
X022428Y027854D01*
X022600Y027854D01*
X022600Y028270D01*
X022600Y028270D01*
X022184Y028270D01*
X022600Y028270D01*
X022600Y028270D01*
X022600Y028270D01*
X023016Y028270D01*
X022976Y028483D02*
X023196Y028483D01*
X023355Y028642D02*
X022817Y028642D01*
X022600Y028642D02*
X022600Y028642D01*
X022600Y028686D02*
X022600Y028270D01*
X022600Y028270D01*
X022600Y028686D01*
X022600Y028483D02*
X022600Y028483D01*
X022600Y028325D02*
X022600Y028325D01*
X022600Y028166D02*
X022600Y028166D01*
X022600Y028008D02*
X022600Y028008D01*
X022274Y028008D02*
X019985Y028008D01*
X019826Y028166D02*
X022184Y028166D01*
X022184Y028325D02*
X012441Y028325D01*
X012290Y028483D02*
X022224Y028483D01*
X022383Y028642D02*
X012290Y028642D01*
X012600Y028166D02*
X017374Y028166D01*
X017418Y028210D02*
X017160Y027952D01*
X017160Y027588D01*
X017418Y027330D01*
X017782Y027330D01*
X018040Y027588D01*
X018040Y027952D01*
X017782Y028210D01*
X017418Y028210D01*
X017215Y028008D02*
X012758Y028008D01*
X012917Y027849D02*
X017160Y027849D01*
X017160Y027691D02*
X013075Y027691D01*
X013234Y027532D02*
X017216Y027532D01*
X017374Y027374D02*
X013392Y027374D01*
X013551Y027215D02*
X025678Y027215D01*
X025664Y027057D02*
X013709Y027057D01*
X013868Y026898D02*
X025664Y026898D01*
X025764Y026740D02*
X014026Y026740D01*
X014185Y026581D02*
X028400Y026581D01*
X028400Y026423D02*
X014343Y026423D01*
X014502Y026264D02*
X028400Y026264D01*
X028400Y026106D02*
X016387Y026106D01*
X016282Y026210D02*
X015918Y026210D01*
X015660Y025952D01*
X015660Y025588D01*
X015918Y025330D01*
X016282Y025330D01*
X016540Y025588D01*
X016540Y025952D01*
X016282Y026210D01*
X016540Y025947D02*
X028400Y025947D01*
X028400Y025789D02*
X016540Y025789D01*
X016540Y025630D02*
X028400Y025630D01*
X028400Y025472D02*
X016424Y025472D01*
X016274Y025190D02*
X016100Y025190D01*
X015926Y025190D01*
X015680Y024944D01*
X015680Y024770D01*
X015680Y024596D01*
X015926Y024350D01*
X016100Y024350D01*
X016100Y024770D01*
X016100Y024350D01*
X016274Y024350D01*
X016520Y024596D01*
X016520Y024770D01*
X016100Y024770D01*
X016100Y024770D01*
X015680Y024770D01*
X016100Y024770D01*
X016100Y024770D01*
X016100Y024770D01*
X016520Y024770D01*
X016520Y024944D01*
X016274Y025190D01*
X016309Y025155D02*
X025664Y025155D01*
X025664Y025201D02*
X025664Y024840D01*
X025919Y024584D01*
X026281Y024584D01*
X026536Y024840D01*
X026536Y025201D01*
X026281Y025456D01*
X025919Y025456D01*
X025664Y025201D01*
X025776Y025313D02*
X015790Y025313D01*
X015790Y025452D02*
X015790Y025088D01*
X015532Y024830D01*
X015168Y024830D01*
X014910Y025088D01*
X014910Y025452D01*
X015168Y025710D01*
X015532Y025710D01*
X015790Y025452D01*
X015776Y025472D02*
X015771Y025472D01*
X015660Y025630D02*
X015612Y025630D01*
X015660Y025789D02*
X014880Y025789D01*
X014880Y025630D02*
X015088Y025630D01*
X014929Y025472D02*
X014880Y025472D01*
X014880Y025313D02*
X014910Y025313D01*
X014910Y025155D02*
X014880Y025155D01*
X014880Y024996D02*
X015002Y024996D01*
X014880Y024838D02*
X015160Y024838D01*
X014880Y024679D02*
X015680Y024679D01*
X015680Y024838D02*
X015540Y024838D01*
X015698Y024996D02*
X015732Y024996D01*
X015790Y025155D02*
X015891Y025155D01*
X016100Y025155D02*
X016100Y025155D01*
X016100Y025190D02*
X016100Y024770D01*
X016100Y024770D01*
X016100Y025190D01*
X016100Y024996D02*
X016100Y024996D01*
X016100Y024838D02*
X016100Y024838D01*
X016100Y024679D02*
X016100Y024679D01*
X016100Y024521D02*
X016100Y024521D01*
X016100Y024362D02*
X016100Y024362D01*
X016286Y024362D02*
X028400Y024362D01*
X028400Y024204D02*
X016289Y024204D01*
X016282Y024210D02*
X015918Y024210D01*
X015660Y023952D01*
X015660Y023588D01*
X015918Y023330D01*
X016282Y023330D01*
X016540Y023588D01*
X016540Y023952D01*
X016282Y024210D01*
X016447Y024045D02*
X028400Y024045D01*
X028400Y023887D02*
X016540Y023887D01*
X016540Y023728D02*
X028400Y023728D01*
X028400Y023570D02*
X016522Y023570D01*
X016363Y023411D02*
X028400Y023411D01*
X028400Y023253D02*
X014880Y023253D01*
X014880Y023411D02*
X015837Y023411D01*
X015678Y023570D02*
X014880Y023570D01*
X014880Y023728D02*
X015660Y023728D01*
X015660Y023887D02*
X014880Y023887D01*
X014880Y024045D02*
X015753Y024045D01*
X015911Y024204D02*
X014880Y024204D01*
X014880Y024362D02*
X015914Y024362D01*
X015755Y024521D02*
X014880Y024521D01*
X014320Y024521D02*
X013880Y024521D01*
X013880Y024679D02*
X014320Y024679D01*
X014320Y024838D02*
X013880Y024838D01*
X013880Y024996D02*
X014320Y024996D01*
X014320Y025155D02*
X013880Y025155D01*
X013880Y025313D02*
X014320Y025313D01*
X014320Y025472D02*
X013880Y025472D01*
X013880Y025630D02*
X014320Y025630D01*
X014185Y025789D02*
X013880Y025789D01*
X013819Y025947D02*
X014027Y025947D01*
X013868Y026106D02*
X013660Y026106D01*
X013710Y026264D02*
X013502Y026264D01*
X013551Y026423D02*
X013343Y026423D01*
X013393Y026581D02*
X013185Y026581D01*
X013234Y026740D02*
X013026Y026740D01*
X013076Y026898D02*
X012868Y026898D01*
X012917Y027057D02*
X010936Y027057D01*
X010600Y026770D02*
X012600Y026770D01*
X012759Y027215D02*
X005527Y027215D01*
X005540Y027202D02*
X005282Y027460D01*
X004918Y027460D01*
X004660Y027202D01*
X004660Y026838D01*
X004918Y026580D01*
X005282Y026580D01*
X005540Y026838D01*
X005540Y027202D01*
X005540Y027057D02*
X006264Y027057D01*
X006160Y026898D02*
X005540Y026898D01*
X005442Y026740D02*
X006160Y026740D01*
X006167Y026581D02*
X005911Y026581D01*
X005289Y026581D02*
X005283Y026581D01*
X005160Y026423D02*
X005020Y026423D01*
X005020Y026444D02*
X004774Y026690D01*
X004600Y026690D01*
X004600Y026270D01*
X004600Y026270D01*
X005020Y026270D01*
X005020Y026444D01*
X004917Y026581D02*
X004883Y026581D01*
X004758Y026740D02*
X000600Y026740D01*
X000600Y026898D02*
X004660Y026898D01*
X004660Y027057D02*
X000600Y027057D01*
X000600Y027215D02*
X004673Y027215D01*
X004831Y027374D02*
X000600Y027374D01*
X000600Y027532D02*
X012442Y027532D01*
X012600Y027374D02*
X005369Y027374D01*
X005449Y028359D02*
X004751Y028359D01*
X004634Y028477D01*
X004634Y029174D01*
X004751Y029291D01*
X005449Y029291D01*
X005566Y029174D01*
X005566Y028477D01*
X005449Y028359D01*
X005566Y028483D02*
X007410Y028483D01*
X007410Y028642D02*
X005566Y028642D01*
X005566Y028800D02*
X007410Y028800D01*
X007548Y028325D02*
X000600Y028325D01*
X000600Y028483D02*
X004634Y028483D01*
X004634Y028642D02*
X000600Y028642D01*
X000600Y028800D02*
X004634Y028800D01*
X004634Y028959D02*
X000600Y028959D01*
X000600Y029117D02*
X004634Y029117D01*
X004736Y029276D02*
X000600Y029276D01*
X000600Y029434D02*
X006160Y029434D01*
X006160Y029276D02*
X005464Y029276D01*
X005566Y029117D02*
X006160Y029117D01*
X006289Y028959D02*
X005566Y028959D01*
X005293Y029509D02*
X005566Y029782D01*
X005566Y030168D01*
X005293Y030441D01*
X004907Y030441D01*
X004634Y030168D01*
X004634Y029782D01*
X004907Y029509D01*
X005293Y029509D01*
X005376Y029593D02*
X006300Y029593D01*
X006426Y029850D02*
X006180Y030096D01*
X006180Y030270D01*
X006600Y030270D01*
X006600Y029850D01*
X006774Y029850D01*
X007020Y030096D01*
X007020Y030270D01*
X006600Y030270D01*
X006600Y030270D01*
X006600Y029850D01*
X006426Y029850D01*
X006366Y029910D02*
X005566Y029910D01*
X005566Y030068D02*
X006208Y030068D01*
X006180Y030227D02*
X005507Y030227D01*
X005349Y030385D02*
X006180Y030385D01*
X006180Y030444D02*
X006180Y030270D01*
X006600Y030270D01*
X006600Y030270D01*
X006600Y030270D01*
X007020Y030270D01*
X007020Y030444D01*
X006774Y030690D01*
X006600Y030690D01*
X006426Y030690D01*
X006180Y030444D01*
X006280Y030544D02*
X000600Y030544D01*
X000600Y030702D02*
X015410Y030702D01*
X015418Y030710D02*
X015160Y030452D01*
X015160Y030088D01*
X015418Y029830D01*
X015782Y029830D01*
X016040Y030088D01*
X016040Y030452D01*
X015782Y030710D01*
X015418Y030710D01*
X015251Y030544D02*
X006920Y030544D01*
X007020Y030385D02*
X007593Y030385D01*
X007668Y030460D02*
X007410Y030202D01*
X007410Y029838D01*
X007668Y029580D01*
X008032Y029580D01*
X008290Y029838D01*
X008290Y030202D01*
X008032Y030460D01*
X007668Y030460D01*
X007434Y030227D02*
X007020Y030227D01*
X006992Y030068D02*
X007410Y030068D01*
X007410Y029910D02*
X006834Y029910D01*
X006600Y029910D02*
X006600Y029910D01*
X006600Y030068D02*
X006600Y030068D01*
X006600Y030227D02*
X006600Y030227D01*
X006600Y030270D02*
X006600Y030690D01*
X006600Y030270D01*
X006600Y030270D01*
X006600Y030385D02*
X006600Y030385D01*
X006600Y030544D02*
X006600Y030544D01*
X006900Y029593D02*
X007655Y029593D01*
X007497Y029751D02*
X005535Y029751D01*
X004824Y029593D02*
X000600Y029593D01*
X000600Y029751D02*
X004665Y029751D01*
X004634Y029910D02*
X000600Y029910D01*
X000600Y030068D02*
X004634Y030068D01*
X004693Y030227D02*
X000600Y030227D01*
X000600Y030385D02*
X004851Y030385D01*
X007040Y029434D02*
X014592Y029434D01*
X014676Y029350D02*
X014430Y029596D01*
X014430Y029770D01*
X014850Y029770D01*
X014850Y029350D01*
X015024Y029350D01*
X015270Y029596D01*
X015270Y029770D01*
X014850Y029770D01*
X014850Y029770D01*
X014850Y029350D01*
X014676Y029350D01*
X014850Y029434D02*
X014850Y029434D01*
X014850Y029593D02*
X014850Y029593D01*
X014850Y029751D02*
X014850Y029751D01*
X014850Y029770D02*
X014850Y029770D01*
X014850Y029770D01*
X014430Y029770D01*
X014430Y029944D01*
X014676Y030190D01*
X014850Y030190D01*
X014850Y029770D01*
X015270Y029770D01*
X015270Y029944D01*
X015024Y030190D01*
X014850Y030190D01*
X014850Y029770D01*
X014850Y029770D01*
X014850Y029910D02*
X014850Y029910D01*
X014850Y030068D02*
X014850Y030068D01*
X015146Y030068D02*
X015180Y030068D01*
X015160Y030227D02*
X013237Y030227D01*
X013270Y030194D02*
X013024Y030440D01*
X012850Y030440D01*
X012850Y030020D01*
X012850Y029600D01*
X013024Y029600D01*
X013270Y029846D01*
X013270Y030020D01*
X012850Y030020D01*
X012850Y030020D01*
X012850Y029600D01*
X012676Y029600D01*
X012430Y029846D01*
X012430Y030020D01*
X012850Y030020D01*
X012850Y030020D01*
X012850Y030020D01*
X013270Y030020D01*
X013270Y030194D01*
X013270Y030068D02*
X014554Y030068D01*
X014430Y029910D02*
X013270Y029910D01*
X013175Y029751D02*
X014430Y029751D01*
X014433Y029593D02*
X008045Y029593D01*
X008203Y029751D02*
X012525Y029751D01*
X012430Y029910D02*
X008290Y029910D01*
X008290Y030068D02*
X012430Y030068D01*
X012430Y030020D02*
X012850Y030020D01*
X012850Y030440D01*
X012676Y030440D01*
X012430Y030194D01*
X012430Y030020D01*
X012463Y030227D02*
X008266Y030227D01*
X008107Y030385D02*
X012621Y030385D01*
X012850Y030385D02*
X012850Y030385D01*
X012850Y030227D02*
X012850Y030227D01*
X012850Y030068D02*
X012850Y030068D01*
X012850Y030020D02*
X012850Y030020D01*
X012850Y029910D02*
X012850Y029910D01*
X012850Y029751D02*
X012850Y029751D01*
X013079Y030385D02*
X015160Y030385D01*
X015270Y029910D02*
X015338Y029910D01*
X015270Y029751D02*
X017180Y029751D01*
X017180Y029770D02*
X017180Y029596D01*
X017426Y029350D01*
X017600Y029350D01*
X017774Y029350D01*
X018020Y029596D01*
X018020Y029770D01*
X017600Y029770D01*
X017600Y029350D01*
X017600Y029770D01*
X017600Y029770D01*
X017180Y029770D01*
X017600Y029770D01*
X017600Y029770D01*
X017600Y029770D01*
X018020Y029770D01*
X018020Y029944D01*
X017774Y030190D01*
X017600Y030190D01*
X017426Y030190D01*
X017180Y029944D01*
X017180Y029770D01*
X017180Y029910D02*
X015862Y029910D01*
X016020Y030068D02*
X017304Y030068D01*
X017600Y030068D02*
X017600Y030068D01*
X017600Y030190D02*
X017600Y029770D01*
X017600Y029770D01*
X017600Y030190D01*
X017600Y029910D02*
X017600Y029910D01*
X017600Y029751D02*
X017600Y029751D01*
X017600Y029593D02*
X017600Y029593D01*
X017600Y029434D02*
X017600Y029434D01*
X017858Y029434D02*
X019342Y029434D01*
X019426Y029350D02*
X019180Y029596D01*
X019180Y029770D01*
X019600Y029770D01*
X019600Y029350D01*
X019774Y029350D01*
X020020Y029596D01*
X020020Y029770D01*
X019600Y029770D01*
X019600Y029770D01*
X019600Y029350D01*
X019426Y029350D01*
X019600Y029434D02*
X019600Y029434D01*
X019600Y029593D02*
X019600Y029593D01*
X019600Y029751D02*
X019600Y029751D01*
X019600Y029770D02*
X019600Y029770D01*
X019600Y029770D01*
X019180Y029770D01*
X019180Y029944D01*
X019426Y030190D01*
X019600Y030190D01*
X019600Y029770D01*
X020020Y029770D01*
X020020Y029944D01*
X019774Y030190D01*
X019600Y030190D01*
X019600Y029770D01*
X019600Y029770D01*
X019600Y029910D02*
X019600Y029910D01*
X019600Y030068D02*
X019600Y030068D01*
X019896Y030068D02*
X021060Y030068D01*
X021080Y030118D02*
X020987Y029892D01*
X020987Y029648D01*
X021080Y029423D01*
X021253Y029250D01*
X021478Y029157D01*
X021722Y029157D01*
X021947Y029250D01*
X022120Y029423D01*
X022213Y029648D01*
X022213Y029892D01*
X022120Y030118D01*
X021947Y030290D01*
X021722Y030384D01*
X021478Y030384D01*
X021253Y030290D01*
X021080Y030118D01*
X021189Y030227D02*
X016040Y030227D01*
X016040Y030385D02*
X028400Y030385D01*
X028400Y030227D02*
X025011Y030227D01*
X024947Y030290D02*
X024722Y030384D01*
X024478Y030384D01*
X024253Y030290D01*
X024080Y030118D01*
X023987Y029892D01*
X023987Y029648D01*
X024080Y029423D01*
X024253Y029250D01*
X024478Y029157D01*
X024722Y029157D01*
X024947Y029250D01*
X025120Y029423D01*
X025213Y029648D01*
X025213Y029892D01*
X025120Y030118D01*
X024947Y030290D01*
X025140Y030068D02*
X028400Y030068D01*
X028400Y029910D02*
X025206Y029910D01*
X025213Y029751D02*
X028400Y029751D01*
X028400Y029593D02*
X025190Y029593D01*
X025125Y029434D02*
X028400Y029434D01*
X028400Y029276D02*
X024973Y029276D01*
X024227Y029276D02*
X021973Y029276D01*
X022125Y029434D02*
X024075Y029434D01*
X024010Y029593D02*
X022190Y029593D01*
X022213Y029751D02*
X023987Y029751D01*
X023994Y029910D02*
X022206Y029910D01*
X022140Y030068D02*
X024060Y030068D01*
X024189Y030227D02*
X022011Y030227D01*
X020994Y029910D02*
X020020Y029910D01*
X020020Y029751D02*
X020987Y029751D01*
X021010Y029593D02*
X020017Y029593D01*
X019858Y029434D02*
X021075Y029434D01*
X021227Y029276D02*
X016040Y029276D01*
X016040Y029434D02*
X017342Y029434D01*
X017183Y029593D02*
X015900Y029593D01*
X016040Y029117D02*
X028400Y029117D01*
X028400Y028959D02*
X015911Y028959D01*
X015160Y029276D02*
X007040Y029276D01*
X008152Y028325D02*
X011548Y028325D01*
X011410Y028483D02*
X008290Y028483D01*
X006936Y027057D02*
X010264Y027057D01*
X010160Y026898D02*
X007040Y026898D01*
X007040Y026740D02*
X010160Y026740D01*
X010167Y026581D02*
X007033Y026581D01*
X006875Y026423D02*
X010325Y026423D01*
X010313Y026106D02*
X006887Y026106D01*
X007040Y025947D02*
X010160Y025947D01*
X010160Y025789D02*
X007040Y025789D01*
X007040Y025630D02*
X010160Y025630D01*
X010276Y025472D02*
X006924Y025472D01*
X006276Y025472D02*
X000600Y025472D01*
X000600Y025630D02*
X006160Y025630D01*
X005301Y025947D02*
X004871Y025947D01*
X005020Y026106D02*
X005160Y026106D01*
X005160Y026264D02*
X005020Y026264D01*
X004600Y026264D02*
X004600Y026264D01*
X004600Y026270D02*
X004180Y026270D01*
X004180Y026444D01*
X004426Y026690D01*
X004600Y026690D01*
X004600Y026270D01*
X004600Y026270D01*
X004600Y026423D02*
X004600Y026423D01*
X004600Y026581D02*
X004600Y026581D01*
X004317Y026581D02*
X000600Y026581D01*
X000600Y026423D02*
X004180Y026423D01*
X004180Y026264D02*
X000600Y026264D01*
X000600Y026106D02*
X004180Y026106D01*
X004600Y026106D02*
X004600Y026106D01*
X004600Y025947D02*
X004600Y025947D01*
X007600Y024270D02*
X004600Y021270D01*
X005050Y021192D02*
X007150Y021192D01*
X007150Y021351D02*
X005077Y021351D01*
X005235Y021509D02*
X007203Y021509D01*
X007200Y021034D02*
X005000Y021034D01*
X004841Y020875D02*
X007359Y020875D01*
X007841Y020875D02*
X008873Y020875D01*
X008714Y021034D02*
X008000Y021034D01*
X008050Y021192D02*
X008660Y021192D01*
X008660Y021351D02*
X008050Y021351D01*
X007997Y021509D02*
X008717Y021509D01*
X008875Y021668D02*
X007839Y021668D01*
X007792Y021826D02*
X013320Y021826D01*
X013320Y021668D02*
X010296Y021668D01*
X010455Y021509D02*
X013320Y021509D01*
X013320Y021351D02*
X010520Y021351D01*
X010520Y021192D02*
X013320Y021192D01*
X013320Y021034D02*
X010458Y021034D01*
X010274Y022350D02*
X010100Y022350D01*
X010100Y022770D01*
X010100Y022770D01*
X010100Y022350D01*
X009926Y022350D01*
X009680Y022596D01*
X009680Y022770D01*
X010100Y022770D01*
X010100Y022770D01*
X010520Y022770D01*
X010520Y022596D01*
X010274Y022350D01*
X010384Y022460D02*
X013320Y022460D01*
X013320Y022302D02*
X008050Y022302D01*
X008046Y022460D02*
X008788Y022460D01*
X009412Y022460D02*
X009816Y022460D01*
X009680Y022619D02*
X009540Y022619D01*
X009540Y022777D02*
X009680Y022777D01*
X009680Y022770D02*
X010100Y022770D01*
X010100Y022770D01*
X010520Y022770D01*
X010520Y022944D01*
X010274Y023190D01*
X010100Y023190D01*
X010100Y022770D01*
X010100Y023190D01*
X009926Y023190D01*
X009680Y022944D01*
X009680Y022770D01*
X009680Y022936D02*
X009540Y022936D01*
X009398Y023094D02*
X009830Y023094D01*
X010100Y023094D02*
X010100Y023094D01*
X010100Y022936D02*
X010100Y022936D01*
X010100Y022777D02*
X010100Y022777D01*
X010100Y022770D02*
X010100Y022770D01*
X010100Y022619D02*
X010100Y022619D01*
X010100Y022460D02*
X010100Y022460D01*
X010520Y022619D02*
X013320Y022619D01*
X013320Y022777D02*
X010520Y022777D01*
X010520Y022936D02*
X013320Y022936D01*
X013320Y023094D02*
X010370Y023094D01*
X009040Y024088D02*
X008782Y023830D01*
X008418Y023830D01*
X008160Y024088D01*
X008160Y024452D01*
X008418Y024710D01*
X008782Y024710D01*
X009040Y024452D01*
X009040Y024088D01*
X008997Y024045D02*
X012203Y024045D01*
X012160Y024088D02*
X012418Y023830D01*
X012782Y023830D01*
X013040Y024088D01*
X013040Y024452D01*
X012782Y024710D01*
X012418Y024710D01*
X012160Y024452D01*
X012160Y024088D01*
X012160Y024204D02*
X009040Y024204D01*
X009040Y024362D02*
X012160Y024362D01*
X012228Y024521D02*
X008972Y024521D01*
X008813Y024679D02*
X012387Y024679D01*
X012813Y024679D02*
X013320Y024679D01*
X013320Y024521D02*
X012972Y024521D01*
X013040Y024362D02*
X013320Y024362D01*
X013320Y024204D02*
X013040Y024204D01*
X012997Y024045D02*
X013320Y024045D01*
X013320Y023887D02*
X012839Y023887D01*
X012361Y023887D02*
X008839Y023887D01*
X008361Y023887D02*
X007853Y023887D01*
X008011Y024045D02*
X008203Y024045D01*
X008160Y024204D02*
X008050Y024204D01*
X008050Y024362D02*
X008160Y024362D01*
X008228Y024521D02*
X007986Y024521D01*
X007827Y024679D02*
X008387Y024679D01*
X008050Y022143D02*
X013320Y022143D01*
X013320Y021985D02*
X007951Y021985D01*
X006180Y019607D02*
X006040Y019607D01*
X005901Y019449D02*
X006328Y019449D01*
X007090Y018656D02*
X004882Y018656D01*
X004724Y018498D02*
X006932Y018498D01*
X006773Y018339D02*
X004565Y018339D01*
X004407Y018181D02*
X006615Y018181D01*
X006456Y018022D02*
X004380Y018022D01*
X004380Y017864D02*
X006298Y017864D01*
X006139Y017705D02*
X004380Y017705D01*
X004380Y017547D02*
X005981Y017547D01*
X005822Y017388D02*
X004380Y017388D01*
X004380Y017230D02*
X005664Y017230D01*
X005505Y017071D02*
X004380Y017071D01*
X004380Y016913D02*
X005347Y016913D01*
X005822Y016596D02*
X007030Y016596D01*
X007188Y016754D02*
X005980Y016754D01*
X006139Y016913D02*
X007347Y016913D01*
X007663Y016437D02*
X013320Y016437D01*
X013320Y016279D02*
X007505Y016279D01*
X007872Y016120D02*
X008828Y016120D01*
X008918Y016210D02*
X008660Y015952D01*
X008660Y015588D01*
X008820Y015428D01*
X008820Y015129D01*
X008761Y015159D01*
X008698Y015180D01*
X008633Y015190D01*
X008600Y015190D01*
X008567Y015190D01*
X008502Y015180D01*
X008439Y015159D01*
X008380Y015129D01*
X008326Y015091D01*
X008280Y015044D01*
X008241Y014990D01*
X008211Y014931D01*
X008190Y014869D01*
X008180Y014803D01*
X008180Y014770D01*
X008180Y014737D01*
X008190Y014672D01*
X008211Y014609D01*
X008241Y014550D01*
X008280Y014497D01*
X008326Y014450D01*
X008380Y014411D01*
X008439Y014381D01*
X008502Y014361D01*
X008567Y014350D01*
X008600Y014350D01*
X008600Y014770D01*
X008600Y014350D01*
X008633Y014350D01*
X008698Y014361D01*
X008761Y014381D01*
X008820Y014411D01*
X008820Y014386D01*
X008363Y013929D01*
X008320Y013826D01*
X008320Y012112D01*
X008227Y012019D01*
X008160Y011858D01*
X008160Y011683D01*
X008227Y011521D01*
X008351Y011397D01*
X008512Y011330D01*
X008688Y011330D01*
X008849Y011397D01*
X008973Y011521D01*
X009040Y011683D01*
X009040Y011858D01*
X008973Y012019D01*
X008880Y012112D01*
X008880Y013654D01*
X009259Y014033D01*
X009337Y014112D01*
X009380Y014215D01*
X009380Y014385D01*
X009512Y014330D01*
X009688Y014330D01*
X009849Y014397D01*
X009973Y014521D01*
X010040Y014683D01*
X010040Y014858D01*
X009973Y015019D01*
X009849Y015143D01*
X009688Y015210D01*
X009512Y015210D01*
X009380Y015155D01*
X009380Y015428D01*
X009540Y015588D01*
X009540Y015952D01*
X009282Y016210D01*
X008918Y016210D01*
X008669Y015962D02*
X008031Y015962D01*
X008040Y015803D02*
X008660Y015803D01*
X008660Y015645D02*
X008040Y015645D01*
X007938Y015486D02*
X008762Y015486D01*
X008820Y015328D02*
X007380Y015328D01*
X007380Y015169D02*
X007414Y015169D01*
X007786Y015169D02*
X008469Y015169D01*
X008600Y015169D02*
X008600Y015169D01*
X008600Y015190D02*
X008600Y014770D01*
X008600Y014770D01*
X008180Y014770D01*
X008600Y014770D01*
X008600Y014770D01*
X008820Y014770D01*
X008820Y014770D01*
X008600Y014770D01*
X008600Y014770D01*
X008600Y014770D01*
X008600Y015190D01*
X008731Y015169D02*
X008820Y015169D01*
X008600Y015011D02*
X008600Y015011D01*
X008600Y014852D02*
X008600Y014852D01*
X008600Y014694D02*
X008600Y014694D01*
X008600Y014535D02*
X008600Y014535D01*
X008600Y014377D02*
X008600Y014377D01*
X008748Y014377D02*
X008811Y014377D01*
X008652Y014218D02*
X007380Y014218D01*
X007380Y014377D02*
X007400Y014377D01*
X007100Y014270D02*
X005600Y012770D01*
X005600Y011770D01*
X006040Y011841D02*
X006160Y011841D01*
X006160Y011682D02*
X006040Y011682D01*
X006040Y011524D02*
X006226Y011524D01*
X006428Y011365D02*
X005958Y011365D01*
X006324Y010890D02*
X005040Y010890D01*
X005040Y010731D02*
X006165Y010731D01*
X006007Y010573D02*
X005025Y010573D01*
X004866Y010414D02*
X005857Y010414D01*
X006100Y010270D02*
X007600Y011770D01*
X007386Y012158D02*
X006814Y012158D01*
X006981Y011999D02*
X007219Y011999D01*
X007160Y011841D02*
X007040Y011841D01*
X007040Y011682D02*
X007116Y011682D01*
X006799Y011365D02*
X006772Y011365D01*
X006641Y011207D02*
X004786Y011207D01*
X004944Y011048D02*
X006482Y011048D01*
X006957Y010731D02*
X007160Y010731D01*
X007160Y010890D02*
X007115Y010890D01*
X007175Y010573D02*
X006798Y010573D01*
X006640Y010414D02*
X007334Y010414D01*
X007866Y010414D02*
X008334Y010414D01*
X008418Y010330D02*
X008160Y010588D01*
X008160Y010952D01*
X008418Y011210D01*
X008782Y011210D01*
X009040Y010952D01*
X009040Y010588D01*
X008782Y010330D01*
X008418Y010330D01*
X008175Y010573D02*
X008025Y010573D01*
X008040Y010731D02*
X008160Y010731D01*
X008160Y010890D02*
X008040Y010890D01*
X007944Y011048D02*
X008256Y011048D01*
X008414Y011207D02*
X007786Y011207D01*
X007772Y011365D02*
X008428Y011365D01*
X008226Y011524D02*
X007974Y011524D01*
X008040Y011682D02*
X008160Y011682D01*
X008160Y011841D02*
X008040Y011841D01*
X007981Y011999D02*
X008219Y011999D01*
X008320Y012158D02*
X007814Y012158D01*
X008320Y012316D02*
X005880Y012316D01*
X005880Y012475D02*
X008320Y012475D01*
X008320Y012633D02*
X005880Y012633D01*
X006017Y012792D02*
X008320Y012792D01*
X008320Y012950D02*
X006176Y012950D01*
X006334Y013109D02*
X008320Y013109D01*
X008320Y013267D02*
X006493Y013267D01*
X006651Y013426D02*
X008320Y013426D01*
X008320Y013584D02*
X006810Y013584D01*
X006969Y013743D02*
X008320Y013743D01*
X008351Y013901D02*
X007127Y013901D01*
X007286Y014060D02*
X008494Y014060D01*
X008600Y013770D02*
X009100Y014270D01*
X009100Y015770D01*
X009540Y015803D02*
X009660Y015803D01*
X009660Y015952D02*
X009660Y015588D01*
X009918Y015330D01*
X010282Y015330D01*
X010540Y015588D01*
X010540Y015952D01*
X010282Y016210D01*
X009918Y016210D01*
X009660Y015952D01*
X009669Y015962D02*
X009531Y015962D01*
X009372Y016120D02*
X009828Y016120D01*
X009660Y015645D02*
X009540Y015645D01*
X009438Y015486D02*
X009762Y015486D01*
X009786Y015169D02*
X010414Y015169D01*
X010351Y015143D02*
X010227Y015019D01*
X010160Y014858D01*
X010160Y014683D01*
X010227Y014521D01*
X010351Y014397D01*
X010512Y014330D01*
X010688Y014330D01*
X010849Y014397D01*
X010973Y014521D01*
X011040Y014683D01*
X011040Y014858D01*
X010973Y015019D01*
X010849Y015143D01*
X010688Y015210D01*
X010512Y015210D01*
X010351Y015143D01*
X010223Y015011D02*
X009977Y015011D01*
X010040Y014852D02*
X010160Y014852D01*
X010160Y014694D02*
X010040Y014694D01*
X009979Y014535D02*
X010221Y014535D01*
X010400Y014377D02*
X009800Y014377D01*
X009400Y014377D02*
X009380Y014377D01*
X009380Y014218D02*
X013320Y014218D01*
X013320Y014060D02*
X009286Y014060D01*
X009127Y013901D02*
X013320Y013901D01*
X013320Y013743D02*
X008969Y013743D01*
X008880Y013584D02*
X013320Y013584D01*
X013320Y013426D02*
X008880Y013426D01*
X008880Y013267D02*
X013320Y013267D01*
X013320Y013109D02*
X008880Y013109D01*
X008880Y012950D02*
X013320Y012950D01*
X013320Y012792D02*
X008880Y012792D01*
X008880Y012633D02*
X013320Y012633D01*
X013320Y012475D02*
X008880Y012475D01*
X008880Y012316D02*
X013320Y012316D01*
X013320Y012158D02*
X011814Y012158D01*
X011849Y012143D02*
X011688Y012210D01*
X011512Y012210D01*
X011351Y012143D01*
X011227Y012019D01*
X011160Y011858D01*
X011160Y011683D01*
X011227Y011521D01*
X011351Y011397D01*
X011512Y011330D01*
X011688Y011330D01*
X011849Y011397D01*
X011973Y011521D01*
X012040Y011683D01*
X012040Y011858D01*
X011973Y012019D01*
X011849Y012143D01*
X011981Y011999D02*
X013320Y011999D01*
X013320Y011841D02*
X012040Y011841D01*
X012040Y011682D02*
X013320Y011682D01*
X013320Y011524D02*
X011974Y011524D01*
X011772Y011365D02*
X013320Y011365D01*
X013320Y011207D02*
X013286Y011207D01*
X012914Y011207D02*
X012286Y011207D01*
X012282Y011210D02*
X011918Y011210D01*
X011660Y010952D01*
X011660Y010588D01*
X011918Y010330D01*
X012282Y010330D01*
X012540Y010588D01*
X012540Y010952D01*
X012282Y011210D01*
X012444Y011048D02*
X012756Y011048D01*
X012660Y010890D02*
X012540Y010890D01*
X012540Y010731D02*
X012660Y010731D01*
X012675Y010573D02*
X012525Y010573D01*
X012366Y010414D02*
X012834Y010414D01*
X013320Y010256D02*
X006481Y010256D01*
X006395Y010097D02*
X013320Y010097D01*
X013320Y009939D02*
X006540Y009939D01*
X006540Y009780D02*
X013320Y009780D01*
X013320Y009622D02*
X006540Y009622D01*
X006415Y009463D02*
X013320Y009463D01*
X013880Y009463D02*
X015671Y009463D01*
X015660Y009452D02*
X015660Y009088D01*
X015918Y008830D01*
X016282Y008830D01*
X016540Y009088D01*
X016540Y009452D01*
X016282Y009710D01*
X015918Y009710D01*
X015660Y009452D01*
X015660Y009305D02*
X013880Y009305D01*
X013880Y009146D02*
X015660Y009146D01*
X015760Y008988D02*
X013880Y008988D01*
X013937Y008829D02*
X023145Y008829D01*
X023304Y008671D02*
X014095Y008671D01*
X014254Y008512D02*
X023462Y008512D01*
X023937Y008829D02*
X024820Y008829D01*
X024820Y008671D02*
X024095Y008671D01*
X024254Y008512D02*
X024820Y008512D01*
X024820Y008354D02*
X024412Y008354D01*
X024820Y008988D02*
X023778Y008988D01*
X023620Y009146D02*
X024820Y009146D01*
X024820Y009305D02*
X023461Y009305D01*
X023426Y009350D02*
X023180Y009596D01*
X023180Y009770D01*
X023600Y009770D01*
X023600Y009350D01*
X023774Y009350D01*
X024020Y009596D01*
X024020Y009770D01*
X023600Y009770D01*
X023600Y009770D01*
X023600Y009350D01*
X023426Y009350D01*
X023313Y009463D02*
X023303Y009463D01*
X023180Y009622D02*
X023144Y009622D01*
X023180Y009770D02*
X023600Y009770D01*
X023600Y009770D01*
X023600Y009770D01*
X024020Y009770D01*
X024020Y009944D01*
X023774Y010190D01*
X023600Y010190D01*
X023426Y010190D01*
X023180Y009944D01*
X023180Y009770D01*
X023180Y009780D02*
X022986Y009780D01*
X022880Y009939D02*
X023180Y009939D01*
X023333Y010097D02*
X022880Y010097D01*
X022880Y010256D02*
X023910Y010256D01*
X023782Y010330D02*
X024040Y010588D01*
X024040Y010952D01*
X023782Y011210D01*
X023418Y011210D01*
X023160Y010952D01*
X023160Y010588D01*
X023418Y010330D01*
X023782Y010330D01*
X023866Y010414D02*
X023910Y010414D01*
X023910Y010452D02*
X023910Y010088D01*
X024168Y009830D01*
X024532Y009830D01*
X024790Y010088D01*
X024790Y010452D01*
X024532Y010710D01*
X024168Y010710D01*
X023910Y010452D01*
X024025Y010573D02*
X024030Y010573D01*
X024040Y010731D02*
X024820Y010731D01*
X024820Y010573D02*
X024670Y010573D01*
X024790Y010414D02*
X024820Y010414D01*
X024820Y010256D02*
X024790Y010256D01*
X024790Y010097D02*
X024820Y010097D01*
X024820Y009939D02*
X024641Y009939D01*
X024820Y009780D02*
X024020Y009780D01*
X024020Y009622D02*
X024820Y009622D01*
X024820Y009463D02*
X023887Y009463D01*
X023600Y009463D02*
X023600Y009463D01*
X023600Y009622D02*
X023600Y009622D01*
X023600Y009770D02*
X023600Y010190D01*
X023600Y009770D01*
X023600Y009770D01*
X023600Y009780D02*
X023600Y009780D01*
X023600Y009939D02*
X023600Y009939D01*
X023600Y010097D02*
X023600Y010097D01*
X023867Y010097D02*
X023910Y010097D01*
X024020Y009939D02*
X024059Y009939D01*
X023334Y010414D02*
X022843Y010414D01*
X022693Y010573D02*
X023175Y010573D01*
X023160Y010731D02*
X022535Y010731D01*
X022376Y010890D02*
X023160Y010890D01*
X023256Y011048D02*
X022218Y011048D01*
X022059Y011207D02*
X023414Y011207D01*
X023786Y011207D02*
X024820Y011207D01*
X024820Y011365D02*
X022317Y011365D01*
X022476Y011524D02*
X024820Y011524D01*
X024820Y011682D02*
X022540Y011682D01*
X022540Y011841D02*
X024820Y011841D01*
X024820Y011999D02*
X023923Y011999D01*
X024020Y012096D02*
X024020Y012270D01*
X023600Y012270D01*
X023600Y011850D01*
X023774Y011850D01*
X024020Y012096D01*
X024020Y012158D02*
X024820Y012158D01*
X024820Y012316D02*
X024020Y012316D01*
X024020Y012270D02*
X024020Y012444D01*
X023774Y012690D01*
X023600Y012690D01*
X023426Y012690D01*
X023180Y012444D01*
X023180Y012270D01*
X023180Y012096D01*
X023426Y011850D01*
X023600Y011850D01*
X023600Y012270D01*
X023600Y012270D01*
X023180Y012270D01*
X023600Y012270D01*
X023600Y012270D01*
X023600Y012270D01*
X024020Y012270D01*
X024023Y012475D02*
X023989Y012475D01*
X023910Y012633D02*
X023831Y012633D01*
X023910Y012792D02*
X022540Y012792D01*
X022540Y012950D02*
X023298Y012950D01*
X023160Y013109D02*
X022384Y013109D01*
X022282Y013210D02*
X022540Y012952D01*
X022540Y012588D01*
X022282Y012330D01*
X021918Y012330D01*
X021660Y012588D01*
X021660Y012952D01*
X021918Y013210D01*
X022282Y013210D01*
X021816Y013109D02*
X018384Y013109D01*
X017999Y013267D02*
X023160Y013267D01*
X023160Y013426D02*
X020878Y013426D01*
X020600Y013770D02*
X024600Y013770D01*
X025100Y014270D01*
X025550Y014218D02*
X025650Y014218D01*
X025674Y014060D02*
X025526Y014060D01*
X025367Y013901D02*
X025833Y013901D01*
X026367Y013901D02*
X028400Y013901D01*
X028400Y013743D02*
X024968Y013743D01*
X024810Y013584D02*
X028400Y013584D01*
X028400Y013426D02*
X024840Y013426D01*
X024999Y013267D02*
X028400Y013267D01*
X028400Y013109D02*
X025157Y013109D01*
X025316Y012950D02*
X028400Y012950D01*
X028400Y012792D02*
X025380Y012792D01*
X025380Y012633D02*
X026361Y012633D01*
X026419Y012691D02*
X026164Y012436D01*
X026164Y012075D01*
X026419Y011819D01*
X026781Y011819D01*
X027036Y012075D01*
X027036Y012436D01*
X026781Y012691D01*
X026419Y012691D01*
X026203Y012475D02*
X025380Y012475D01*
X025380Y012316D02*
X026164Y012316D01*
X026164Y012158D02*
X025380Y012158D01*
X025380Y011999D02*
X026239Y011999D01*
X026398Y011841D02*
X025380Y011841D01*
X025380Y011682D02*
X028400Y011682D01*
X028400Y011524D02*
X025380Y011524D01*
X025380Y011365D02*
X028400Y011365D01*
X028400Y011207D02*
X025380Y011207D01*
X025380Y011048D02*
X028400Y011048D01*
X028400Y010890D02*
X025380Y010890D01*
X025380Y010731D02*
X028400Y010731D01*
X028400Y010573D02*
X026929Y010573D01*
X027036Y010466D02*
X026781Y010721D01*
X026419Y010721D01*
X026164Y010466D01*
X026164Y010105D01*
X026419Y009849D01*
X026781Y009849D01*
X027036Y010105D01*
X027036Y010466D01*
X027036Y010414D02*
X028400Y010414D01*
X028400Y010256D02*
X027036Y010256D01*
X027029Y010097D02*
X028400Y010097D01*
X028400Y009939D02*
X026870Y009939D01*
X026330Y009939D02*
X025380Y009939D01*
X025380Y010097D02*
X026171Y010097D01*
X026164Y010256D02*
X025380Y010256D01*
X025380Y010414D02*
X026164Y010414D01*
X026271Y010573D02*
X025380Y010573D01*
X024820Y010890D02*
X024040Y010890D01*
X023944Y011048D02*
X024820Y011048D01*
X025380Y009780D02*
X028400Y009780D01*
X028400Y009622D02*
X025380Y009622D01*
X025380Y009463D02*
X028400Y009463D01*
X028400Y009305D02*
X025380Y009305D01*
X025380Y009146D02*
X028400Y009146D01*
X028400Y008988D02*
X025380Y008988D01*
X025380Y008829D02*
X028400Y008829D01*
X028400Y008671D02*
X025380Y008671D01*
X025380Y008512D02*
X028400Y008512D01*
X028400Y008354D02*
X025380Y008354D01*
X025380Y008195D02*
X025403Y008195D01*
X025797Y008195D02*
X028400Y008195D01*
X028400Y008037D02*
X027927Y008037D01*
X028020Y007944D02*
X027774Y008190D01*
X027600Y008190D01*
X027600Y007770D01*
X027600Y007350D01*
X027774Y007350D01*
X028020Y007596D01*
X028020Y007770D01*
X027600Y007770D01*
X027600Y007770D01*
X027600Y007350D01*
X027426Y007350D01*
X027180Y007596D01*
X027180Y007770D01*
X027600Y007770D01*
X027600Y007770D01*
X027600Y007770D01*
X028020Y007770D01*
X028020Y007944D01*
X028020Y007878D02*
X028400Y007878D01*
X028400Y007720D02*
X028020Y007720D01*
X027985Y007561D02*
X028400Y007561D01*
X028400Y007403D02*
X027826Y007403D01*
X027600Y007403D02*
X027600Y007403D01*
X027600Y007561D02*
X027600Y007561D01*
X027600Y007720D02*
X027600Y007720D01*
X027600Y007770D02*
X027180Y007770D01*
X027180Y007944D01*
X027426Y008190D01*
X027600Y008190D01*
X027600Y007770D01*
X027600Y007770D01*
X027600Y007878D02*
X027600Y007878D01*
X027600Y008037D02*
X027600Y008037D01*
X027273Y008037D02*
X025956Y008037D01*
X026040Y007878D02*
X027180Y007878D01*
X027180Y007720D02*
X026040Y007720D01*
X026013Y007561D02*
X027215Y007561D01*
X027374Y007403D02*
X025855Y007403D01*
X025380Y007244D02*
X028400Y007244D01*
X028400Y007086D02*
X025311Y007086D01*
X025259Y007033D02*
X025259Y007033D01*
X025153Y006927D02*
X028400Y006927D01*
X028400Y006769D02*
X024994Y006769D01*
X024837Y006612D02*
X024837Y006612D01*
X024836Y006610D02*
X028400Y006610D01*
X025100Y007270D02*
X024600Y006770D01*
X025100Y007270D02*
X025100Y012770D01*
X024600Y013270D01*
X023600Y013270D01*
X023902Y012950D02*
X023910Y012950D01*
X023600Y012690D02*
X023600Y012270D01*
X023600Y012690D01*
X023600Y012633D02*
X023600Y012633D01*
X023600Y012475D02*
X023600Y012475D01*
X023600Y012316D02*
X023600Y012316D01*
X023600Y012270D02*
X023600Y012270D01*
X023600Y012158D02*
X023600Y012158D01*
X023600Y011999D02*
X023600Y011999D01*
X023277Y011999D02*
X022493Y011999D01*
X022335Y012158D02*
X023180Y012158D01*
X023180Y012316D02*
X020950Y012316D01*
X021108Y012158D02*
X021865Y012158D01*
X021707Y011999D02*
X021267Y011999D01*
X021425Y011841D02*
X021660Y011841D01*
X021660Y011682D02*
X021584Y011682D01*
X021268Y011207D02*
X016540Y011207D01*
X016540Y011088D02*
X016282Y010830D01*
X015918Y010830D01*
X015660Y011088D01*
X015660Y011452D01*
X015918Y011710D01*
X016282Y011710D01*
X016540Y011452D01*
X016540Y011088D01*
X016500Y011048D02*
X021426Y011048D01*
X021420Y010890D02*
X020780Y010890D01*
X020761Y010899D02*
X020698Y010920D01*
X020633Y010930D01*
X020600Y010930D01*
X020567Y010930D01*
X020502Y010920D01*
X020439Y010899D01*
X020380Y010869D01*
X020326Y010831D01*
X020280Y010784D01*
X020241Y010730D01*
X020211Y010671D01*
X020190Y010609D01*
X020180Y010543D01*
X020180Y010270D01*
X020180Y009997D01*
X020190Y009932D01*
X020211Y009869D01*
X020241Y009810D01*
X020280Y009757D01*
X020326Y009710D01*
X020380Y009671D01*
X020439Y009641D01*
X020502Y009621D01*
X020567Y009610D01*
X020600Y009610D01*
X020633Y009610D01*
X020698Y009621D01*
X020761Y009641D01*
X020820Y009671D01*
X020874Y009710D01*
X020920Y009757D01*
X020959Y009810D01*
X020989Y009869D01*
X021010Y009932D01*
X021020Y009997D01*
X021020Y010270D01*
X020600Y010270D01*
X020600Y009610D01*
X020600Y010270D01*
X020600Y010270D01*
X020180Y010270D01*
X020600Y010270D01*
X020600Y010270D01*
X020600Y010270D01*
X021020Y010270D01*
X021020Y010543D01*
X021010Y010609D01*
X020989Y010671D01*
X020959Y010730D01*
X020920Y010784D01*
X020874Y010831D01*
X020820Y010869D01*
X020761Y010899D01*
X020600Y010890D02*
X020600Y010890D01*
X020600Y010930D02*
X020600Y010270D01*
X020600Y010270D01*
X020600Y010930D01*
X020420Y010890D02*
X019834Y010890D01*
X019849Y010883D02*
X019688Y010950D01*
X019512Y010950D01*
X019351Y010883D01*
X019227Y010759D01*
X019160Y010598D01*
X019160Y009943D01*
X019227Y009781D01*
X019351Y009657D01*
X019512Y009590D01*
X019688Y009590D01*
X019849Y009657D01*
X019973Y009781D01*
X020040Y009943D01*
X020040Y010598D01*
X019973Y010759D01*
X019849Y010883D01*
X019985Y010731D02*
X020241Y010731D01*
X020185Y010573D02*
X020040Y010573D01*
X020040Y010414D02*
X020180Y010414D01*
X020180Y010256D02*
X020040Y010256D01*
X020040Y010097D02*
X020180Y010097D01*
X020189Y009939D02*
X020038Y009939D01*
X019972Y009780D02*
X020262Y009780D01*
X020498Y009622D02*
X019764Y009622D01*
X019436Y009622D02*
X016371Y009622D01*
X016529Y009463D02*
X022511Y009463D01*
X022358Y009622D02*
X021702Y009622D01*
X021600Y009622D02*
X021600Y009622D01*
X021498Y009622D02*
X020702Y009622D01*
X020600Y009622D02*
X020600Y009622D01*
X020600Y009780D02*
X020600Y009780D01*
X020600Y009939D02*
X020600Y009939D01*
X020600Y010097D02*
X020600Y010097D01*
X020600Y010256D02*
X020600Y010256D01*
X020600Y010414D02*
X020600Y010414D01*
X020600Y010573D02*
X020600Y010573D01*
X020600Y010731D02*
X020600Y010731D01*
X020959Y010731D02*
X021241Y010731D01*
X021185Y010573D02*
X021015Y010573D01*
X021020Y010414D02*
X021180Y010414D01*
X021180Y010256D02*
X021020Y010256D01*
X021020Y010097D02*
X021180Y010097D01*
X021189Y009939D02*
X021011Y009939D01*
X020938Y009780D02*
X021262Y009780D01*
X021600Y009780D02*
X021600Y009780D01*
X021600Y009939D02*
X021600Y009939D01*
X021600Y010097D02*
X021600Y010097D01*
X021600Y010256D02*
X021600Y010256D01*
X022020Y010256D02*
X022219Y010256D01*
X022320Y010097D02*
X022020Y010097D01*
X022011Y009939D02*
X022320Y009939D01*
X022320Y009780D02*
X021938Y009780D01*
X022020Y010414D02*
X022060Y010414D01*
X022670Y009305D02*
X016540Y009305D01*
X016540Y009146D02*
X022828Y009146D01*
X022987Y008988D02*
X016440Y008988D01*
X015829Y009622D02*
X013880Y009622D01*
X013880Y009780D02*
X019228Y009780D01*
X019162Y009939D02*
X016362Y009939D01*
X016274Y009850D02*
X016520Y010096D01*
X016520Y010270D01*
X016100Y010270D01*
X016100Y009850D01*
X016274Y009850D01*
X016100Y009850D02*
X016100Y010270D01*
X016100Y010270D01*
X015680Y010270D01*
X015680Y010096D01*
X015926Y009850D01*
X016100Y009850D01*
X016100Y009939D02*
X016100Y009939D01*
X016100Y010097D02*
X016100Y010097D01*
X016100Y010256D02*
X016100Y010256D01*
X016100Y010270D02*
X016100Y010270D01*
X016100Y010270D01*
X015680Y010270D01*
X015680Y010444D01*
X015926Y010690D01*
X016100Y010690D01*
X016100Y010270D01*
X016520Y010270D01*
X016520Y010444D01*
X016274Y010690D01*
X016100Y010690D01*
X016100Y010270D01*
X016100Y010270D01*
X016100Y010414D02*
X016100Y010414D01*
X016100Y010573D02*
X016100Y010573D01*
X016391Y010573D02*
X019160Y010573D01*
X019160Y010414D02*
X016520Y010414D01*
X016520Y010256D02*
X019160Y010256D01*
X019160Y010097D02*
X016520Y010097D01*
X015838Y009939D02*
X013880Y009939D01*
X013880Y010097D02*
X015680Y010097D01*
X015680Y010256D02*
X013880Y010256D01*
X013880Y010414D02*
X015680Y010414D01*
X015809Y010573D02*
X013880Y010573D01*
X013880Y010731D02*
X019215Y010731D01*
X019366Y010890D02*
X016342Y010890D01*
X016540Y011365D02*
X017883Y011365D01*
X017918Y011330D02*
X018282Y011330D01*
X018540Y011588D01*
X018540Y011952D01*
X018282Y012210D01*
X017918Y012210D01*
X017660Y011952D01*
X017660Y011588D01*
X017918Y011330D01*
X017724Y011524D02*
X016469Y011524D01*
X016310Y011682D02*
X017660Y011682D01*
X017660Y011841D02*
X013880Y011841D01*
X013880Y011999D02*
X017707Y011999D01*
X017865Y012158D02*
X013880Y012158D01*
X013880Y012316D02*
X020158Y012316D01*
X020317Y012158D02*
X018335Y012158D01*
X018493Y011999D02*
X020475Y011999D01*
X020634Y011841D02*
X018540Y011841D01*
X018540Y011682D02*
X020792Y011682D01*
X020951Y011524D02*
X018476Y011524D01*
X018317Y011365D02*
X021109Y011365D01*
X020791Y012475D02*
X021773Y012475D01*
X021660Y012633D02*
X020633Y012633D01*
X020474Y012792D02*
X021660Y012792D01*
X021660Y012950D02*
X020316Y012950D01*
X020322Y013426D02*
X019878Y013426D01*
X019782Y013330D02*
X020040Y013588D01*
X020040Y013952D01*
X019782Y014210D01*
X019418Y014210D01*
X019160Y013952D01*
X019160Y013588D01*
X019418Y013330D01*
X019782Y013330D01*
X020036Y013584D02*
X020164Y013584D01*
X020160Y013743D02*
X020040Y013743D01*
X020040Y013901D02*
X020160Y013901D01*
X020267Y014060D02*
X019933Y014060D01*
X019267Y014060D02*
X017380Y014060D01*
X017380Y014218D02*
X022650Y014218D01*
X022650Y014060D02*
X020933Y014060D01*
X021713Y014535D02*
X018487Y014535D01*
X018540Y014588D02*
X018282Y014330D01*
X017918Y014330D01*
X017660Y014588D01*
X017660Y014952D01*
X017918Y015210D01*
X018282Y015210D01*
X018540Y014952D01*
X018540Y014588D01*
X018540Y014694D02*
X021660Y014694D01*
X021660Y014852D02*
X018540Y014852D01*
X018482Y015011D02*
X021718Y015011D01*
X021877Y015169D02*
X018323Y015169D01*
X018282Y015330D02*
X018540Y015588D01*
X018540Y015952D01*
X018282Y016210D01*
X017918Y016210D01*
X017660Y015952D01*
X017660Y015588D01*
X017918Y015330D01*
X018282Y015330D01*
X018438Y015486D02*
X021762Y015486D01*
X021660Y015588D02*
X021918Y015330D01*
X022282Y015330D01*
X022540Y015588D01*
X022540Y015952D01*
X022282Y016210D01*
X021918Y016210D01*
X021660Y015952D01*
X021660Y015588D01*
X021660Y015645D02*
X018540Y015645D01*
X018540Y015803D02*
X021660Y015803D01*
X021669Y015962D02*
X018531Y015962D01*
X018372Y016120D02*
X021828Y016120D01*
X021918Y016330D02*
X022282Y016330D01*
X022540Y016588D01*
X022540Y016952D01*
X022282Y017210D01*
X021918Y017210D01*
X021660Y016952D01*
X021660Y016588D01*
X021918Y016330D01*
X021811Y016437D02*
X018389Y016437D01*
X018282Y016330D02*
X018540Y016588D01*
X018540Y016952D01*
X018282Y017210D01*
X017918Y017210D01*
X017660Y016952D01*
X017660Y016588D01*
X017918Y016330D01*
X018282Y016330D01*
X018540Y016596D02*
X021660Y016596D01*
X021660Y016754D02*
X018540Y016754D01*
X018540Y016913D02*
X021660Y016913D01*
X021779Y017071D02*
X018421Y017071D01*
X017779Y017071D02*
X017380Y017071D01*
X017380Y016913D02*
X017660Y016913D01*
X017660Y016754D02*
X017380Y016754D01*
X017380Y016596D02*
X017660Y016596D01*
X017811Y016437D02*
X017380Y016437D01*
X017380Y016279D02*
X027180Y016279D01*
X027180Y016270D02*
X027600Y016270D01*
X027600Y015850D01*
X027774Y015850D01*
X028020Y016096D01*
X028020Y016270D01*
X027600Y016270D01*
X027600Y016270D01*
X027600Y015850D01*
X027426Y015850D01*
X027180Y016096D01*
X027180Y016270D01*
X027600Y016270D01*
X027600Y016270D01*
X027600Y016270D01*
X028020Y016270D01*
X028020Y016444D01*
X027774Y016690D01*
X027600Y016690D01*
X027426Y016690D01*
X027180Y016444D01*
X027180Y016270D01*
X027180Y016120D02*
X022372Y016120D01*
X022531Y015962D02*
X027315Y015962D01*
X027600Y015962D02*
X027600Y015962D01*
X027600Y016120D02*
X027600Y016120D01*
X027600Y016270D02*
X027600Y016690D01*
X027600Y016270D01*
X027600Y016270D01*
X027600Y016279D02*
X027600Y016279D01*
X027600Y016437D02*
X027600Y016437D01*
X027600Y016596D02*
X027600Y016596D01*
X027868Y016596D02*
X028400Y016596D01*
X028400Y016754D02*
X022540Y016754D01*
X022540Y016596D02*
X027332Y016596D01*
X027180Y016437D02*
X022389Y016437D01*
X022540Y016913D02*
X022849Y016913D01*
X022922Y016840D02*
X022670Y017092D01*
X022670Y017270D01*
X023100Y017270D01*
X023100Y016840D01*
X023278Y016840D01*
X023530Y017092D01*
X023530Y017270D01*
X023100Y017270D01*
X023100Y017270D01*
X023100Y016840D01*
X022922Y016840D01*
X023100Y016913D02*
X023100Y016913D01*
X023100Y017071D02*
X023100Y017071D01*
X023100Y017230D02*
X023100Y017230D01*
X023100Y017270D02*
X023100Y017270D01*
X023100Y017270D01*
X022670Y017270D01*
X022670Y017448D01*
X022922Y017700D01*
X023100Y017700D01*
X023100Y017270D01*
X023530Y017270D01*
X023530Y017448D01*
X023278Y017700D01*
X023100Y017700D01*
X023100Y017270D01*
X023100Y017270D01*
X023100Y017388D02*
X023100Y017388D01*
X023100Y017547D02*
X023100Y017547D01*
X023432Y017547D02*
X023740Y017547D01*
X023650Y017457D02*
X023650Y017084D01*
X023914Y016820D01*
X024286Y016820D01*
X024550Y017084D01*
X024550Y017457D01*
X024286Y017720D01*
X023914Y017720D01*
X023650Y017457D01*
X023650Y017388D02*
X023530Y017388D01*
X023530Y017230D02*
X023650Y017230D01*
X023663Y017071D02*
X023509Y017071D01*
X023351Y016913D02*
X023821Y016913D01*
X024379Y016913D02*
X024821Y016913D01*
X024914Y016820D02*
X025286Y016820D01*
X025550Y017084D01*
X025550Y017457D01*
X025286Y017720D01*
X024914Y017720D01*
X024650Y017457D01*
X024650Y017084D01*
X024914Y016820D01*
X024663Y017071D02*
X024537Y017071D01*
X024550Y017230D02*
X024650Y017230D01*
X024650Y017388D02*
X024550Y017388D01*
X024460Y017547D02*
X024740Y017547D01*
X024899Y017705D02*
X024301Y017705D01*
X023899Y017705D02*
X017380Y017705D01*
X017380Y017547D02*
X022768Y017547D01*
X022670Y017388D02*
X017380Y017388D01*
X017380Y017230D02*
X022670Y017230D01*
X022691Y017071D02*
X022421Y017071D01*
X022540Y015803D02*
X028400Y015803D01*
X028400Y015645D02*
X022540Y015645D01*
X022438Y015486D02*
X028400Y015486D01*
X028400Y015328D02*
X017380Y015328D01*
X017380Y015486D02*
X017762Y015486D01*
X017660Y015645D02*
X017380Y015645D01*
X017380Y015803D02*
X017660Y015803D01*
X017669Y015962D02*
X017380Y015962D01*
X017380Y016120D02*
X017828Y016120D01*
X017877Y015169D02*
X017380Y015169D01*
X017380Y015011D02*
X017718Y015011D01*
X017660Y014852D02*
X017380Y014852D01*
X017380Y014694D02*
X017660Y014694D01*
X017713Y014535D02*
X017380Y014535D01*
X017380Y014377D02*
X017871Y014377D01*
X018329Y014377D02*
X021871Y014377D01*
X022100Y014770D02*
X025600Y014770D01*
X026100Y014270D01*
X026550Y014218D02*
X028400Y014218D01*
X028400Y014060D02*
X026526Y014060D01*
X026550Y014377D02*
X028400Y014377D01*
X028400Y014535D02*
X026471Y014535D01*
X026313Y014694D02*
X028400Y014694D01*
X028400Y014852D02*
X025914Y014852D01*
X025751Y015011D02*
X028400Y015011D01*
X028400Y015169D02*
X022323Y015169D01*
X022329Y014377D02*
X022650Y014377D01*
X022540Y012633D02*
X023369Y012633D01*
X023211Y012475D02*
X022427Y012475D01*
X024677Y012475D02*
X024820Y012475D01*
X024820Y012633D02*
X024790Y012633D01*
X025550Y014377D02*
X025597Y014377D01*
X026839Y012633D02*
X028400Y012633D01*
X028400Y012475D02*
X026997Y012475D01*
X027036Y012316D02*
X028400Y012316D01*
X028400Y012158D02*
X027036Y012158D01*
X026961Y011999D02*
X028400Y011999D01*
X028400Y011841D02*
X026802Y011841D01*
X027885Y015962D02*
X028400Y015962D01*
X028400Y016120D02*
X028020Y016120D01*
X028020Y016279D02*
X028400Y016279D01*
X028400Y016437D02*
X028020Y016437D01*
X027782Y016830D02*
X027418Y016830D01*
X027160Y017088D01*
X027160Y017452D01*
X027418Y017710D01*
X027782Y017710D01*
X028040Y017452D01*
X028040Y017088D01*
X027782Y016830D01*
X027865Y016913D02*
X028400Y016913D01*
X028400Y017071D02*
X028023Y017071D01*
X028040Y017230D02*
X028400Y017230D01*
X028400Y017388D02*
X028040Y017388D01*
X027946Y017547D02*
X028400Y017547D01*
X028400Y017705D02*
X027787Y017705D01*
X027884Y017864D02*
X027316Y017864D01*
X027282Y017830D02*
X027540Y018088D01*
X027540Y018452D01*
X027282Y018710D01*
X026918Y018710D01*
X026660Y018452D01*
X026660Y018088D01*
X026918Y017830D01*
X027282Y017830D01*
X027413Y017705D02*
X026301Y017705D01*
X026286Y017720D02*
X025914Y017720D01*
X025650Y017457D01*
X025650Y017084D01*
X025914Y016820D01*
X026286Y016820D01*
X026550Y017084D01*
X026550Y017457D01*
X026286Y017720D01*
X026460Y017547D02*
X027254Y017547D01*
X027160Y017388D02*
X026550Y017388D01*
X026550Y017230D02*
X027160Y017230D01*
X027177Y017071D02*
X026537Y017071D01*
X026379Y016913D02*
X027335Y016913D01*
X026884Y017864D02*
X017380Y017864D01*
X017380Y018022D02*
X026726Y018022D01*
X026660Y018181D02*
X017380Y018181D01*
X017380Y018339D02*
X026660Y018339D01*
X026705Y018498D02*
X017380Y018498D01*
X017380Y018656D02*
X026864Y018656D01*
X027336Y018656D02*
X027864Y018656D01*
X027705Y018498D02*
X027495Y018498D01*
X027540Y018339D02*
X027660Y018339D01*
X027660Y018181D02*
X027540Y018181D01*
X027474Y018022D02*
X027726Y018022D01*
X028316Y017864D02*
X028400Y017864D01*
X028400Y018656D02*
X028336Y018656D01*
X028400Y018815D02*
X017380Y018815D01*
X017380Y018973D02*
X028400Y018973D01*
X028400Y019132D02*
X017380Y019132D01*
X017380Y019290D02*
X028400Y019290D01*
X028400Y019449D02*
X017380Y019449D01*
X017380Y019607D02*
X028400Y019607D01*
X028400Y019766D02*
X017380Y019766D01*
X017380Y019924D02*
X028400Y019924D01*
X028400Y020083D02*
X017380Y020083D01*
X017380Y020241D02*
X028400Y020241D01*
X028400Y020400D02*
X017349Y020400D01*
X017208Y020558D02*
X028400Y020558D01*
X028400Y020717D02*
X017049Y020717D01*
X016891Y020875D02*
X028400Y020875D01*
X028400Y021034D02*
X016732Y021034D01*
X016574Y021192D02*
X028400Y021192D01*
X028400Y021351D02*
X016415Y021351D01*
X016257Y021509D02*
X028400Y021509D01*
X028400Y021668D02*
X016098Y021668D01*
X015940Y021826D02*
X018394Y021826D01*
X018445Y021775D02*
X018855Y021775D01*
X019145Y022065D01*
X019145Y022475D01*
X018855Y022765D01*
X018445Y022765D01*
X018155Y022475D01*
X018155Y022065D01*
X018445Y021775D01*
X018235Y021985D02*
X015781Y021985D01*
X015623Y022143D02*
X018155Y022143D01*
X018155Y022302D02*
X015464Y022302D01*
X015306Y022460D02*
X018155Y022460D01*
X018298Y022619D02*
X015147Y022619D01*
X014989Y022777D02*
X028400Y022777D01*
X028400Y022619D02*
X028345Y022619D01*
X028100Y022619D02*
X028100Y022619D01*
X028100Y022690D02*
X028100Y022270D01*
X028100Y022270D01*
X027680Y022270D01*
X028100Y022270D01*
X028100Y022270D01*
X028100Y022270D01*
X028100Y022690D01*
X028100Y022460D02*
X028100Y022460D01*
X028100Y022302D02*
X028100Y022302D01*
X028100Y022143D02*
X028100Y022143D01*
X028100Y021985D02*
X028100Y021985D01*
X027791Y021985D02*
X027409Y021985D01*
X027520Y022096D02*
X027520Y022270D01*
X027100Y022270D01*
X027100Y021850D01*
X027100Y022270D01*
X027100Y022270D01*
X026680Y022270D01*
X026680Y022096D01*
X026926Y021850D01*
X027100Y021850D01*
X027274Y021850D01*
X027520Y022096D01*
X027520Y022143D02*
X027680Y022143D01*
X027680Y022302D02*
X027520Y022302D01*
X027520Y022270D02*
X027520Y022444D01*
X027274Y022690D01*
X027100Y022690D01*
X026926Y022690D01*
X026680Y022444D01*
X026680Y022270D01*
X027100Y022270D01*
X027100Y022270D01*
X027100Y022270D01*
X027520Y022270D01*
X027504Y022460D02*
X027696Y022460D01*
X027855Y022619D02*
X027345Y022619D01*
X027100Y022619D02*
X027100Y022619D01*
X027100Y022690D02*
X027100Y022270D01*
X027100Y022270D01*
X027100Y022690D01*
X027100Y022460D02*
X027100Y022460D01*
X027100Y022302D02*
X027100Y022302D01*
X027100Y022143D02*
X027100Y022143D01*
X027100Y021985D02*
X027100Y021985D01*
X026791Y021985D02*
X024965Y021985D01*
X025045Y022065D02*
X024755Y021775D01*
X024345Y021775D01*
X024055Y022065D01*
X024055Y022475D01*
X024345Y022765D01*
X024755Y022765D01*
X025045Y022475D01*
X025045Y022065D01*
X025045Y022143D02*
X026680Y022143D01*
X026680Y022302D02*
X025045Y022302D01*
X025045Y022460D02*
X026696Y022460D01*
X026855Y022619D02*
X024902Y022619D01*
X024198Y022619D02*
X019002Y022619D01*
X019145Y022460D02*
X024055Y022460D01*
X024055Y022302D02*
X019145Y022302D01*
X019145Y022143D02*
X024055Y022143D01*
X024135Y021985D02*
X019065Y021985D01*
X018906Y021826D02*
X024294Y021826D01*
X024806Y021826D02*
X028400Y021826D01*
X028400Y022936D02*
X014880Y022936D01*
X014880Y023094D02*
X028400Y023094D01*
X028400Y024521D02*
X016445Y024521D01*
X016520Y024679D02*
X025824Y024679D01*
X025666Y024838D02*
X016520Y024838D01*
X016468Y024996D02*
X025664Y024996D01*
X026376Y024679D02*
X027824Y024679D01*
X027666Y024838D02*
X026534Y024838D01*
X026536Y024996D02*
X027664Y024996D01*
X027664Y025155D02*
X026536Y025155D01*
X026424Y025313D02*
X027776Y025313D01*
X028376Y024679D02*
X028400Y024679D01*
X028400Y030544D02*
X015949Y030544D01*
X015790Y030702D02*
X028400Y030702D01*
X028400Y030861D02*
X000600Y030861D01*
X000600Y031019D02*
X028400Y031019D01*
X019304Y030068D02*
X017896Y030068D01*
X018020Y029910D02*
X019180Y029910D01*
X019180Y029751D02*
X018020Y029751D01*
X018017Y029593D02*
X019183Y029593D01*
X019374Y028166D02*
X017826Y028166D01*
X017985Y028008D02*
X019215Y028008D01*
X019160Y027849D02*
X018040Y027849D01*
X018040Y027691D02*
X019160Y027691D01*
X019216Y027532D02*
X017984Y027532D01*
X017826Y027374D02*
X019374Y027374D01*
X015813Y026106D02*
X014660Y026106D01*
X014819Y025947D02*
X015660Y025947D01*
X014320Y024362D02*
X013880Y024362D01*
X013880Y024204D02*
X014320Y024204D01*
X014320Y024045D02*
X013880Y024045D01*
X013880Y023887D02*
X014320Y023887D01*
X014320Y023728D02*
X013880Y023728D01*
X013880Y023570D02*
X014320Y023570D01*
X014320Y023411D02*
X013880Y023411D01*
X013880Y023253D02*
X014320Y023253D01*
X014320Y023094D02*
X013880Y023094D01*
X013880Y022936D02*
X014320Y022936D01*
X014320Y022777D02*
X013880Y022777D01*
X013880Y022619D02*
X014360Y022619D01*
X014514Y022460D02*
X013880Y022460D01*
X013880Y022302D02*
X014672Y022302D01*
X014831Y022143D02*
X013880Y022143D01*
X013880Y021985D02*
X014989Y021985D01*
X015148Y021826D02*
X013880Y021826D01*
X013880Y021668D02*
X015306Y021668D01*
X015465Y021509D02*
X013880Y021509D01*
X013880Y021351D02*
X015623Y021351D01*
X015782Y021192D02*
X013880Y021192D01*
X013880Y021034D02*
X015940Y021034D01*
X016099Y020875D02*
X013880Y020875D01*
X013880Y020717D02*
X016257Y020717D01*
X016416Y020558D02*
X013880Y020558D01*
X013880Y020400D02*
X016574Y020400D01*
X016733Y020241D02*
X013880Y020241D01*
X013880Y020083D02*
X015790Y020083D01*
X015918Y020210D02*
X015660Y019952D01*
X015660Y019588D01*
X015918Y019330D01*
X016282Y019330D01*
X016540Y019588D01*
X016540Y019952D01*
X016282Y020210D01*
X015918Y020210D01*
X015660Y019924D02*
X013880Y019924D01*
X013880Y019766D02*
X015660Y019766D01*
X015660Y019607D02*
X013880Y019607D01*
X013880Y019449D02*
X015799Y019449D01*
X016401Y019449D02*
X016820Y019449D01*
X016820Y019607D02*
X016540Y019607D01*
X016540Y019766D02*
X016820Y019766D01*
X016820Y019924D02*
X016540Y019924D01*
X016410Y020083D02*
X016820Y020083D01*
X016820Y019290D02*
X013880Y019290D01*
X013880Y019132D02*
X016820Y019132D01*
X016820Y018973D02*
X013880Y018973D01*
X013880Y018815D02*
X016820Y018815D01*
X016820Y018656D02*
X013880Y018656D01*
X013880Y018498D02*
X016820Y018498D01*
X016820Y018339D02*
X013880Y018339D01*
X013880Y018181D02*
X016820Y018181D01*
X016820Y018022D02*
X013880Y018022D01*
X013880Y017864D02*
X016820Y017864D01*
X016820Y017705D02*
X013880Y017705D01*
X013880Y017547D02*
X016820Y017547D01*
X016820Y017388D02*
X013880Y017388D01*
X013880Y017230D02*
X016820Y017230D01*
X016820Y017071D02*
X013880Y017071D01*
X013880Y016913D02*
X016820Y016913D01*
X016820Y016754D02*
X013880Y016754D01*
X013880Y016596D02*
X016820Y016596D01*
X016820Y016437D02*
X013880Y016437D01*
X013880Y016279D02*
X016820Y016279D01*
X016820Y016120D02*
X013880Y016120D01*
X013880Y015962D02*
X016820Y015962D01*
X016820Y015803D02*
X013880Y015803D01*
X013880Y015645D02*
X016820Y015645D01*
X016820Y015486D02*
X013880Y015486D01*
X013880Y015328D02*
X016820Y015328D01*
X016820Y015169D02*
X016526Y015169D01*
X016589Y015143D02*
X016428Y015210D01*
X015772Y015210D01*
X015611Y015143D01*
X015487Y015019D01*
X015420Y014858D01*
X015420Y014683D01*
X015487Y014521D01*
X015611Y014397D01*
X015772Y014330D01*
X016428Y014330D01*
X016589Y014397D01*
X016713Y014521D01*
X016780Y014683D01*
X016780Y014858D01*
X016713Y015019D01*
X016589Y015143D01*
X016717Y015011D02*
X016820Y015011D01*
X016820Y014852D02*
X016780Y014852D01*
X016780Y014694D02*
X016820Y014694D01*
X016820Y014535D02*
X016719Y014535D01*
X016820Y014377D02*
X016540Y014377D01*
X016501Y014159D02*
X016438Y014180D01*
X016373Y014190D01*
X016100Y014190D01*
X016100Y013770D01*
X016100Y013350D01*
X016373Y013350D01*
X016438Y013361D01*
X016501Y013381D01*
X016560Y013411D01*
X016614Y013450D01*
X016660Y013497D01*
X016699Y013550D01*
X016729Y013609D01*
X016750Y013672D01*
X016760Y013737D01*
X016760Y013770D01*
X016100Y013770D01*
X016100Y013770D01*
X016100Y013350D01*
X015827Y013350D01*
X015762Y013361D01*
X015699Y013381D01*
X015640Y013411D01*
X015586Y013450D01*
X015540Y013497D01*
X015501Y013550D01*
X015471Y013609D01*
X015450Y013672D01*
X015440Y013737D01*
X015440Y013770D01*
X016100Y013770D01*
X016100Y013770D01*
X016100Y013770D01*
X015440Y013770D01*
X015440Y013803D01*
X015450Y013869D01*
X015471Y013931D01*
X015501Y013990D01*
X015540Y014044D01*
X015586Y014091D01*
X015640Y014129D01*
X015699Y014159D01*
X015762Y014180D01*
X015827Y014190D01*
X016100Y014190D01*
X016100Y013770D01*
X016760Y013770D01*
X016760Y013803D01*
X016750Y013869D01*
X016729Y013931D01*
X016699Y013990D01*
X016660Y014044D01*
X016614Y014091D01*
X016560Y014129D01*
X016501Y014159D01*
X016644Y014060D02*
X016820Y014060D01*
X016820Y014218D02*
X013880Y014218D01*
X013880Y014060D02*
X015556Y014060D01*
X015461Y013901D02*
X013880Y013901D01*
X013880Y013743D02*
X015440Y013743D01*
X015483Y013584D02*
X013880Y013584D01*
X013880Y013426D02*
X015620Y013426D01*
X015772Y013210D02*
X015611Y013143D01*
X015487Y013019D01*
X015420Y012858D01*
X015420Y012683D01*
X015487Y012521D01*
X015611Y012397D01*
X015772Y012330D01*
X016428Y012330D01*
X016589Y012397D01*
X016713Y012521D01*
X016780Y012683D01*
X016780Y012858D01*
X016713Y013019D01*
X016589Y013143D01*
X016428Y013210D01*
X015772Y013210D01*
X015576Y013109D02*
X013880Y013109D01*
X013880Y013267D02*
X017207Y013267D01*
X017365Y013109D02*
X016624Y013109D01*
X016742Y012950D02*
X017524Y012950D01*
X017660Y012792D02*
X016780Y012792D01*
X016760Y012633D02*
X017660Y012633D01*
X017773Y012475D02*
X016667Y012475D01*
X016580Y013426D02*
X017048Y013426D01*
X016890Y013584D02*
X016717Y013584D01*
X016760Y013743D02*
X016820Y013743D01*
X016820Y013901D02*
X016739Y013901D01*
X016100Y013901D02*
X016100Y013901D01*
X016100Y013770D02*
X016100Y013770D01*
X016100Y013743D02*
X016100Y013743D01*
X016100Y013584D02*
X016100Y013584D01*
X016100Y013426D02*
X016100Y013426D01*
X016100Y014060D02*
X016100Y014060D01*
X015660Y014377D02*
X013880Y014377D01*
X013880Y014535D02*
X015481Y014535D01*
X015420Y014694D02*
X013880Y014694D01*
X013880Y014852D02*
X015420Y014852D01*
X015483Y015011D02*
X013880Y015011D01*
X013880Y015169D02*
X015674Y015169D01*
X017380Y013901D02*
X019160Y013901D01*
X019160Y013743D02*
X017523Y013743D01*
X017682Y013584D02*
X019164Y013584D01*
X019322Y013426D02*
X017840Y013426D01*
X018427Y012475D02*
X020000Y012475D01*
X015890Y011682D02*
X013880Y011682D01*
X013880Y011524D02*
X015731Y011524D01*
X015660Y011365D02*
X013880Y011365D01*
X013880Y011207D02*
X015660Y011207D01*
X015700Y011048D02*
X013880Y011048D01*
X013880Y010890D02*
X015858Y010890D01*
X015533Y012475D02*
X013880Y012475D01*
X013880Y012633D02*
X015440Y012633D01*
X015420Y012792D02*
X013880Y012792D01*
X013880Y012950D02*
X015458Y012950D01*
X013320Y014377D02*
X011800Y014377D01*
X011849Y014397D02*
X011973Y014521D01*
X012040Y014683D01*
X012040Y014858D01*
X011973Y015019D01*
X011849Y015143D01*
X011688Y015210D01*
X011512Y015210D01*
X011351Y015143D01*
X011227Y015019D01*
X011160Y014858D01*
X011160Y014683D01*
X011227Y014521D01*
X011351Y014397D01*
X011512Y014330D01*
X011688Y014330D01*
X011849Y014397D01*
X011979Y014535D02*
X013320Y014535D01*
X013320Y014694D02*
X012040Y014694D01*
X012040Y014852D02*
X013320Y014852D01*
X013320Y015011D02*
X011977Y015011D01*
X011786Y015169D02*
X013320Y015169D01*
X013320Y015328D02*
X009380Y015328D01*
X009380Y015169D02*
X009414Y015169D01*
X010438Y015486D02*
X010762Y015486D01*
X010660Y015588D02*
X010918Y015330D01*
X011282Y015330D01*
X011442Y015490D01*
X011758Y015490D01*
X011918Y015330D01*
X012282Y015330D01*
X012540Y015588D01*
X012540Y015952D01*
X012282Y016210D01*
X011918Y016210D01*
X011758Y016050D01*
X011442Y016050D01*
X011282Y016210D01*
X010918Y016210D01*
X010660Y015952D01*
X010660Y015588D01*
X010660Y015645D02*
X010540Y015645D01*
X010540Y015803D02*
X010660Y015803D01*
X010669Y015962D02*
X010531Y015962D01*
X010372Y016120D02*
X010828Y016120D01*
X011100Y015770D02*
X012100Y015770D01*
X011762Y015486D02*
X011438Y015486D01*
X011414Y015169D02*
X010786Y015169D01*
X010977Y015011D02*
X011223Y015011D01*
X011160Y014852D02*
X011040Y014852D01*
X011040Y014694D02*
X011160Y014694D01*
X011221Y014535D02*
X010979Y014535D01*
X010800Y014377D02*
X011400Y014377D01*
X012438Y015486D02*
X013320Y015486D01*
X013320Y015645D02*
X012540Y015645D01*
X012540Y015803D02*
X013320Y015803D01*
X013320Y015962D02*
X012531Y015962D01*
X012372Y016120D02*
X013320Y016120D01*
X013320Y016596D02*
X009322Y016596D01*
X009480Y016754D02*
X013320Y016754D01*
X013320Y016913D02*
X009639Y016913D01*
X009797Y017071D02*
X013320Y017071D01*
X013320Y017230D02*
X009956Y017230D01*
X010114Y017388D02*
X013320Y017388D01*
X013320Y017547D02*
X010273Y017547D01*
X010431Y017705D02*
X013320Y017705D01*
X013320Y017864D02*
X010590Y017864D01*
X010748Y018022D02*
X013320Y018022D01*
X013320Y018181D02*
X010907Y018181D01*
X011065Y018339D02*
X013320Y018339D01*
X013320Y018498D02*
X011224Y018498D01*
X011382Y018656D02*
X013320Y018656D01*
X013320Y018815D02*
X011541Y018815D01*
X011699Y018973D02*
X013320Y018973D01*
X013320Y019132D02*
X011858Y019132D01*
X012016Y019290D02*
X013320Y019290D01*
X013320Y019449D02*
X012401Y019449D01*
X012540Y019607D02*
X013320Y019607D01*
X013320Y019766D02*
X012540Y019766D01*
X012540Y019924D02*
X013320Y019924D01*
X013320Y020083D02*
X012410Y020083D01*
X013320Y020241D02*
X000600Y020241D01*
X000600Y020083D02*
X004290Y020083D01*
X004160Y019924D02*
X000600Y019924D01*
X000600Y019766D02*
X004160Y019766D01*
X004160Y019607D02*
X000600Y019607D01*
X000600Y019449D02*
X004299Y019449D01*
X004566Y019132D02*
X000600Y019132D01*
X000600Y019290D02*
X004724Y019290D01*
X005040Y019607D02*
X005041Y019607D01*
X005040Y019766D02*
X005160Y019766D01*
X005160Y019924D02*
X005040Y019924D01*
X004910Y020083D02*
X005290Y020083D01*
X005199Y018973D02*
X007407Y018973D01*
X007249Y018815D02*
X005041Y018815D01*
X004407Y018973D02*
X000600Y018973D01*
X000600Y018815D02*
X004249Y018815D01*
X004090Y018656D02*
X000600Y018656D01*
X000600Y018498D02*
X003932Y018498D01*
X003826Y018339D02*
X000600Y018339D01*
X000600Y018181D02*
X003820Y018181D01*
X003820Y018022D02*
X000600Y018022D01*
X000600Y017864D02*
X003820Y017864D01*
X003820Y017705D02*
X000600Y017705D01*
X000600Y017547D02*
X003820Y017547D01*
X003820Y017388D02*
X000600Y017388D01*
X000600Y017230D02*
X003820Y017230D01*
X003820Y017071D02*
X000600Y017071D01*
X000600Y016913D02*
X003820Y016913D01*
X003820Y016754D02*
X000600Y016754D01*
X000600Y016596D02*
X003820Y016596D01*
X003820Y016437D02*
X000600Y016437D01*
X000600Y016279D02*
X003820Y016279D01*
X003820Y016120D02*
X000600Y016120D01*
X000600Y015962D02*
X003820Y015962D01*
X003820Y015803D02*
X000600Y015803D01*
X000600Y015645D02*
X003820Y015645D01*
X003820Y015486D02*
X000600Y015486D01*
X000600Y015328D02*
X003820Y015328D01*
X003839Y015169D02*
X000600Y015169D01*
X000600Y015011D02*
X003963Y015011D01*
X004122Y014852D02*
X000600Y014852D01*
X000600Y014694D02*
X004280Y014694D01*
X004439Y014535D02*
X000600Y014535D01*
X000600Y014377D02*
X005400Y014377D01*
X005600Y014770D02*
X004600Y014770D01*
X006297Y017071D02*
X009005Y017071D01*
X009164Y017230D02*
X006456Y017230D01*
X006614Y017388D02*
X009322Y017388D01*
X009481Y017547D02*
X006773Y017547D01*
X006931Y017705D02*
X009639Y017705D01*
X009798Y017864D02*
X007090Y017864D01*
X007248Y018022D02*
X009956Y018022D01*
X010115Y018181D02*
X007407Y018181D01*
X007565Y018339D02*
X010273Y018339D01*
X010174Y018498D02*
X010432Y018498D01*
X010382Y018656D02*
X010590Y018656D01*
X010541Y018815D02*
X010749Y018815D01*
X010699Y018973D02*
X010907Y018973D01*
X010858Y019132D02*
X011066Y019132D01*
X011016Y019290D02*
X011224Y019290D01*
X011540Y019607D02*
X011541Y019607D01*
X013320Y020400D02*
X000600Y020400D01*
X000600Y020558D02*
X013320Y020558D01*
X013320Y024838D02*
X000600Y024838D01*
X000600Y024996D02*
X013320Y024996D01*
X013320Y025155D02*
X000600Y025155D01*
X000600Y025313D02*
X013320Y025313D01*
X013320Y025472D02*
X010924Y025472D01*
X011040Y025630D02*
X013320Y025630D01*
X013185Y025789D02*
X011040Y025789D01*
X011040Y025947D02*
X013027Y025947D01*
X012283Y027691D02*
X000600Y027691D01*
X000600Y027849D02*
X012125Y027849D01*
X011966Y028008D02*
X000600Y028008D01*
X000600Y028166D02*
X011808Y028166D01*
X015108Y029434D02*
X015160Y029434D01*
X015267Y029593D02*
X015300Y029593D01*
X025301Y017705D02*
X025899Y017705D01*
X025740Y017547D02*
X025460Y017547D01*
X025550Y017388D02*
X025650Y017388D01*
X025650Y017230D02*
X025550Y017230D01*
X025537Y017071D02*
X025663Y017071D01*
X025821Y016913D02*
X025379Y016913D01*
X022313Y006490D02*
X021833Y006490D01*
X021852Y006481D01*
X021913Y006436D01*
X021966Y006383D01*
X022011Y006322D01*
X022045Y006254D01*
X022068Y006183D01*
X022080Y006108D01*
X022080Y005790D01*
X021620Y005790D01*
X021620Y005750D01*
X022080Y005750D01*
X022080Y005432D01*
X022068Y005358D01*
X022045Y005286D01*
X022011Y005219D01*
X021966Y005158D01*
X021913Y005104D01*
X021852Y005060D01*
X021784Y005025D01*
X021620Y005025D02*
X021580Y005025D01*
X021580Y004990D02*
X021580Y005750D01*
X021120Y005750D01*
X021120Y005432D01*
X021132Y005358D01*
X021155Y005286D01*
X021189Y005219D01*
X021234Y005158D01*
X021137Y005342D02*
X019568Y005342D01*
X019409Y005184D02*
X020420Y005184D01*
X020261Y005025D02*
X019251Y005025D01*
X019092Y004867D02*
X020180Y004867D01*
X020180Y004708D02*
X018934Y004708D01*
X018880Y004550D02*
X020227Y004550D01*
X020815Y004391D02*
X023583Y004391D01*
X023425Y004550D02*
X020973Y004550D01*
X021020Y004708D02*
X023323Y004708D01*
X023899Y004867D02*
X024160Y004867D01*
X024160Y004708D02*
X024058Y004708D01*
X024233Y005025D02*
X023880Y005025D01*
X022317Y005046D02*
X022176Y005187D01*
X022100Y005371D01*
X022100Y006170D01*
X022176Y006353D01*
X022313Y006490D01*
X022274Y006452D02*
X021892Y006452D01*
X022025Y006293D02*
X022151Y006293D01*
X022100Y006135D02*
X022076Y006135D01*
X022080Y005976D02*
X022100Y005976D01*
X022100Y005818D02*
X022080Y005818D01*
X022080Y005659D02*
X022100Y005659D01*
X022100Y005501D02*
X022080Y005501D01*
X022063Y005342D02*
X022112Y005342D01*
X022179Y005184D02*
X021985Y005184D01*
X021620Y005184D02*
X021580Y005184D01*
X021580Y005342D02*
X021620Y005342D01*
X021620Y005501D02*
X021580Y005501D01*
X021580Y005659D02*
X021620Y005659D01*
X021120Y005659D02*
X019885Y005659D01*
X019726Y005501D02*
X021120Y005501D01*
X021120Y005818D02*
X020043Y005818D01*
X020202Y005976D02*
X021120Y005976D01*
X021124Y006135D02*
X020360Y006135D01*
X020519Y006293D02*
X021175Y006293D01*
X021308Y006452D02*
X020677Y006452D01*
X021416Y005025D02*
X021488Y005002D01*
X021562Y004990D01*
X021580Y004990D01*
X020600Y003440D02*
X020600Y003440D01*
X011914Y011207D02*
X011286Y011207D01*
X011282Y011210D02*
X010918Y011210D01*
X010660Y010952D01*
X010660Y010588D01*
X010918Y010330D01*
X011282Y010330D01*
X011540Y010588D01*
X011540Y010952D01*
X011282Y011210D01*
X011428Y011365D02*
X010772Y011365D01*
X010849Y011397D02*
X010973Y011521D01*
X011040Y011683D01*
X011040Y011858D01*
X010973Y012019D01*
X010849Y012143D01*
X010688Y012210D01*
X010512Y012210D01*
X010351Y012143D01*
X010227Y012019D01*
X010160Y011858D01*
X010160Y011683D01*
X010227Y011521D01*
X010351Y011397D01*
X010512Y011330D01*
X010688Y011330D01*
X010849Y011397D01*
X010974Y011524D02*
X011226Y011524D01*
X011160Y011682D02*
X011040Y011682D01*
X011040Y011841D02*
X011160Y011841D01*
X011219Y011999D02*
X010981Y011999D01*
X010814Y012158D02*
X011386Y012158D01*
X010914Y011207D02*
X010286Y011207D01*
X010282Y011210D02*
X009918Y011210D01*
X009660Y010952D01*
X009660Y010588D01*
X009918Y010330D01*
X010282Y010330D01*
X010540Y010588D01*
X010540Y010952D01*
X010282Y011210D01*
X010428Y011365D02*
X009772Y011365D01*
X009849Y011397D02*
X009973Y011521D01*
X010040Y011683D01*
X010040Y011858D01*
X009973Y012019D01*
X009849Y012143D01*
X009688Y012210D01*
X009512Y012210D01*
X009351Y012143D01*
X009227Y012019D01*
X009160Y011858D01*
X009160Y011683D01*
X009227Y011521D01*
X009351Y011397D01*
X009512Y011330D01*
X009688Y011330D01*
X009849Y011397D01*
X009974Y011524D02*
X010226Y011524D01*
X010160Y011682D02*
X010040Y011682D01*
X010040Y011841D02*
X010160Y011841D01*
X010219Y011999D02*
X009981Y011999D01*
X009814Y012158D02*
X010386Y012158D01*
X009386Y012158D02*
X008880Y012158D01*
X008981Y011999D02*
X009219Y011999D01*
X009160Y011841D02*
X009040Y011841D01*
X009040Y011682D02*
X009160Y011682D01*
X009226Y011524D02*
X008974Y011524D01*
X008772Y011365D02*
X009428Y011365D01*
X009756Y011048D02*
X008944Y011048D01*
X009040Y010890D02*
X009660Y010890D01*
X009660Y010731D02*
X009040Y010731D01*
X009025Y010573D02*
X009675Y010573D01*
X009834Y010414D02*
X008866Y010414D01*
X008786Y011207D02*
X009914Y011207D01*
X010444Y011048D02*
X010756Y011048D01*
X010660Y010890D02*
X010540Y010890D01*
X010540Y010731D02*
X010660Y010731D01*
X010675Y010573D02*
X010525Y010573D01*
X010366Y010414D02*
X010834Y010414D01*
X011366Y010414D02*
X011834Y010414D01*
X011675Y010573D02*
X011525Y010573D01*
X011540Y010731D02*
X011660Y010731D01*
X011660Y010890D02*
X011540Y010890D01*
X011444Y011048D02*
X011756Y011048D01*
X008600Y011770D02*
X008600Y013770D01*
X008452Y014377D02*
X007800Y014377D01*
X007979Y014535D02*
X008252Y014535D01*
X008187Y014694D02*
X008040Y014694D01*
X008040Y014852D02*
X008188Y014852D01*
X008256Y015011D02*
X007977Y015011D01*
X006386Y012158D02*
X005975Y012158D01*
X006040Y011999D02*
X006219Y011999D01*
X006100Y010270D02*
X006100Y009770D01*
X004160Y006927D02*
X000600Y006927D01*
X000600Y006769D02*
X004160Y006769D01*
X004160Y006610D02*
X000600Y006610D01*
X000600Y006452D02*
X004296Y006452D01*
X011372Y016120D02*
X011828Y016120D01*
D24*
X002000Y029670D03*
X027000Y029670D03*
X027000Y002170D03*
X002000Y002170D03*
M02*
