G75*
%MOIN*%
%OFA0B0*%
%FSLAX24Y24*%
%IPPOS*%
%LPD*%
%AMOC8*
5,1,8,0,0,1.08239X$1,22.5*
%
%ADD10C,0.0060*%
%ADD11C,0.0040*%
%ADD12C,0.0160*%
%ADD13C,0.0050*%
%ADD14C,0.0120*%
%ADD15R,0.0340X0.0240*%
%ADD16C,0.0100*%
%ADD17R,0.0240X0.0340*%
%ADD18C,0.0080*%
%ADD19C,0.0020*%
%ADD20R,0.0200X0.0736*%
%ADD21R,0.0250X0.0335*%
D10*
X005130Y002907D02*
X005237Y002800D01*
X005450Y002800D01*
X005557Y002907D01*
X005557Y003120D01*
X005344Y003120D01*
X005130Y002907D02*
X005130Y003334D01*
X005237Y003441D01*
X005450Y003441D01*
X005557Y003334D01*
X005775Y003334D02*
X005775Y002907D01*
X005881Y002800D01*
X006095Y002800D01*
X006202Y002907D01*
X006419Y002800D02*
X006846Y003441D01*
X007064Y003441D02*
X007384Y003441D01*
X007491Y003334D01*
X007491Y003120D01*
X007384Y003014D01*
X007064Y003014D01*
X007277Y003014D02*
X007491Y002800D01*
X007708Y002800D02*
X008135Y002800D01*
X008353Y003014D02*
X008566Y002800D01*
X008780Y003014D01*
X008780Y003441D01*
X008782Y003800D02*
X009209Y003800D01*
X009424Y003441D02*
X009211Y003334D01*
X008997Y003120D01*
X009318Y003120D01*
X009424Y003014D01*
X009424Y002907D01*
X009318Y002800D01*
X009104Y002800D01*
X008997Y002907D01*
X008997Y003120D01*
X008782Y003800D02*
X008782Y004441D01*
X009209Y004441D01*
X008996Y004120D02*
X008782Y004120D01*
X008565Y004014D02*
X008565Y003907D01*
X008458Y003800D01*
X008245Y003800D01*
X008138Y003907D01*
X008245Y004120D02*
X008458Y004120D01*
X008565Y004014D01*
X008565Y004334D02*
X008458Y004441D01*
X008245Y004441D01*
X008138Y004334D01*
X008138Y004227D01*
X008245Y004120D01*
X007920Y003800D02*
X007920Y004441D01*
X007493Y004441D02*
X007920Y003800D01*
X007708Y003441D02*
X007708Y002800D01*
X007708Y003120D02*
X007922Y003120D01*
X008135Y003441D02*
X007708Y003441D01*
X007493Y003800D02*
X007493Y004441D01*
X007276Y004441D02*
X006849Y003800D01*
X007064Y003441D02*
X007064Y002800D01*
X006202Y003334D02*
X006095Y003441D01*
X005881Y003441D01*
X005775Y003334D01*
X005775Y003800D02*
X005988Y003800D01*
X005881Y003800D02*
X005881Y004441D01*
X005775Y004441D02*
X005988Y004441D01*
X006204Y004441D02*
X006631Y004441D01*
X006418Y004441D02*
X006418Y003800D01*
X005557Y003800D02*
X005557Y004441D01*
X005344Y004227D01*
X005130Y004441D01*
X005130Y003800D01*
X008353Y003441D02*
X008353Y003014D01*
X012100Y002895D02*
X012100Y002395D01*
X012350Y002145D01*
X012850Y002145D01*
X013100Y002395D01*
X013350Y002145D01*
X013850Y002145D01*
X014100Y002395D01*
X014100Y002895D01*
X013850Y003145D01*
X013350Y003145D01*
X013100Y002895D01*
X013100Y002395D01*
X013100Y002895D02*
X012850Y003145D01*
X012350Y003145D01*
X012100Y002895D01*
X014100Y002895D02*
X014350Y003145D01*
X014850Y003145D01*
X015100Y002895D01*
X015350Y003145D01*
X015850Y003145D01*
X016100Y002895D01*
X016350Y003145D01*
X016850Y003145D01*
X017100Y002895D01*
X017350Y003145D01*
X017850Y003145D01*
X018100Y002895D01*
X018100Y002395D01*
X017850Y002145D01*
X017350Y002145D01*
X017100Y002395D01*
X016850Y002145D01*
X016350Y002145D01*
X016100Y002395D01*
X015850Y002145D01*
X015350Y002145D01*
X015100Y002395D01*
X014850Y002145D01*
X014350Y002145D01*
X014100Y002395D01*
X015100Y002395D02*
X015100Y002895D01*
X016100Y002895D02*
X016100Y002395D01*
X017100Y002395D02*
X017100Y002895D01*
X016450Y006020D02*
X015750Y006020D01*
X015733Y006022D01*
X015716Y006026D01*
X015700Y006033D01*
X015686Y006043D01*
X015673Y006056D01*
X015663Y006070D01*
X015656Y006086D01*
X015652Y006103D01*
X015650Y006120D01*
X015650Y006270D01*
X015700Y006320D01*
X015700Y008220D01*
X015650Y008270D01*
X015650Y008420D01*
X015652Y008437D01*
X015656Y008454D01*
X015663Y008470D01*
X015673Y008484D01*
X015686Y008497D01*
X015700Y008507D01*
X015716Y008514D01*
X015733Y008518D01*
X015750Y008520D01*
X016450Y008520D01*
X016467Y008518D01*
X016484Y008514D01*
X016500Y008507D01*
X016514Y008497D01*
X016527Y008484D01*
X016537Y008470D01*
X016544Y008454D01*
X016548Y008437D01*
X016550Y008420D01*
X016550Y008270D01*
X016500Y008220D01*
X016500Y006320D01*
X016550Y006270D01*
X016550Y006120D01*
X016548Y006103D01*
X016544Y006086D01*
X016537Y006070D01*
X016527Y006056D01*
X016514Y006043D01*
X016500Y006033D01*
X016484Y006026D01*
X016467Y006022D01*
X016450Y006020D01*
X013550Y007620D02*
X013550Y007770D01*
X013500Y007820D01*
X013500Y009720D01*
X013550Y009770D01*
X013550Y009920D01*
X013548Y009937D01*
X013544Y009954D01*
X013537Y009970D01*
X013527Y009984D01*
X013514Y009997D01*
X013500Y010007D01*
X013484Y010014D01*
X013467Y010018D01*
X013450Y010020D01*
X012750Y010020D01*
X012733Y010018D01*
X012716Y010014D01*
X012700Y010007D01*
X012686Y009997D01*
X012673Y009984D01*
X012663Y009970D01*
X012656Y009954D01*
X012652Y009937D01*
X012650Y009920D01*
X012650Y009770D01*
X012700Y009720D01*
X012700Y007820D01*
X012650Y007770D01*
X012650Y007620D01*
X012652Y007603D01*
X012656Y007586D01*
X012663Y007570D01*
X012673Y007556D01*
X012686Y007543D01*
X012700Y007533D01*
X012716Y007526D01*
X012733Y007522D01*
X012750Y007520D01*
X013450Y007520D01*
X013467Y007522D01*
X013484Y007526D01*
X013500Y007533D01*
X013514Y007543D01*
X013527Y007556D01*
X013537Y007570D01*
X013544Y007586D01*
X013548Y007603D01*
X013550Y007620D01*
X012550Y007620D02*
X012550Y007770D01*
X012500Y007820D01*
X012500Y009720D01*
X012550Y009770D01*
X012550Y009920D01*
X012548Y009937D01*
X012544Y009954D01*
X012537Y009970D01*
X012527Y009984D01*
X012514Y009997D01*
X012500Y010007D01*
X012484Y010014D01*
X012467Y010018D01*
X012450Y010020D01*
X011750Y010020D01*
X011733Y010018D01*
X011716Y010014D01*
X011700Y010007D01*
X011686Y009997D01*
X011673Y009984D01*
X011663Y009970D01*
X011656Y009954D01*
X011652Y009937D01*
X011650Y009920D01*
X011650Y009770D01*
X011700Y009720D01*
X011700Y007820D01*
X011650Y007770D01*
X011650Y007620D01*
X011652Y007603D01*
X011656Y007586D01*
X011663Y007570D01*
X011673Y007556D01*
X011686Y007543D01*
X011700Y007533D01*
X011716Y007526D01*
X011733Y007522D01*
X011750Y007520D01*
X012450Y007520D01*
X012467Y007522D01*
X012484Y007526D01*
X012500Y007533D01*
X012514Y007543D01*
X012527Y007556D01*
X012537Y007570D01*
X012544Y007586D01*
X012548Y007603D01*
X012550Y007620D01*
X011550Y007620D02*
X011550Y007770D01*
X011500Y007820D01*
X011500Y009720D01*
X011550Y009770D01*
X011550Y009920D01*
X011548Y009937D01*
X011544Y009954D01*
X011537Y009970D01*
X011527Y009984D01*
X011514Y009997D01*
X011500Y010007D01*
X011484Y010014D01*
X011467Y010018D01*
X011450Y010020D01*
X010750Y010020D01*
X010733Y010018D01*
X010716Y010014D01*
X010700Y010007D01*
X010686Y009997D01*
X010673Y009984D01*
X010663Y009970D01*
X010656Y009954D01*
X010652Y009937D01*
X010650Y009920D01*
X010650Y009770D01*
X010700Y009720D01*
X010700Y007820D01*
X010650Y007770D01*
X010650Y007620D01*
X010550Y007620D02*
X010550Y007770D01*
X010500Y007820D01*
X010500Y009720D01*
X010550Y009770D01*
X010550Y009920D01*
X010548Y009937D01*
X010544Y009954D01*
X010537Y009970D01*
X010527Y009984D01*
X010514Y009997D01*
X010500Y010007D01*
X010484Y010014D01*
X010467Y010018D01*
X010450Y010020D01*
X009750Y010020D01*
X009733Y010018D01*
X009716Y010014D01*
X009700Y010007D01*
X009686Y009997D01*
X009673Y009984D01*
X009663Y009970D01*
X009656Y009954D01*
X009652Y009937D01*
X009650Y009920D01*
X009650Y009770D01*
X009700Y009720D01*
X009700Y007820D01*
X009650Y007770D01*
X009650Y007620D01*
X009652Y007603D01*
X009656Y007586D01*
X009663Y007570D01*
X009673Y007556D01*
X009686Y007543D01*
X009700Y007533D01*
X009716Y007526D01*
X009733Y007522D01*
X009750Y007520D01*
X010450Y007520D01*
X010467Y007522D01*
X010484Y007526D01*
X010500Y007533D01*
X010514Y007543D01*
X010527Y007556D01*
X010537Y007570D01*
X010544Y007586D01*
X010548Y007603D01*
X010550Y007620D01*
X010650Y007620D02*
X010652Y007603D01*
X010656Y007586D01*
X010663Y007570D01*
X010673Y007556D01*
X010686Y007543D01*
X010700Y007533D01*
X010716Y007526D01*
X010733Y007522D01*
X010750Y007520D01*
X011450Y007520D01*
X011467Y007522D01*
X011484Y007526D01*
X011500Y007533D01*
X011514Y007543D01*
X011527Y007556D01*
X011537Y007570D01*
X011544Y007586D01*
X011548Y007603D01*
X011550Y007620D01*
X009050Y007620D02*
X009050Y007770D01*
X009000Y007820D01*
X009000Y009720D01*
X009050Y009770D01*
X009050Y009920D01*
X009048Y009937D01*
X009044Y009954D01*
X009037Y009970D01*
X009027Y009984D01*
X009014Y009997D01*
X009000Y010007D01*
X008984Y010014D01*
X008967Y010018D01*
X008950Y010020D01*
X008250Y010020D01*
X008233Y010018D01*
X008216Y010014D01*
X008200Y010007D01*
X008186Y009997D01*
X008173Y009984D01*
X008163Y009970D01*
X008156Y009954D01*
X008152Y009937D01*
X008150Y009920D01*
X008150Y009770D01*
X008200Y009720D01*
X008200Y007820D01*
X008150Y007770D01*
X008150Y007620D01*
X008152Y007603D01*
X008156Y007586D01*
X008163Y007570D01*
X008173Y007556D01*
X008186Y007543D01*
X008200Y007533D01*
X008216Y007526D01*
X008233Y007522D01*
X008250Y007520D01*
X008950Y007520D01*
X008967Y007522D01*
X008984Y007526D01*
X009000Y007533D01*
X009014Y007543D01*
X009027Y007556D01*
X009037Y007570D01*
X009044Y007586D01*
X009048Y007603D01*
X009050Y007620D01*
X008050Y007620D02*
X008050Y007770D01*
X008000Y007820D01*
X008000Y009720D01*
X008050Y009770D01*
X008050Y009920D01*
X008048Y009937D01*
X008044Y009954D01*
X008037Y009970D01*
X008027Y009984D01*
X008014Y009997D01*
X008000Y010007D01*
X007984Y010014D01*
X007967Y010018D01*
X007950Y010020D01*
X007250Y010020D01*
X007233Y010018D01*
X007216Y010014D01*
X007200Y010007D01*
X007186Y009997D01*
X007173Y009984D01*
X007163Y009970D01*
X007156Y009954D01*
X007152Y009937D01*
X007150Y009920D01*
X007150Y009770D01*
X007200Y009720D01*
X007200Y007820D01*
X007150Y007770D01*
X007150Y007620D01*
X007152Y007603D01*
X007156Y007586D01*
X007163Y007570D01*
X007173Y007556D01*
X007186Y007543D01*
X007200Y007533D01*
X007216Y007526D01*
X007233Y007522D01*
X007250Y007520D01*
X007950Y007520D01*
X007967Y007522D01*
X007984Y007526D01*
X008000Y007533D01*
X008014Y007543D01*
X008027Y007556D01*
X008037Y007570D01*
X008044Y007586D01*
X008048Y007603D01*
X008050Y007620D01*
X007000Y007420D02*
X007000Y010120D01*
X006998Y010137D01*
X006994Y010154D01*
X006987Y010170D01*
X006977Y010184D01*
X006964Y010197D01*
X006950Y010207D01*
X006934Y010214D01*
X006917Y010218D01*
X006900Y010220D01*
X005300Y010220D01*
X005283Y010218D01*
X005266Y010214D01*
X005250Y010207D01*
X005236Y010197D01*
X005223Y010184D01*
X005213Y010170D01*
X005206Y010154D01*
X005202Y010137D01*
X005200Y010120D01*
X005200Y007420D01*
X005202Y007403D01*
X005206Y007386D01*
X005213Y007370D01*
X005223Y007356D01*
X005236Y007343D01*
X005250Y007333D01*
X005266Y007326D01*
X005283Y007322D01*
X005300Y007320D01*
X006900Y007320D01*
X006917Y007322D01*
X006934Y007326D01*
X006950Y007333D01*
X006964Y007343D01*
X006977Y007356D01*
X006987Y007370D01*
X006994Y007386D01*
X006998Y007403D01*
X007000Y007420D01*
X006100Y008170D02*
X006100Y008640D01*
X006100Y008890D02*
X006100Y009370D01*
X005050Y009770D02*
X005050Y009920D01*
X005048Y009937D01*
X005044Y009954D01*
X005037Y009970D01*
X005027Y009984D01*
X005014Y009997D01*
X005000Y010007D01*
X004984Y010014D01*
X004967Y010018D01*
X004950Y010020D01*
X004250Y010020D01*
X004233Y010018D01*
X004216Y010014D01*
X004200Y010007D01*
X004186Y009997D01*
X004173Y009984D01*
X004163Y009970D01*
X004156Y009954D01*
X004152Y009937D01*
X004150Y009920D01*
X004150Y009770D01*
X004200Y009720D01*
X004200Y007820D01*
X004150Y007770D01*
X004150Y007620D01*
X004152Y007603D01*
X004156Y007586D01*
X004163Y007570D01*
X004173Y007556D01*
X004186Y007543D01*
X004200Y007533D01*
X004216Y007526D01*
X004233Y007522D01*
X004250Y007520D01*
X004950Y007520D01*
X004967Y007522D01*
X004984Y007526D01*
X005000Y007533D01*
X005014Y007543D01*
X005027Y007556D01*
X005037Y007570D01*
X005044Y007586D01*
X005048Y007603D01*
X005050Y007620D01*
X005050Y007770D01*
X005000Y007820D01*
X005000Y009720D01*
X005050Y009770D01*
X005100Y012120D02*
X005100Y012870D01*
X005139Y012872D01*
X005178Y012878D01*
X005216Y012887D01*
X005253Y012900D01*
X005289Y012917D01*
X005322Y012937D01*
X005354Y012961D01*
X005383Y012987D01*
X005409Y013016D01*
X005433Y013048D01*
X005453Y013081D01*
X005470Y013117D01*
X005483Y013154D01*
X005492Y013192D01*
X005498Y013231D01*
X005500Y013270D01*
X005498Y013309D01*
X005492Y013348D01*
X005483Y013386D01*
X005470Y013423D01*
X005453Y013459D01*
X005433Y013492D01*
X005409Y013524D01*
X005383Y013553D01*
X005354Y013579D01*
X005322Y013603D01*
X005289Y013623D01*
X005253Y013640D01*
X005216Y013653D01*
X005178Y013662D01*
X005139Y013668D01*
X005100Y013670D01*
X005100Y014420D01*
X012100Y014420D01*
X012100Y012120D01*
X005100Y012120D01*
X004950Y016520D02*
X004250Y016520D01*
X004233Y016522D01*
X004216Y016526D01*
X004200Y016533D01*
X004186Y016543D01*
X004173Y016556D01*
X004163Y016570D01*
X004156Y016586D01*
X004152Y016603D01*
X004150Y016620D01*
X004150Y016770D01*
X004200Y016820D01*
X004200Y018720D01*
X004150Y018770D01*
X004150Y018920D01*
X004152Y018937D01*
X004156Y018954D01*
X004163Y018970D01*
X004173Y018984D01*
X004186Y018997D01*
X004200Y019007D01*
X004216Y019014D01*
X004233Y019018D01*
X004250Y019020D01*
X004950Y019020D01*
X004967Y019018D01*
X004984Y019014D01*
X005000Y019007D01*
X005014Y018997D01*
X005027Y018984D01*
X005037Y018970D01*
X005044Y018954D01*
X005048Y018937D01*
X005050Y018920D01*
X005050Y018770D01*
X005000Y018720D01*
X005000Y016820D01*
X005050Y016770D01*
X005050Y016620D01*
X005048Y016603D01*
X005044Y016586D01*
X005037Y016570D01*
X005027Y016556D01*
X005014Y016543D01*
X005000Y016533D01*
X004984Y016526D01*
X004967Y016522D01*
X004950Y016520D01*
X005150Y016620D02*
X005150Y016770D01*
X005200Y016820D01*
X005200Y018720D01*
X005150Y018770D01*
X005150Y018920D01*
X005152Y018937D01*
X005156Y018954D01*
X005163Y018970D01*
X005173Y018984D01*
X005186Y018997D01*
X005200Y019007D01*
X005216Y019014D01*
X005233Y019018D01*
X005250Y019020D01*
X005950Y019020D01*
X005967Y019018D01*
X005984Y019014D01*
X006000Y019007D01*
X006014Y018997D01*
X006027Y018984D01*
X006037Y018970D01*
X006044Y018954D01*
X006048Y018937D01*
X006050Y018920D01*
X006050Y018770D01*
X006000Y018720D01*
X006000Y016820D01*
X006050Y016770D01*
X006050Y016620D01*
X006048Y016603D01*
X006044Y016586D01*
X006037Y016570D01*
X006027Y016556D01*
X006014Y016543D01*
X006000Y016533D01*
X005984Y016526D01*
X005967Y016522D01*
X005950Y016520D01*
X005250Y016520D01*
X005233Y016522D01*
X005216Y016526D01*
X005200Y016533D01*
X005186Y016543D01*
X005173Y016556D01*
X005163Y016570D01*
X005156Y016586D01*
X005152Y016603D01*
X005150Y016620D01*
X006150Y016620D02*
X006150Y016770D01*
X006200Y016820D01*
X006200Y018720D01*
X006150Y018770D01*
X006150Y018920D01*
X006152Y018937D01*
X006156Y018954D01*
X006163Y018970D01*
X006173Y018984D01*
X006186Y018997D01*
X006200Y019007D01*
X006216Y019014D01*
X006233Y019018D01*
X006250Y019020D01*
X006950Y019020D01*
X006967Y019018D01*
X006984Y019014D01*
X007000Y019007D01*
X007014Y018997D01*
X007027Y018984D01*
X007037Y018970D01*
X007044Y018954D01*
X007048Y018937D01*
X007050Y018920D01*
X007050Y018770D01*
X007000Y018720D01*
X007000Y016820D01*
X007050Y016770D01*
X007050Y016620D01*
X007150Y016620D02*
X007150Y016770D01*
X007200Y016820D01*
X007200Y018720D01*
X007150Y018770D01*
X007150Y018920D01*
X007152Y018937D01*
X007156Y018954D01*
X007163Y018970D01*
X007173Y018984D01*
X007186Y018997D01*
X007200Y019007D01*
X007216Y019014D01*
X007233Y019018D01*
X007250Y019020D01*
X007950Y019020D01*
X007967Y019018D01*
X007984Y019014D01*
X008000Y019007D01*
X008014Y018997D01*
X008027Y018984D01*
X008037Y018970D01*
X008044Y018954D01*
X008048Y018937D01*
X008050Y018920D01*
X008050Y018770D01*
X008000Y018720D01*
X008000Y016820D01*
X008050Y016770D01*
X008050Y016620D01*
X008048Y016603D01*
X008044Y016586D01*
X008037Y016570D01*
X008027Y016556D01*
X008014Y016543D01*
X008000Y016533D01*
X007984Y016526D01*
X007967Y016522D01*
X007950Y016520D01*
X007250Y016520D01*
X007233Y016522D01*
X007216Y016526D01*
X007200Y016533D01*
X007186Y016543D01*
X007173Y016556D01*
X007163Y016570D01*
X007156Y016586D01*
X007152Y016603D01*
X007150Y016620D01*
X007050Y016620D02*
X007048Y016603D01*
X007044Y016586D01*
X007037Y016570D01*
X007027Y016556D01*
X007014Y016543D01*
X007000Y016533D01*
X006984Y016526D01*
X006967Y016522D01*
X006950Y016520D01*
X006250Y016520D01*
X006233Y016522D01*
X006216Y016526D01*
X006200Y016533D01*
X006186Y016543D01*
X006173Y016556D01*
X006163Y016570D01*
X006156Y016586D01*
X006152Y016603D01*
X006150Y016620D01*
X008650Y016620D02*
X008650Y016770D01*
X008700Y016820D01*
X008700Y018720D01*
X008650Y018770D01*
X008650Y018920D01*
X008652Y018937D01*
X008656Y018954D01*
X008663Y018970D01*
X008673Y018984D01*
X008686Y018997D01*
X008700Y019007D01*
X008716Y019014D01*
X008733Y019018D01*
X008750Y019020D01*
X009450Y019020D01*
X009467Y019018D01*
X009484Y019014D01*
X009500Y019007D01*
X009514Y018997D01*
X009527Y018984D01*
X009537Y018970D01*
X009544Y018954D01*
X009548Y018937D01*
X009550Y018920D01*
X009550Y018770D01*
X009500Y018720D01*
X009500Y016820D01*
X009550Y016770D01*
X009550Y016620D01*
X009548Y016603D01*
X009544Y016586D01*
X009537Y016570D01*
X009527Y016556D01*
X009514Y016543D01*
X009500Y016533D01*
X009484Y016526D01*
X009467Y016522D01*
X009450Y016520D01*
X008750Y016520D01*
X008733Y016522D01*
X008716Y016526D01*
X008700Y016533D01*
X008686Y016543D01*
X008673Y016556D01*
X008663Y016570D01*
X008656Y016586D01*
X008652Y016603D01*
X008650Y016620D01*
X009650Y016620D02*
X009650Y016770D01*
X009700Y016820D01*
X009700Y018720D01*
X009650Y018770D01*
X009650Y018920D01*
X009652Y018937D01*
X009656Y018954D01*
X009663Y018970D01*
X009673Y018984D01*
X009686Y018997D01*
X009700Y019007D01*
X009716Y019014D01*
X009733Y019018D01*
X009750Y019020D01*
X010450Y019020D01*
X010467Y019018D01*
X010484Y019014D01*
X010500Y019007D01*
X010514Y018997D01*
X010527Y018984D01*
X010537Y018970D01*
X010544Y018954D01*
X010548Y018937D01*
X010550Y018920D01*
X010550Y018770D01*
X010500Y018720D01*
X010500Y016820D01*
X010550Y016770D01*
X010550Y016620D01*
X010548Y016603D01*
X010544Y016586D01*
X010537Y016570D01*
X010527Y016556D01*
X010514Y016543D01*
X010500Y016533D01*
X010484Y016526D01*
X010467Y016522D01*
X010450Y016520D01*
X009750Y016520D01*
X009733Y016522D01*
X009716Y016526D01*
X009700Y016533D01*
X009686Y016543D01*
X009673Y016556D01*
X009663Y016570D01*
X009656Y016586D01*
X009652Y016603D01*
X009650Y016620D01*
X010650Y016620D02*
X010650Y016770D01*
X010700Y016820D01*
X010700Y018720D01*
X010650Y018770D01*
X010650Y018920D01*
X010652Y018937D01*
X010656Y018954D01*
X010663Y018970D01*
X010673Y018984D01*
X010686Y018997D01*
X010700Y019007D01*
X010716Y019014D01*
X010733Y019018D01*
X010750Y019020D01*
X011450Y019020D01*
X011467Y019018D01*
X011484Y019014D01*
X011500Y019007D01*
X011514Y018997D01*
X011527Y018984D01*
X011537Y018970D01*
X011544Y018954D01*
X011548Y018937D01*
X011550Y018920D01*
X011550Y018770D01*
X011500Y018720D01*
X011500Y016820D01*
X011550Y016770D01*
X011550Y016620D01*
X011548Y016603D01*
X011544Y016586D01*
X011537Y016570D01*
X011527Y016556D01*
X011514Y016543D01*
X011500Y016533D01*
X011484Y016526D01*
X011467Y016522D01*
X011450Y016520D01*
X010750Y016520D01*
X010733Y016522D01*
X010716Y016526D01*
X010700Y016533D01*
X010686Y016543D01*
X010673Y016556D01*
X010663Y016570D01*
X010656Y016586D01*
X010652Y016603D01*
X010650Y016620D01*
X011650Y016620D02*
X011650Y016770D01*
X011700Y016820D01*
X011700Y018720D01*
X011650Y018770D01*
X011650Y018920D01*
X011652Y018937D01*
X011656Y018954D01*
X011663Y018970D01*
X011673Y018984D01*
X011686Y018997D01*
X011700Y019007D01*
X011716Y019014D01*
X011733Y019018D01*
X011750Y019020D01*
X012450Y019020D01*
X012467Y019018D01*
X012484Y019014D01*
X012500Y019007D01*
X012514Y018997D01*
X012527Y018984D01*
X012537Y018970D01*
X012544Y018954D01*
X012548Y018937D01*
X012550Y018920D01*
X012550Y018770D01*
X012500Y018720D01*
X012500Y016820D01*
X012550Y016770D01*
X012550Y016620D01*
X012548Y016603D01*
X012544Y016586D01*
X012537Y016570D01*
X012527Y016556D01*
X012514Y016543D01*
X012500Y016533D01*
X012484Y016526D01*
X012467Y016522D01*
X012450Y016520D01*
X011750Y016520D01*
X011733Y016522D01*
X011716Y016526D01*
X011700Y016533D01*
X011686Y016543D01*
X011673Y016556D01*
X011663Y016570D01*
X011656Y016586D01*
X011652Y016603D01*
X011650Y016620D01*
X010450Y020670D02*
X008750Y020670D01*
X008733Y020672D01*
X008716Y020676D01*
X008700Y020683D01*
X008686Y020693D01*
X008673Y020706D01*
X008663Y020720D01*
X008656Y020736D01*
X008652Y020753D01*
X008650Y020770D01*
X008650Y021770D01*
X008652Y021787D01*
X008656Y021804D01*
X008663Y021820D01*
X008673Y021834D01*
X008686Y021847D01*
X008700Y021857D01*
X008716Y021864D01*
X008733Y021868D01*
X008750Y021870D01*
X010450Y021870D01*
X010467Y021868D01*
X010484Y021864D01*
X010500Y021857D01*
X010514Y021847D01*
X010527Y021834D01*
X010537Y021820D01*
X010544Y021804D01*
X010548Y021787D01*
X010550Y021770D01*
X010550Y020770D01*
X010548Y020753D01*
X010544Y020736D01*
X010537Y020720D01*
X010527Y020706D01*
X010514Y020693D01*
X010500Y020683D01*
X010484Y020676D01*
X010467Y020672D01*
X010450Y020670D01*
X009750Y021270D02*
X009700Y021270D01*
X009500Y021270D02*
X009450Y021270D01*
X008750Y022170D02*
X010450Y022170D01*
X010467Y022172D01*
X010484Y022176D01*
X010500Y022183D01*
X010514Y022193D01*
X010527Y022206D01*
X010537Y022220D01*
X010544Y022236D01*
X010548Y022253D01*
X010550Y022270D01*
X010550Y023270D01*
X010548Y023287D01*
X010544Y023304D01*
X010537Y023320D01*
X010527Y023334D01*
X010514Y023347D01*
X010500Y023357D01*
X010484Y023364D01*
X010467Y023368D01*
X010450Y023370D01*
X008750Y023370D01*
X008733Y023368D01*
X008716Y023364D01*
X008700Y023357D01*
X008686Y023347D01*
X008673Y023334D01*
X008663Y023320D01*
X008656Y023304D01*
X008652Y023287D01*
X008650Y023270D01*
X008650Y022270D01*
X008652Y022253D01*
X008656Y022236D01*
X008663Y022220D01*
X008673Y022206D01*
X008686Y022193D01*
X008700Y022183D01*
X008716Y022176D01*
X008733Y022172D01*
X008750Y022170D01*
X009450Y022770D02*
X009500Y022770D01*
X009700Y022770D02*
X009750Y022770D01*
X009600Y023820D02*
X009450Y023820D01*
X009433Y023822D01*
X009416Y023826D01*
X009400Y023833D01*
X009386Y023843D01*
X009373Y023856D01*
X009363Y023870D01*
X009356Y023886D01*
X009352Y023903D01*
X009350Y023920D01*
X009350Y024620D01*
X009352Y024637D01*
X009356Y024654D01*
X009363Y024670D01*
X009373Y024684D01*
X009386Y024697D01*
X009400Y024707D01*
X009416Y024714D01*
X009433Y024718D01*
X009450Y024720D01*
X009600Y024720D01*
X009650Y024670D01*
X011550Y024670D01*
X011600Y024720D01*
X011750Y024720D01*
X011767Y024718D01*
X011784Y024714D01*
X011800Y024707D01*
X011814Y024697D01*
X011827Y024684D01*
X011837Y024670D01*
X011844Y024654D01*
X011848Y024637D01*
X011850Y024620D01*
X011850Y023920D01*
X011848Y023903D01*
X011844Y023886D01*
X011837Y023870D01*
X011827Y023856D01*
X011814Y023843D01*
X011800Y023833D01*
X011784Y023826D01*
X011767Y023822D01*
X011750Y023820D01*
X011600Y023820D01*
X011550Y023870D01*
X009650Y023870D01*
X009600Y023820D01*
X009600Y025320D02*
X009550Y025370D01*
X007650Y025370D01*
X007600Y025320D01*
X007450Y025320D01*
X007433Y025322D01*
X007416Y025326D01*
X007400Y025333D01*
X007386Y025343D01*
X007373Y025356D01*
X007363Y025370D01*
X007356Y025386D01*
X007352Y025403D01*
X007350Y025420D01*
X007350Y026120D01*
X007352Y026137D01*
X007356Y026154D01*
X007363Y026170D01*
X007373Y026184D01*
X007386Y026197D01*
X007400Y026207D01*
X007416Y026214D01*
X007433Y026218D01*
X007450Y026220D01*
X007600Y026220D01*
X007650Y026170D01*
X009550Y026170D01*
X009600Y026220D01*
X009750Y026220D01*
X009767Y026218D01*
X009784Y026214D01*
X009800Y026207D01*
X009814Y026197D01*
X009827Y026184D01*
X009837Y026170D01*
X009844Y026154D01*
X009848Y026137D01*
X009850Y026120D01*
X009850Y025420D01*
X009848Y025403D01*
X009844Y025386D01*
X009837Y025370D01*
X009827Y025356D01*
X009814Y025343D01*
X009800Y025333D01*
X009784Y025326D01*
X009767Y025322D01*
X009750Y025320D01*
X009600Y025320D01*
X009600Y026320D02*
X009550Y026370D01*
X007650Y026370D01*
X007600Y026320D01*
X007450Y026320D01*
X007433Y026322D01*
X007416Y026326D01*
X007400Y026333D01*
X007386Y026343D01*
X007373Y026356D01*
X007363Y026370D01*
X007356Y026386D01*
X007352Y026403D01*
X007350Y026420D01*
X007350Y027120D01*
X007352Y027137D01*
X007356Y027154D01*
X007363Y027170D01*
X007373Y027184D01*
X007386Y027197D01*
X007400Y027207D01*
X007416Y027214D01*
X007433Y027218D01*
X007450Y027220D01*
X007600Y027220D01*
X007650Y027170D01*
X009550Y027170D01*
X009600Y027220D01*
X009750Y027220D01*
X009767Y027218D01*
X009784Y027214D01*
X009800Y027207D01*
X009814Y027197D01*
X009827Y027184D01*
X009837Y027170D01*
X009844Y027154D01*
X009848Y027137D01*
X009850Y027120D01*
X009850Y026420D01*
X009848Y026403D01*
X009844Y026386D01*
X009837Y026370D01*
X009827Y026356D01*
X009814Y026343D01*
X009800Y026333D01*
X009784Y026326D01*
X009767Y026322D01*
X009750Y026320D01*
X009600Y026320D01*
X008850Y028195D02*
X008700Y028195D01*
X008683Y028197D01*
X008666Y028201D01*
X008650Y028208D01*
X008636Y028218D01*
X008623Y028231D01*
X008613Y028245D01*
X008606Y028261D01*
X008602Y028278D01*
X008600Y028295D01*
X008600Y028995D01*
X008602Y029012D01*
X008606Y029029D01*
X008613Y029045D01*
X008623Y029059D01*
X008636Y029072D01*
X008650Y029082D01*
X008666Y029089D01*
X008683Y029093D01*
X008700Y029095D01*
X008850Y029095D01*
X008900Y029045D01*
X010800Y029045D01*
X010850Y029095D01*
X011000Y029095D01*
X011017Y029093D01*
X011034Y029089D01*
X011050Y029082D01*
X011064Y029072D01*
X011077Y029059D01*
X011087Y029045D01*
X011094Y029029D01*
X011098Y029012D01*
X011100Y028995D01*
X011100Y028295D01*
X011098Y028278D01*
X011094Y028261D01*
X011087Y028245D01*
X011077Y028231D01*
X011064Y028218D01*
X011050Y028208D01*
X011034Y028201D01*
X011017Y028197D01*
X011000Y028195D01*
X010850Y028195D01*
X010800Y028245D01*
X008900Y028245D01*
X008850Y028195D01*
X008750Y029420D02*
X009000Y029420D01*
X009050Y029470D01*
X011650Y029470D01*
X011700Y029420D01*
X011950Y029420D01*
X011967Y029422D01*
X011984Y029426D01*
X012000Y029433D01*
X012014Y029443D01*
X012027Y029456D01*
X012037Y029470D01*
X012044Y029486D01*
X012048Y029503D01*
X012050Y029520D01*
X012050Y030520D01*
X012048Y030537D01*
X012044Y030554D01*
X012037Y030570D01*
X012027Y030584D01*
X012014Y030597D01*
X012000Y030607D01*
X011984Y030614D01*
X011967Y030618D01*
X011950Y030620D01*
X011700Y030620D01*
X011650Y030570D01*
X009050Y030570D01*
X009000Y030620D01*
X008750Y030620D01*
X008733Y030618D01*
X008716Y030614D01*
X008700Y030607D01*
X008686Y030597D01*
X008673Y030584D01*
X008663Y030570D01*
X008656Y030554D01*
X008652Y030537D01*
X008650Y030520D01*
X008650Y029520D01*
X008652Y029503D01*
X008656Y029486D01*
X008663Y029470D01*
X008673Y029456D01*
X008686Y029443D01*
X008700Y029433D01*
X008716Y029426D01*
X008733Y029422D01*
X008750Y029420D01*
X007200Y028920D02*
X007200Y030620D01*
X007198Y030637D01*
X007194Y030654D01*
X007187Y030670D01*
X007177Y030684D01*
X007164Y030697D01*
X007150Y030707D01*
X007134Y030714D01*
X007117Y030718D01*
X007100Y030720D01*
X006100Y030720D01*
X006083Y030718D01*
X006066Y030714D01*
X006050Y030707D01*
X006036Y030697D01*
X006023Y030684D01*
X006013Y030670D01*
X006006Y030654D01*
X006002Y030637D01*
X006000Y030620D01*
X006000Y028920D01*
X006002Y028903D01*
X006006Y028886D01*
X006013Y028870D01*
X006023Y028856D01*
X006036Y028843D01*
X006050Y028833D01*
X006066Y028826D01*
X006083Y028822D01*
X006100Y028820D01*
X007100Y028820D01*
X007117Y028822D01*
X007134Y028826D01*
X007150Y028833D01*
X007164Y028843D01*
X007177Y028856D01*
X007187Y028870D01*
X007194Y028886D01*
X007198Y028903D01*
X007200Y028920D01*
X006600Y029620D02*
X006600Y029670D01*
X006600Y029870D02*
X006600Y029920D01*
X006500Y024770D02*
X007250Y024770D01*
X007250Y020770D01*
X004950Y020770D01*
X004950Y024770D01*
X005700Y024770D01*
X005702Y024731D01*
X005708Y024692D01*
X005717Y024654D01*
X005730Y024617D01*
X005747Y024581D01*
X005767Y024548D01*
X005791Y024516D01*
X005817Y024487D01*
X005846Y024461D01*
X005878Y024437D01*
X005911Y024417D01*
X005947Y024400D01*
X005984Y024387D01*
X006022Y024378D01*
X006061Y024372D01*
X006100Y024370D01*
X006139Y024372D01*
X006178Y024378D01*
X006216Y024387D01*
X006253Y024400D01*
X006289Y024417D01*
X006322Y024437D01*
X006354Y024461D01*
X006383Y024487D01*
X006409Y024516D01*
X006433Y024548D01*
X006453Y024581D01*
X006470Y024617D01*
X006483Y024654D01*
X006492Y024692D01*
X006498Y024731D01*
X006500Y024770D01*
X015650Y022920D02*
X015650Y022770D01*
X015700Y022720D01*
X015700Y020820D01*
X015650Y020770D01*
X015650Y020620D01*
X015652Y020603D01*
X015656Y020586D01*
X015663Y020570D01*
X015673Y020556D01*
X015686Y020543D01*
X015700Y020533D01*
X015716Y020526D01*
X015733Y020522D01*
X015750Y020520D01*
X016450Y020520D01*
X016467Y020522D01*
X016484Y020526D01*
X016500Y020533D01*
X016514Y020543D01*
X016527Y020556D01*
X016537Y020570D01*
X016544Y020586D01*
X016548Y020603D01*
X016550Y020620D01*
X016550Y020770D01*
X016500Y020820D01*
X016500Y022720D01*
X016550Y022770D01*
X016550Y022920D01*
X016548Y022937D01*
X016544Y022954D01*
X016537Y022970D01*
X016527Y022984D01*
X016514Y022997D01*
X016500Y023007D01*
X016484Y023014D01*
X016467Y023018D01*
X016450Y023020D01*
X015750Y023020D01*
X015733Y023018D01*
X015716Y023014D01*
X015700Y023007D01*
X015686Y022997D01*
X015673Y022984D01*
X015663Y022970D01*
X015656Y022954D01*
X015652Y022937D01*
X015650Y022920D01*
X016800Y027320D02*
X018400Y027320D01*
X018417Y027322D01*
X018434Y027326D01*
X018450Y027333D01*
X018464Y027343D01*
X018477Y027356D01*
X018487Y027370D01*
X018494Y027386D01*
X018498Y027403D01*
X018500Y027420D01*
X018500Y030120D01*
X018498Y030137D01*
X018494Y030154D01*
X018487Y030170D01*
X018477Y030184D01*
X018464Y030197D01*
X018450Y030207D01*
X018434Y030214D01*
X018417Y030218D01*
X018400Y030220D01*
X016800Y030220D01*
X016783Y030218D01*
X016766Y030214D01*
X016750Y030207D01*
X016736Y030197D01*
X016723Y030184D01*
X016713Y030170D01*
X016706Y030154D01*
X016702Y030137D01*
X016700Y030120D01*
X016700Y027420D01*
X016702Y027403D01*
X016706Y027386D01*
X016713Y027370D01*
X016723Y027356D01*
X016736Y027343D01*
X016750Y027333D01*
X016766Y027326D01*
X016783Y027322D01*
X016800Y027320D01*
X017600Y028170D02*
X017600Y028650D01*
X017600Y028900D02*
X017600Y029370D01*
X018700Y030120D02*
X018700Y027420D01*
X018702Y027403D01*
X018706Y027386D01*
X018713Y027370D01*
X018723Y027356D01*
X018736Y027343D01*
X018750Y027333D01*
X018766Y027326D01*
X018783Y027322D01*
X018800Y027320D01*
X020400Y027320D01*
X020417Y027322D01*
X020434Y027326D01*
X020450Y027333D01*
X020464Y027343D01*
X020477Y027356D01*
X020487Y027370D01*
X020494Y027386D01*
X020498Y027403D01*
X020500Y027420D01*
X020500Y030120D01*
X020498Y030137D01*
X020494Y030154D01*
X020487Y030170D01*
X020477Y030184D01*
X020464Y030197D01*
X020450Y030207D01*
X020434Y030214D01*
X020417Y030218D01*
X020400Y030220D01*
X018800Y030220D01*
X018783Y030218D01*
X018766Y030214D01*
X018750Y030207D01*
X018736Y030197D01*
X018723Y030184D01*
X018713Y030170D01*
X018706Y030154D01*
X018702Y030137D01*
X018700Y030120D01*
X019600Y029370D02*
X019600Y028900D01*
X019600Y028650D02*
X019600Y028170D01*
X021100Y028070D02*
X021100Y029970D01*
X021400Y030270D01*
X021100Y028070D02*
X021400Y027770D01*
X024800Y027770D01*
X025100Y028070D01*
X025100Y029970D01*
X024800Y030270D01*
X026862Y023691D02*
X026755Y023584D01*
X026755Y023157D01*
X026862Y023050D01*
X027075Y023050D01*
X027182Y023157D01*
X027182Y023584D01*
X027075Y023691D01*
X026862Y023691D01*
X027400Y023691D02*
X027400Y023050D01*
X027827Y023050D02*
X027827Y023691D01*
X027400Y023691D02*
X027827Y023050D01*
X027750Y021520D02*
X028450Y021520D01*
X028467Y021518D01*
X028484Y021514D01*
X028500Y021507D01*
X028514Y021497D01*
X028527Y021484D01*
X028537Y021470D01*
X028544Y021454D01*
X028548Y021437D01*
X028550Y021420D01*
X028550Y021270D01*
X028500Y021220D01*
X028500Y019320D01*
X028550Y019270D01*
X028550Y019120D01*
X028548Y019103D01*
X028544Y019086D01*
X028537Y019070D01*
X028527Y019056D01*
X028514Y019043D01*
X028500Y019033D01*
X028484Y019026D01*
X028467Y019022D01*
X028450Y019020D01*
X027750Y019020D01*
X027733Y019022D01*
X027716Y019026D01*
X027700Y019033D01*
X027686Y019043D01*
X027673Y019056D01*
X027663Y019070D01*
X027656Y019086D01*
X027652Y019103D01*
X027650Y019120D01*
X027650Y019270D01*
X027700Y019320D01*
X027700Y021220D01*
X027650Y021270D01*
X027650Y021420D01*
X027652Y021437D01*
X027656Y021454D01*
X027663Y021470D01*
X027673Y021484D01*
X027686Y021497D01*
X027700Y021507D01*
X027716Y021514D01*
X027733Y021518D01*
X027750Y021520D01*
X027550Y021420D02*
X027550Y021270D01*
X027500Y021220D01*
X027500Y019320D01*
X027550Y019270D01*
X027550Y019120D01*
X027548Y019103D01*
X027544Y019086D01*
X027537Y019070D01*
X027527Y019056D01*
X027514Y019043D01*
X027500Y019033D01*
X027484Y019026D01*
X027467Y019022D01*
X027450Y019020D01*
X026750Y019020D01*
X026733Y019022D01*
X026716Y019026D01*
X026700Y019033D01*
X026686Y019043D01*
X026673Y019056D01*
X026663Y019070D01*
X026656Y019086D01*
X026652Y019103D01*
X026650Y019120D01*
X026650Y019270D01*
X026700Y019320D01*
X026700Y021220D01*
X026650Y021270D01*
X026650Y021420D01*
X026652Y021437D01*
X026656Y021454D01*
X026663Y021470D01*
X026673Y021484D01*
X026686Y021497D01*
X026700Y021507D01*
X026716Y021514D01*
X026733Y021518D01*
X026750Y021520D01*
X027450Y021520D01*
X027467Y021518D01*
X027484Y021514D01*
X027500Y021507D01*
X027514Y021497D01*
X027527Y021484D01*
X027537Y021470D01*
X027544Y021454D01*
X027548Y021437D01*
X027550Y021420D01*
X027100Y017720D02*
X028100Y017720D01*
X028117Y017718D01*
X028134Y017714D01*
X028150Y017707D01*
X028164Y017697D01*
X028177Y017684D01*
X028187Y017670D01*
X028194Y017654D01*
X028198Y017637D01*
X028200Y017620D01*
X028200Y015920D01*
X028198Y015903D01*
X028194Y015886D01*
X028187Y015870D01*
X028177Y015856D01*
X028164Y015843D01*
X028150Y015833D01*
X028134Y015826D01*
X028117Y015822D01*
X028100Y015820D01*
X027100Y015820D01*
X027083Y015822D01*
X027066Y015826D01*
X027050Y015833D01*
X027036Y015843D01*
X027023Y015856D01*
X027013Y015870D01*
X027006Y015886D01*
X027002Y015903D01*
X027000Y015920D01*
X027000Y017620D01*
X027002Y017637D01*
X027006Y017654D01*
X027013Y017670D01*
X027023Y017684D01*
X027036Y017697D01*
X027050Y017707D01*
X027066Y017714D01*
X027083Y017718D01*
X027100Y017720D01*
X026600Y016920D02*
X026600Y014620D01*
X022600Y014620D01*
X022600Y015370D01*
X022639Y015372D01*
X022678Y015378D01*
X022716Y015387D01*
X022753Y015400D01*
X022789Y015417D01*
X022822Y015437D01*
X022854Y015461D01*
X022883Y015487D01*
X022909Y015516D01*
X022933Y015548D01*
X022953Y015581D01*
X022970Y015617D01*
X022983Y015654D01*
X022992Y015692D01*
X022998Y015731D01*
X023000Y015770D01*
X022998Y015809D01*
X022992Y015848D01*
X022983Y015886D01*
X022970Y015923D01*
X022953Y015959D01*
X022933Y015992D01*
X022909Y016024D01*
X022883Y016053D01*
X022854Y016079D01*
X022822Y016103D01*
X022789Y016123D01*
X022753Y016140D01*
X022716Y016153D01*
X022678Y016162D01*
X022639Y016168D01*
X022600Y016170D01*
X022600Y016920D01*
X026600Y016920D01*
X027600Y016920D02*
X027600Y016870D01*
X027600Y016670D02*
X027600Y016620D01*
X022500Y011270D02*
X022500Y009270D01*
X018700Y009270D01*
X018700Y011270D01*
X022500Y011270D01*
X021350Y011420D02*
X021350Y012120D01*
X021348Y012137D01*
X021344Y012154D01*
X021337Y012170D01*
X021327Y012184D01*
X021314Y012197D01*
X021300Y012207D01*
X021284Y012214D01*
X021267Y012218D01*
X021250Y012220D01*
X021100Y012220D01*
X021050Y012170D01*
X019150Y012170D01*
X019100Y012220D01*
X018950Y012220D01*
X018933Y012218D01*
X018916Y012214D01*
X018900Y012207D01*
X018886Y012197D01*
X018873Y012184D01*
X018863Y012170D01*
X018856Y012154D01*
X018852Y012137D01*
X018850Y012120D01*
X018850Y011420D01*
X018852Y011403D01*
X018856Y011386D01*
X018863Y011370D01*
X018873Y011356D01*
X018886Y011343D01*
X018900Y011333D01*
X018916Y011326D01*
X018933Y011322D01*
X018950Y011320D01*
X019100Y011320D01*
X019150Y011370D01*
X021050Y011370D01*
X021100Y011320D01*
X021250Y011320D01*
X021267Y011322D01*
X021284Y011326D01*
X021300Y011333D01*
X021314Y011343D01*
X021327Y011356D01*
X021337Y011370D01*
X021344Y011386D01*
X021348Y011403D01*
X021350Y011420D01*
X021250Y012320D02*
X021100Y012320D01*
X021050Y012370D01*
X019150Y012370D01*
X019100Y012320D01*
X018950Y012320D01*
X018933Y012322D01*
X018916Y012326D01*
X018900Y012333D01*
X018886Y012343D01*
X018873Y012356D01*
X018863Y012370D01*
X018856Y012386D01*
X018852Y012403D01*
X018850Y012420D01*
X018850Y013120D01*
X018852Y013137D01*
X018856Y013154D01*
X018863Y013170D01*
X018873Y013184D01*
X018886Y013197D01*
X018900Y013207D01*
X018916Y013214D01*
X018933Y013218D01*
X018950Y013220D01*
X019100Y013220D01*
X019150Y013170D01*
X021050Y013170D01*
X021100Y013220D01*
X021250Y013220D01*
X021267Y013218D01*
X021284Y013214D01*
X021300Y013207D01*
X021314Y013197D01*
X021327Y013184D01*
X021337Y013170D01*
X021344Y013154D01*
X021348Y013137D01*
X021350Y013120D01*
X021350Y012420D01*
X021348Y012403D01*
X021344Y012386D01*
X021337Y012370D01*
X021327Y012356D01*
X021314Y012343D01*
X021300Y012333D01*
X021284Y012326D01*
X021267Y012322D01*
X021250Y012320D01*
X020950Y013170D02*
X019250Y013170D01*
X019233Y013172D01*
X019216Y013176D01*
X019200Y013183D01*
X019186Y013193D01*
X019173Y013206D01*
X019163Y013220D01*
X019156Y013236D01*
X019152Y013253D01*
X019150Y013270D01*
X019150Y014270D01*
X019100Y014320D02*
X019150Y014370D01*
X021050Y014370D01*
X021100Y014320D01*
X021250Y014320D01*
X021267Y014322D01*
X021284Y014326D01*
X021300Y014333D01*
X021314Y014343D01*
X021327Y014356D01*
X021337Y014370D01*
X021344Y014386D01*
X021348Y014403D01*
X021350Y014420D01*
X021350Y015120D01*
X021348Y015137D01*
X021344Y015154D01*
X021337Y015170D01*
X021327Y015184D01*
X021314Y015197D01*
X021300Y015207D01*
X021284Y015214D01*
X021267Y015218D01*
X021250Y015220D01*
X021100Y015220D01*
X021050Y015170D01*
X019150Y015170D01*
X019100Y015220D01*
X018950Y015220D01*
X018933Y015218D01*
X018916Y015214D01*
X018900Y015207D01*
X018886Y015197D01*
X018873Y015184D01*
X018863Y015170D01*
X018856Y015154D01*
X018852Y015137D01*
X018850Y015120D01*
X018850Y014420D01*
X018852Y014403D01*
X018856Y014386D01*
X018863Y014370D01*
X018873Y014356D01*
X018886Y014343D01*
X018900Y014333D01*
X018916Y014326D01*
X018933Y014322D01*
X018950Y014320D01*
X019100Y014320D01*
X019150Y014270D02*
X019152Y014287D01*
X019156Y014304D01*
X019163Y014320D01*
X019173Y014334D01*
X019186Y014347D01*
X019200Y014357D01*
X019216Y014364D01*
X019233Y014368D01*
X019250Y014370D01*
X020950Y014370D01*
X020967Y014368D01*
X020984Y014364D01*
X021000Y014357D01*
X021014Y014347D01*
X021027Y014334D01*
X021037Y014320D01*
X021044Y014304D01*
X021048Y014287D01*
X021050Y014270D01*
X021050Y013270D01*
X021048Y013253D01*
X021044Y013236D01*
X021037Y013220D01*
X021027Y013206D01*
X021014Y013193D01*
X021000Y013183D01*
X020984Y013176D01*
X020967Y013172D01*
X020950Y013170D01*
X020250Y013770D02*
X020200Y013770D01*
X020000Y013770D02*
X019950Y013770D01*
X019100Y015320D02*
X019150Y015370D01*
X021050Y015370D01*
X021100Y015320D01*
X021250Y015320D01*
X021267Y015322D01*
X021284Y015326D01*
X021300Y015333D01*
X021314Y015343D01*
X021327Y015356D01*
X021337Y015370D01*
X021344Y015386D01*
X021348Y015403D01*
X021350Y015420D01*
X021350Y016120D01*
X021348Y016137D01*
X021344Y016154D01*
X021337Y016170D01*
X021327Y016184D01*
X021314Y016197D01*
X021300Y016207D01*
X021284Y016214D01*
X021267Y016218D01*
X021250Y016220D01*
X021100Y016220D01*
X021050Y016170D01*
X019150Y016170D01*
X019100Y016220D01*
X018950Y016220D01*
X018933Y016218D01*
X018916Y016214D01*
X018900Y016207D01*
X018886Y016197D01*
X018873Y016184D01*
X018863Y016170D01*
X018856Y016154D01*
X018852Y016137D01*
X018850Y016120D01*
X018850Y015420D01*
X018852Y015403D01*
X018856Y015386D01*
X018863Y015370D01*
X018873Y015356D01*
X018886Y015343D01*
X018900Y015333D01*
X018916Y015326D01*
X018933Y015322D01*
X018950Y015320D01*
X019100Y015320D01*
X019100Y016320D02*
X019150Y016370D01*
X021050Y016370D01*
X021100Y016320D01*
X021250Y016320D01*
X021267Y016322D01*
X021284Y016326D01*
X021300Y016333D01*
X021314Y016343D01*
X021327Y016356D01*
X021337Y016370D01*
X021344Y016386D01*
X021348Y016403D01*
X021350Y016420D01*
X021350Y017120D01*
X021348Y017137D01*
X021344Y017154D01*
X021337Y017170D01*
X021327Y017184D01*
X021314Y017197D01*
X021300Y017207D01*
X021284Y017214D01*
X021267Y017218D01*
X021250Y017220D01*
X021100Y017220D01*
X021050Y017170D01*
X019150Y017170D01*
X019100Y017220D01*
X018950Y017220D01*
X018933Y017218D01*
X018916Y017214D01*
X018900Y017207D01*
X018886Y017197D01*
X018873Y017184D01*
X018863Y017170D01*
X018856Y017154D01*
X018852Y017137D01*
X018850Y017120D01*
X018850Y016420D01*
X018852Y016403D01*
X018856Y016386D01*
X018863Y016370D01*
X018873Y016356D01*
X018886Y016343D01*
X018900Y016333D01*
X018916Y016326D01*
X018933Y016322D01*
X018950Y016320D01*
X019100Y016320D01*
X016440Y014710D02*
X016498Y014687D01*
X016555Y014660D01*
X016610Y014630D01*
X016663Y014596D01*
X016714Y014559D01*
X016762Y014519D01*
X016808Y014476D01*
X016851Y014431D01*
X016891Y014382D01*
X016927Y014331D01*
X016961Y014278D01*
X016991Y014223D01*
X017018Y014167D01*
X017041Y014108D01*
X017060Y014049D01*
X017076Y013988D01*
X017088Y013926D01*
X017096Y013864D01*
X017100Y013801D01*
X017100Y013739D01*
X017096Y013676D01*
X017088Y013614D01*
X017076Y013552D01*
X017060Y013491D01*
X017041Y013432D01*
X017018Y013373D01*
X016991Y013317D01*
X016961Y013262D01*
X016927Y013209D01*
X016891Y013158D01*
X016851Y013109D01*
X016808Y013064D01*
X016762Y013021D01*
X016714Y012981D01*
X016663Y012944D01*
X016610Y012910D01*
X016555Y012880D01*
X016498Y012853D01*
X016440Y012830D01*
X015760Y012830D02*
X015702Y012853D01*
X015645Y012880D01*
X015590Y012910D01*
X015537Y012944D01*
X015486Y012981D01*
X015438Y013021D01*
X015392Y013064D01*
X015349Y013109D01*
X015309Y013158D01*
X015273Y013209D01*
X015239Y013262D01*
X015209Y013317D01*
X015182Y013373D01*
X015159Y013432D01*
X015140Y013491D01*
X015124Y013552D01*
X015112Y013614D01*
X015104Y013676D01*
X015100Y013739D01*
X015100Y013801D01*
X015104Y013864D01*
X015112Y013926D01*
X015124Y013988D01*
X015140Y014049D01*
X015159Y014108D01*
X015182Y014167D01*
X015209Y014223D01*
X015239Y014278D01*
X015273Y014331D01*
X015309Y014382D01*
X015349Y014431D01*
X015392Y014476D01*
X015438Y014519D01*
X015486Y014559D01*
X015537Y014596D01*
X015590Y014630D01*
X015645Y014660D01*
X015702Y014687D01*
X015760Y014710D01*
X016700Y010770D02*
X016698Y010723D01*
X016692Y010675D01*
X016683Y010629D01*
X016670Y010583D01*
X016654Y010539D01*
X016633Y010495D01*
X016610Y010454D01*
X016584Y010415D01*
X016554Y010378D01*
X016521Y010343D01*
X016486Y010311D01*
X016449Y010282D01*
X015500Y010770D02*
X015502Y010815D01*
X015507Y010861D01*
X015515Y010905D01*
X015527Y010949D01*
X015543Y010992D01*
X015561Y011034D01*
X015583Y011074D01*
X015607Y011112D01*
X015634Y011148D01*
X015664Y011183D01*
X015697Y011214D01*
X015732Y011244D01*
X015500Y010770D02*
X015502Y010725D01*
X015507Y010679D01*
X015515Y010635D01*
X015527Y010591D01*
X015543Y010548D01*
X015561Y010506D01*
X015583Y010466D01*
X015607Y010428D01*
X015634Y010392D01*
X015664Y010357D01*
X015697Y010326D01*
X015732Y010296D01*
X016700Y010770D02*
X016698Y010816D01*
X016693Y010862D01*
X016684Y010908D01*
X016672Y010953D01*
X016656Y010996D01*
X016637Y011038D01*
X016614Y011079D01*
X016589Y011118D01*
X016561Y011154D01*
X016530Y011189D01*
X016496Y011221D01*
X016460Y011250D01*
X021350Y006270D02*
X021100Y006020D01*
X021100Y005520D01*
X021350Y005270D01*
X021850Y005270D01*
X022100Y005520D01*
X022100Y006020D01*
X021850Y006270D01*
X021350Y006270D01*
X022100Y006020D02*
X022350Y006270D01*
X022850Y006270D01*
X023100Y006020D01*
X023350Y006270D01*
X023850Y006270D01*
X024100Y006020D01*
X024100Y005520D01*
X023850Y005270D01*
X023350Y005270D01*
X023100Y005520D01*
X022850Y005270D01*
X022350Y005270D01*
X022100Y005520D01*
X021650Y005170D02*
X023550Y005170D01*
X023600Y005220D01*
X023750Y005220D01*
X023767Y005218D01*
X023784Y005214D01*
X023800Y005207D01*
X023814Y005197D01*
X023827Y005184D01*
X023837Y005170D01*
X023844Y005154D01*
X023848Y005137D01*
X023850Y005120D01*
X023850Y004420D01*
X023848Y004403D01*
X023844Y004386D01*
X023837Y004370D01*
X023827Y004356D01*
X023814Y004343D01*
X023800Y004333D01*
X023784Y004326D01*
X023767Y004322D01*
X023750Y004320D01*
X023600Y004320D01*
X023550Y004370D01*
X021650Y004370D01*
X021600Y004320D01*
X021450Y004320D01*
X021450Y004220D02*
X021600Y004220D01*
X021650Y004170D01*
X023550Y004170D01*
X023600Y004220D01*
X023750Y004220D01*
X023767Y004218D01*
X023784Y004214D01*
X023800Y004207D01*
X023814Y004197D01*
X023827Y004184D01*
X023837Y004170D01*
X023844Y004154D01*
X023848Y004137D01*
X023850Y004120D01*
X023850Y003420D01*
X023848Y003403D01*
X023844Y003386D01*
X023837Y003370D01*
X023827Y003356D01*
X023814Y003343D01*
X023800Y003333D01*
X023784Y003326D01*
X023767Y003322D01*
X023750Y003320D01*
X023600Y003320D01*
X023550Y003370D01*
X021650Y003370D01*
X021600Y003320D01*
X021450Y003320D01*
X021450Y003220D02*
X021600Y003220D01*
X021650Y003170D01*
X023550Y003170D01*
X023600Y003220D01*
X023750Y003220D01*
X023767Y003218D01*
X023784Y003214D01*
X023800Y003207D01*
X023814Y003197D01*
X023827Y003184D01*
X023837Y003170D01*
X023844Y003154D01*
X023848Y003137D01*
X023850Y003120D01*
X023850Y002420D01*
X023848Y002403D01*
X023844Y002386D01*
X023837Y002370D01*
X023827Y002356D01*
X023814Y002343D01*
X023800Y002333D01*
X023784Y002326D01*
X023767Y002322D01*
X023750Y002320D01*
X023600Y002320D01*
X023550Y002370D01*
X021650Y002370D01*
X021600Y002320D01*
X021450Y002320D01*
X021450Y002220D02*
X021600Y002220D01*
X021650Y002170D01*
X023550Y002170D01*
X023600Y002220D01*
X023750Y002220D01*
X023767Y002218D01*
X023784Y002214D01*
X023800Y002207D01*
X023814Y002197D01*
X023827Y002184D01*
X023837Y002170D01*
X023844Y002154D01*
X023848Y002137D01*
X023850Y002120D01*
X023850Y001420D01*
X023848Y001403D01*
X023844Y001386D01*
X023837Y001370D01*
X023827Y001356D01*
X023814Y001343D01*
X023800Y001333D01*
X023784Y001326D01*
X023767Y001322D01*
X023750Y001320D01*
X023600Y001320D01*
X023550Y001370D01*
X021650Y001370D01*
X021600Y001320D01*
X021450Y001320D01*
X021433Y001322D01*
X021416Y001326D01*
X021400Y001333D01*
X021386Y001343D01*
X021373Y001356D01*
X021363Y001370D01*
X021356Y001386D01*
X021352Y001403D01*
X021350Y001420D01*
X021350Y002120D01*
X021352Y002137D01*
X021356Y002154D01*
X021363Y002170D01*
X021373Y002184D01*
X021386Y002197D01*
X021400Y002207D01*
X021416Y002214D01*
X021433Y002218D01*
X021450Y002220D01*
X021450Y002320D02*
X021433Y002322D01*
X021416Y002326D01*
X021400Y002333D01*
X021386Y002343D01*
X021373Y002356D01*
X021363Y002370D01*
X021356Y002386D01*
X021352Y002403D01*
X021350Y002420D01*
X021350Y003120D01*
X021352Y003137D01*
X021356Y003154D01*
X021363Y003170D01*
X021373Y003184D01*
X021386Y003197D01*
X021400Y003207D01*
X021416Y003214D01*
X021433Y003218D01*
X021450Y003220D01*
X021450Y003320D02*
X021433Y003322D01*
X021416Y003326D01*
X021400Y003333D01*
X021386Y003343D01*
X021373Y003356D01*
X021363Y003370D01*
X021356Y003386D01*
X021352Y003403D01*
X021350Y003420D01*
X021350Y004120D01*
X021352Y004137D01*
X021356Y004154D01*
X021363Y004170D01*
X021373Y004184D01*
X021386Y004197D01*
X021400Y004207D01*
X021416Y004214D01*
X021433Y004218D01*
X021450Y004220D01*
X021450Y004320D02*
X021433Y004322D01*
X021416Y004326D01*
X021400Y004333D01*
X021386Y004343D01*
X021373Y004356D01*
X021363Y004370D01*
X021356Y004386D01*
X021352Y004403D01*
X021350Y004420D01*
X021350Y005120D01*
X021352Y005137D01*
X021356Y005154D01*
X021363Y005170D01*
X021373Y005184D01*
X021386Y005197D01*
X021400Y005207D01*
X021416Y005214D01*
X021433Y005218D01*
X021450Y005220D01*
X021600Y005220D01*
X021650Y005170D01*
X023100Y005520D02*
X023100Y006020D01*
X023100Y007520D02*
X023100Y007770D01*
X023100Y008020D01*
X023100Y007770D02*
X022700Y007520D01*
X022700Y008020D01*
X023100Y007770D01*
X022500Y007770D01*
X022280Y007408D02*
X023920Y007408D01*
X023920Y008132D01*
X022280Y008132D01*
X022280Y007408D01*
X023100Y007770D02*
X023350Y007770D01*
X025150Y008570D02*
X025150Y006970D01*
X025152Y006953D01*
X025156Y006936D01*
X025163Y006920D01*
X025173Y006906D01*
X025186Y006893D01*
X025200Y006883D01*
X025216Y006876D01*
X025233Y006872D01*
X025250Y006870D01*
X027950Y006870D01*
X027967Y006872D01*
X027984Y006876D01*
X028000Y006883D01*
X028014Y006893D01*
X028027Y006906D01*
X028037Y006920D01*
X028044Y006936D01*
X028048Y006953D01*
X028050Y006970D01*
X028050Y008570D01*
X028048Y008587D01*
X028044Y008604D01*
X028037Y008620D01*
X028027Y008634D01*
X028014Y008647D01*
X028000Y008657D01*
X027984Y008664D01*
X027967Y008668D01*
X027950Y008670D01*
X025250Y008670D01*
X025233Y008668D01*
X025216Y008664D01*
X025200Y008657D01*
X025186Y008647D01*
X025173Y008634D01*
X025163Y008620D01*
X025156Y008604D01*
X025152Y008587D01*
X025150Y008570D01*
X026000Y007770D02*
X026480Y007770D01*
X026730Y007770D02*
X027200Y007770D01*
X015700Y028725D02*
X015700Y028883D01*
X016250Y028945D02*
X016250Y030595D01*
X015700Y030658D02*
X015700Y030815D01*
X015700Y029883D02*
X015700Y029658D01*
X016250Y028945D02*
X016199Y028908D01*
X016146Y028873D01*
X016090Y028841D01*
X016033Y028813D01*
X015974Y028789D01*
X015914Y028768D01*
X015853Y028751D01*
X015791Y028737D01*
X015728Y028728D01*
X015665Y028722D01*
X015601Y028720D01*
X015537Y028722D01*
X015474Y028728D01*
X015411Y028737D01*
X015349Y028750D01*
X015288Y028768D01*
X015228Y028788D01*
X015169Y028813D01*
X015112Y028840D01*
X015056Y028872D01*
X015003Y028906D01*
X014952Y028944D01*
X014903Y028985D01*
X014857Y029029D01*
X014813Y029075D01*
X014772Y029124D01*
X014735Y029175D01*
X014700Y029229D01*
X014669Y029284D01*
X014641Y029341D01*
X014617Y029400D01*
X014597Y029460D01*
X014597Y030080D02*
X014617Y030140D01*
X014641Y030199D01*
X014669Y030256D01*
X014700Y030311D01*
X014735Y030365D01*
X014772Y030416D01*
X014813Y030465D01*
X014857Y030511D01*
X014903Y030555D01*
X014952Y030596D01*
X015003Y030634D01*
X015056Y030668D01*
X015112Y030700D01*
X015169Y030727D01*
X015228Y030752D01*
X015288Y030772D01*
X015349Y030790D01*
X015411Y030803D01*
X015474Y030812D01*
X015537Y030818D01*
X015601Y030820D01*
X015665Y030818D01*
X015728Y030812D01*
X015791Y030803D01*
X015853Y030789D01*
X015914Y030772D01*
X015974Y030751D01*
X016033Y030727D01*
X016090Y030699D01*
X016146Y030667D01*
X016199Y030632D01*
X016250Y030595D01*
D11*
X021745Y027597D02*
X021745Y027137D01*
X021745Y027290D02*
X021975Y027290D01*
X022052Y027367D01*
X022052Y027520D01*
X021975Y027597D01*
X021745Y027597D01*
X022205Y027520D02*
X022205Y027367D01*
X022282Y027290D01*
X022436Y027290D01*
X022512Y027367D01*
X022512Y027520D01*
X022436Y027597D01*
X022282Y027597D01*
X022205Y027520D01*
X022666Y027597D02*
X022666Y027367D01*
X022743Y027290D01*
X022819Y027367D01*
X022896Y027290D01*
X022973Y027367D01*
X022973Y027597D01*
X023126Y027520D02*
X023203Y027597D01*
X023356Y027597D01*
X023433Y027520D01*
X023433Y027444D01*
X023126Y027444D01*
X023126Y027520D02*
X023126Y027367D01*
X023203Y027290D01*
X023356Y027290D01*
X023587Y027290D02*
X023587Y027597D01*
X023740Y027597D02*
X023817Y027597D01*
X023740Y027597D02*
X023587Y027444D01*
X015455Y021709D02*
X015378Y021785D01*
X015225Y021785D01*
X015148Y021709D01*
X015148Y021555D01*
X015225Y021478D01*
X015378Y021478D01*
X015455Y021555D01*
X015455Y021709D01*
X015455Y021325D02*
X015455Y021018D01*
X015148Y021325D01*
X015148Y021018D01*
X015225Y020864D02*
X015302Y020864D01*
X015302Y020558D01*
X015378Y020558D02*
X015225Y020558D01*
X015148Y020634D01*
X015148Y020788D01*
X015225Y020864D01*
X015455Y020788D02*
X015455Y020634D01*
X015378Y020558D01*
X015455Y020404D02*
X015455Y020251D01*
X015455Y020327D02*
X015148Y020327D01*
X015148Y020251D01*
X014995Y020327D02*
X014918Y020327D01*
X015148Y020020D02*
X015225Y020097D01*
X015378Y020097D01*
X015455Y020020D01*
X015455Y019790D01*
X015608Y019790D02*
X015148Y019790D01*
X015148Y020020D01*
X013205Y019377D02*
X012821Y019377D01*
X012745Y019454D01*
X012975Y019454D02*
X012975Y019300D01*
X012975Y019147D02*
X012975Y018993D01*
X012821Y019070D02*
X012745Y019147D01*
X012821Y019070D02*
X013205Y019070D01*
X013205Y018840D02*
X013205Y018686D01*
X013205Y018763D02*
X012898Y018763D01*
X012898Y018686D01*
X012898Y018533D02*
X012898Y018303D01*
X012975Y018226D01*
X013128Y018226D01*
X013205Y018303D01*
X013205Y018533D01*
X012745Y018533D01*
X012745Y018763D02*
X012668Y018763D01*
X012975Y017612D02*
X013205Y017612D01*
X012975Y017612D02*
X012898Y017535D01*
X012898Y017305D01*
X013205Y017305D01*
X013052Y017152D02*
X013052Y016845D01*
X013128Y016845D02*
X012975Y016845D01*
X012898Y016921D01*
X012898Y017075D01*
X012975Y017152D01*
X013052Y017152D01*
X013205Y017075D02*
X013205Y016921D01*
X013128Y016845D01*
X013052Y016691D02*
X012975Y016691D01*
X012898Y016614D01*
X012898Y016461D01*
X012975Y016384D01*
X013128Y016384D01*
X013205Y016461D01*
X013205Y016614D01*
X013052Y016691D02*
X013052Y016384D01*
X012898Y016231D02*
X012898Y016154D01*
X013052Y016001D01*
X013205Y016001D02*
X012898Y016001D01*
X012898Y015847D02*
X012898Y015617D01*
X012975Y015540D01*
X013128Y015540D01*
X013205Y015617D01*
X013205Y015847D01*
X013282Y015847D02*
X012898Y015847D01*
X013282Y015847D02*
X013358Y015770D01*
X013358Y015694D01*
X012955Y020790D02*
X012955Y021020D01*
X012878Y021097D01*
X012802Y021020D01*
X012802Y020867D01*
X012725Y020790D01*
X012648Y020867D01*
X012648Y021097D01*
X012648Y021251D02*
X012648Y021404D01*
X012571Y021327D02*
X012878Y021327D01*
X012955Y021404D01*
X012955Y021558D02*
X012648Y021558D01*
X012648Y021711D02*
X012648Y021788D01*
X012648Y021711D02*
X012802Y021558D01*
X012802Y021941D02*
X012802Y022248D01*
X012725Y022248D01*
X012648Y022171D01*
X012648Y022018D01*
X012725Y021941D01*
X012878Y021941D01*
X012955Y022018D01*
X012955Y022171D01*
X012878Y022478D02*
X012955Y022555D01*
X012878Y022478D02*
X012571Y022478D01*
X012648Y022402D02*
X012648Y022555D01*
X012725Y022709D02*
X012878Y022709D01*
X012955Y022785D01*
X012955Y023015D01*
X012955Y023169D02*
X012495Y023169D01*
X012648Y023246D02*
X012648Y023399D01*
X012725Y023476D01*
X012955Y023476D01*
X012725Y023169D02*
X012648Y023246D01*
X012648Y023015D02*
X012648Y022785D01*
X012725Y022709D01*
X012330Y022709D02*
X012330Y022555D01*
X012253Y022478D01*
X012100Y022478D01*
X012023Y022555D01*
X012023Y022709D01*
X012100Y022785D01*
X012177Y022785D01*
X012177Y022478D01*
X012253Y022325D02*
X012177Y022248D01*
X012177Y022095D01*
X012100Y022018D01*
X012023Y022095D01*
X012023Y022325D01*
X012253Y022325D02*
X012330Y022248D01*
X012330Y022018D01*
X012330Y021864D02*
X012330Y021711D01*
X012330Y021788D02*
X011870Y021788D01*
X011870Y021711D01*
X012023Y021558D02*
X012330Y021558D01*
X012330Y021327D01*
X012253Y021251D01*
X012023Y021251D01*
X012100Y021097D02*
X012253Y021097D01*
X012330Y021020D01*
X012330Y020790D01*
X012483Y020790D02*
X012023Y020790D01*
X012023Y021020D01*
X012100Y021097D01*
X004580Y028117D02*
X004503Y028040D01*
X004580Y028117D02*
X004580Y028270D01*
X004503Y028347D01*
X004427Y028347D01*
X004350Y028270D01*
X004350Y028117D01*
X004273Y028040D01*
X004196Y028040D01*
X004120Y028117D01*
X004120Y028270D01*
X004196Y028347D01*
X004120Y028501D02*
X004120Y028731D01*
X004196Y028808D01*
X004273Y028808D01*
X004350Y028731D01*
X004427Y028808D01*
X004503Y028808D01*
X004580Y028731D01*
X004580Y028501D01*
X004120Y028501D01*
X004350Y028501D02*
X004350Y028731D01*
X004580Y028961D02*
X004120Y028961D01*
X004273Y029114D01*
X004120Y029268D01*
X004580Y029268D01*
X004350Y029421D02*
X004350Y029728D01*
X004196Y029882D02*
X004120Y029959D01*
X004120Y030112D01*
X004196Y030189D01*
X004273Y030189D01*
X004580Y029882D01*
X004580Y030189D01*
X004503Y030342D02*
X004196Y030649D01*
X004503Y030649D01*
X004580Y030572D01*
X004580Y030419D01*
X004503Y030342D01*
X004196Y030342D01*
X004120Y030419D01*
X004120Y030572D01*
X004196Y030649D01*
X002455Y023213D02*
X002455Y023127D01*
X002368Y023127D01*
X002368Y023213D01*
X002455Y023213D01*
X002455Y022956D02*
X002368Y022870D01*
X002021Y022870D01*
X002108Y022956D02*
X002108Y022783D01*
X002195Y022614D02*
X002455Y022614D01*
X002195Y022614D02*
X002108Y022528D01*
X002108Y022267D01*
X002455Y022267D01*
X002282Y022099D02*
X002282Y021752D01*
X002368Y021752D02*
X002195Y021752D01*
X002108Y021838D01*
X002108Y022012D01*
X002195Y022099D01*
X002282Y022099D01*
X002455Y022012D02*
X002455Y021838D01*
X002368Y021752D01*
X002368Y021583D02*
X002282Y021496D01*
X002282Y021323D01*
X002195Y021236D01*
X002108Y021323D01*
X002108Y021583D01*
X002368Y021583D02*
X002455Y021496D01*
X002455Y021236D01*
X002282Y021067D02*
X002282Y020720D01*
X002368Y020720D02*
X002195Y020720D01*
X002108Y020807D01*
X002108Y020981D01*
X002195Y021067D01*
X002282Y021067D01*
X002455Y020981D02*
X002455Y020807D01*
X002368Y020720D01*
X002108Y020551D02*
X002108Y020464D01*
X002282Y020291D01*
X002455Y020291D02*
X002108Y020291D01*
X002195Y020122D02*
X002368Y020122D01*
X002455Y020035D01*
X002455Y019775D01*
X002628Y019775D02*
X002108Y019775D01*
X002108Y020035D01*
X002195Y020122D01*
X002195Y019091D02*
X002282Y019091D01*
X002282Y018744D01*
X002368Y018744D02*
X002195Y018744D01*
X002108Y018831D01*
X002108Y019004D01*
X002195Y019091D01*
X002455Y019004D02*
X002455Y018831D01*
X002368Y018744D01*
X002108Y018574D02*
X002108Y018488D01*
X002282Y018314D01*
X002282Y018145D02*
X002282Y017885D01*
X002368Y017798D01*
X002455Y017885D01*
X002455Y018145D01*
X002195Y018145D01*
X002108Y018059D01*
X002108Y017885D01*
X002108Y018314D02*
X002455Y018314D01*
X002282Y017114D02*
X001935Y017114D01*
X002282Y017114D02*
X002455Y016941D01*
X002282Y016767D01*
X001935Y016767D01*
X002021Y016598D02*
X002368Y016252D01*
X002455Y016338D01*
X002455Y016512D01*
X002368Y016598D01*
X002021Y016598D01*
X001935Y016512D01*
X001935Y016338D01*
X002021Y016252D01*
X002368Y016252D01*
X002368Y016083D02*
X002455Y015996D01*
X002455Y015823D01*
X002368Y015736D01*
X002021Y016083D01*
X002368Y016083D01*
X002368Y015736D02*
X002021Y015736D01*
X001935Y015823D01*
X001935Y015996D01*
X002021Y016083D01*
X002195Y015567D02*
X002195Y015220D01*
X001935Y015480D01*
X002455Y015480D01*
X002368Y014536D02*
X002195Y014536D01*
X002108Y014449D01*
X002108Y014276D01*
X002195Y014189D01*
X002368Y014189D01*
X002455Y014276D01*
X002455Y014449D01*
X002368Y014536D01*
X002455Y014019D02*
X002368Y013932D01*
X002021Y013932D01*
X002108Y013845D02*
X002108Y014019D01*
X002195Y013161D02*
X002368Y013161D01*
X002455Y013074D01*
X002455Y012814D01*
X002455Y012645D02*
X002108Y012645D01*
X002108Y012814D02*
X002108Y013074D01*
X002195Y013161D01*
X002108Y012814D02*
X002628Y012814D01*
X002455Y012645D02*
X002455Y012385D01*
X002368Y012298D01*
X002108Y012298D01*
X002108Y011614D02*
X002108Y011354D01*
X002195Y011267D01*
X002282Y011354D01*
X002282Y011527D01*
X002368Y011614D01*
X002455Y011527D01*
X002455Y011267D01*
X002282Y011098D02*
X002282Y010751D01*
X002368Y010751D02*
X002195Y010751D01*
X002108Y010838D01*
X002108Y011012D01*
X002195Y011098D01*
X002282Y011098D01*
X002455Y011012D02*
X002455Y010838D01*
X002368Y010751D01*
X002455Y010583D02*
X002455Y010322D01*
X002368Y010236D01*
X002195Y010236D01*
X002108Y010322D01*
X002108Y010583D01*
X002542Y010583D01*
X002628Y010496D01*
X002628Y010409D01*
X002455Y010067D02*
X002455Y009807D01*
X002368Y009720D01*
X002282Y009807D01*
X002282Y010067D01*
X002195Y010067D02*
X002455Y010067D01*
X002195Y010067D02*
X002108Y009980D01*
X002108Y009807D01*
X002108Y009550D02*
X002108Y009376D01*
X002021Y009463D02*
X002368Y009463D01*
X002455Y009550D01*
X002455Y009206D02*
X002455Y009033D01*
X002455Y009119D02*
X001935Y009119D01*
X001935Y009033D01*
X002108Y008777D02*
X002108Y008604D01*
X002195Y008517D01*
X002368Y008517D01*
X002455Y008604D01*
X002455Y008777D01*
X002368Y008864D01*
X002195Y008864D01*
X002108Y008777D01*
X002282Y008348D02*
X001935Y008348D01*
X002282Y008348D02*
X002455Y008175D01*
X002282Y008001D01*
X001935Y008001D01*
X002108Y007315D02*
X002195Y007315D01*
X002195Y007228D01*
X002108Y007228D01*
X002108Y007315D01*
X002368Y007315D02*
X002368Y007228D01*
X002455Y007228D01*
X002455Y007315D01*
X002368Y007315D01*
X002368Y007059D02*
X002195Y007059D01*
X002195Y006886D01*
X002368Y007059D02*
X002455Y006972D01*
X002455Y006799D01*
X002368Y006712D01*
X002021Y006712D01*
X001935Y006799D01*
X001935Y006972D01*
X002021Y007059D01*
X001935Y006543D02*
X002455Y006543D01*
X001935Y006197D01*
X002455Y006197D01*
X002455Y006026D02*
X002455Y005853D01*
X002455Y005940D02*
X001935Y005940D01*
X001935Y006026D02*
X001935Y005853D01*
X001935Y005684D02*
X002455Y005684D01*
X001935Y005337D01*
X002455Y005337D01*
X002455Y005168D02*
X002282Y004995D01*
X002282Y005082D02*
X002282Y004821D01*
X002455Y004821D02*
X001935Y004821D01*
X001935Y005082D01*
X002021Y005168D01*
X002195Y005168D01*
X002282Y005082D01*
X002195Y004653D02*
X002195Y004306D01*
X002108Y004306D02*
X001935Y004479D01*
X002108Y004653D01*
X002455Y004653D01*
X002455Y004306D02*
X002108Y004306D01*
X001935Y004137D02*
X002455Y004137D01*
X002282Y003964D01*
X002455Y003790D01*
X001935Y003790D01*
X003571Y006617D02*
X003495Y006694D01*
X003571Y006617D02*
X003955Y006617D01*
X003955Y006847D02*
X003955Y007001D01*
X003955Y006924D02*
X003648Y006924D01*
X003648Y006847D01*
X003725Y006694D02*
X003725Y006540D01*
X003495Y006924D02*
X003418Y006924D01*
X003495Y007154D02*
X003495Y007231D01*
X003955Y007231D01*
X003955Y007154D02*
X003955Y007308D01*
X003878Y007538D02*
X003955Y007614D01*
X003878Y007538D02*
X003571Y007538D01*
X003648Y007461D02*
X003648Y007614D01*
X003725Y007768D02*
X003648Y007845D01*
X003648Y007998D01*
X003725Y008075D01*
X003802Y008075D01*
X003802Y007768D01*
X003878Y007768D02*
X003725Y007768D01*
X003878Y007768D02*
X003955Y007845D01*
X003955Y007998D01*
X003955Y008228D02*
X003648Y008228D01*
X003802Y008228D02*
X003648Y008382D01*
X003648Y008459D01*
X005120Y002501D02*
X005273Y002347D01*
X005427Y002501D01*
X005427Y002040D01*
X005580Y002040D02*
X005580Y002347D01*
X005734Y002501D01*
X005887Y002347D01*
X005887Y002040D01*
X006041Y002117D02*
X006118Y002040D01*
X006271Y002040D01*
X006348Y002117D01*
X006348Y002424D02*
X006271Y002501D01*
X006118Y002501D01*
X006041Y002424D01*
X006041Y002117D01*
X005887Y002270D02*
X005580Y002270D01*
X005120Y002040D02*
X005120Y002501D01*
X006962Y002424D02*
X007038Y002501D01*
X007192Y002501D01*
X007268Y002424D01*
X007268Y002347D01*
X006962Y002040D01*
X007268Y002040D01*
X007422Y002117D02*
X007729Y002424D01*
X007729Y002117D01*
X007652Y002040D01*
X007499Y002040D01*
X007422Y002117D01*
X007422Y002424D01*
X007499Y002501D01*
X007652Y002501D01*
X007729Y002424D01*
X007882Y002347D02*
X008036Y002501D01*
X008036Y002040D01*
X008189Y002040D02*
X007882Y002040D01*
X008343Y002270D02*
X008650Y002270D01*
X008573Y002040D02*
X008573Y002501D01*
X008343Y002270D01*
X012370Y001810D02*
X012370Y001580D01*
X012830Y001580D01*
X012830Y001810D01*
X012753Y001887D01*
X012446Y001887D01*
X012370Y001810D01*
X012370Y001426D02*
X012830Y001426D01*
X012370Y001119D01*
X012830Y001119D01*
X012753Y000966D02*
X012830Y000889D01*
X012830Y000736D01*
X012753Y000659D01*
X012446Y000659D01*
X012370Y000736D01*
X012370Y000889D01*
X012446Y000966D01*
X012600Y000966D02*
X012600Y000812D01*
X012600Y000966D02*
X012753Y000966D01*
X013370Y000889D02*
X013446Y000966D01*
X013600Y000966D01*
X013677Y000889D01*
X013677Y000659D01*
X013830Y000659D02*
X013370Y000659D01*
X013370Y000889D01*
X013370Y001119D02*
X013830Y001119D01*
X013677Y001273D01*
X013830Y001426D01*
X013370Y001426D01*
X013370Y001580D02*
X013523Y001733D01*
X013370Y001887D01*
X013830Y001887D01*
X013830Y001580D02*
X013370Y001580D01*
X014370Y001657D02*
X014446Y001580D01*
X014523Y001580D01*
X014600Y001657D01*
X014600Y001810D01*
X014677Y001887D01*
X014753Y001887D01*
X014830Y001810D01*
X014830Y001657D01*
X014753Y001580D01*
X014600Y001426D02*
X014677Y001350D01*
X014677Y001119D01*
X014830Y001119D02*
X014370Y001119D01*
X014370Y001350D01*
X014446Y001426D01*
X014600Y001426D01*
X014370Y001657D02*
X014370Y001810D01*
X014446Y001887D01*
X015370Y001887D02*
X015677Y001887D01*
X015830Y001733D01*
X015677Y001580D01*
X015370Y001580D01*
X015370Y001426D02*
X015830Y001426D01*
X015370Y001119D01*
X015830Y001119D01*
X015830Y000966D02*
X015830Y000812D01*
X015830Y000889D02*
X015370Y000889D01*
X015370Y000812D02*
X015370Y000966D01*
X016370Y001196D02*
X016446Y001119D01*
X016753Y001119D01*
X016830Y001196D01*
X016830Y001350D01*
X016753Y001426D01*
X016600Y001426D01*
X016600Y001273D01*
X016446Y001426D02*
X016370Y001350D01*
X016370Y001196D01*
X016370Y001580D02*
X016523Y001733D01*
X016370Y001887D01*
X016830Y001887D01*
X016830Y001580D02*
X016370Y001580D01*
X017370Y001580D02*
X017677Y001580D01*
X017830Y001733D01*
X017677Y001887D01*
X017370Y001887D01*
X017370Y001426D02*
X017830Y001426D01*
X017600Y001426D02*
X017600Y001119D01*
X017830Y001119D02*
X017370Y001119D01*
X019495Y001790D02*
X019955Y001790D01*
X019725Y001790D02*
X019725Y002097D01*
X019802Y002251D02*
X019495Y002251D01*
X019495Y002097D02*
X019955Y002097D01*
X019802Y002251D02*
X019955Y002404D01*
X019802Y002558D01*
X019495Y002558D01*
X019648Y003171D02*
X019648Y003325D01*
X019571Y003248D02*
X019878Y003248D01*
X019955Y003325D01*
X019878Y003478D02*
X019725Y003478D01*
X019648Y003555D01*
X019648Y003709D01*
X019725Y003785D01*
X019802Y003785D01*
X019802Y003478D01*
X019878Y003478D02*
X019955Y003555D01*
X019955Y003709D01*
X019955Y003939D02*
X019955Y004169D01*
X019878Y004246D01*
X019802Y004169D01*
X019802Y004015D01*
X019725Y003939D01*
X019648Y004015D01*
X019648Y004246D01*
X019648Y004399D02*
X019648Y004553D01*
X019571Y004476D02*
X019878Y004476D01*
X019955Y004553D01*
X020523Y005369D02*
X020370Y005523D01*
X020830Y005523D01*
X020830Y005676D02*
X020830Y005369D01*
X020830Y005830D02*
X020370Y005830D01*
X020523Y005983D01*
X020370Y006137D01*
X020830Y006137D01*
X020632Y006887D02*
X020632Y007347D01*
X020863Y007347D01*
X020939Y007270D01*
X020939Y007117D01*
X020863Y007040D01*
X020632Y007040D01*
X020479Y007117D02*
X020402Y007040D01*
X020172Y007040D01*
X020172Y006887D02*
X020172Y007347D01*
X020402Y007347D01*
X020479Y007270D01*
X020479Y007117D01*
X020018Y007040D02*
X020018Y007347D01*
X020018Y007040D02*
X019788Y007040D01*
X019712Y007117D01*
X019712Y007347D01*
X019558Y007347D02*
X019328Y007347D01*
X019251Y007270D01*
X019328Y007194D01*
X019481Y007194D01*
X019558Y007117D01*
X019481Y007040D01*
X019251Y007040D01*
X018637Y007194D02*
X018637Y007501D01*
X018330Y007501D02*
X018330Y007194D01*
X018484Y007040D01*
X018637Y007194D01*
X018177Y007270D02*
X017870Y007270D01*
X017870Y007040D02*
X017870Y007501D01*
X018177Y007501D02*
X018177Y007040D01*
X021093Y007040D02*
X021246Y007040D01*
X021169Y007040D02*
X021169Y007501D01*
X021093Y007501D01*
X021400Y007347D02*
X021400Y007117D01*
X021476Y007040D01*
X021707Y007040D01*
X021707Y006963D02*
X021630Y006887D01*
X021553Y006887D01*
X021707Y006963D02*
X021707Y007347D01*
X024370Y006387D02*
X024523Y006233D01*
X024370Y006080D01*
X024830Y006080D01*
X024753Y005926D02*
X024446Y005926D01*
X024753Y005619D01*
X024830Y005696D01*
X024830Y005850D01*
X024753Y005926D01*
X024753Y005619D02*
X024446Y005619D01*
X024370Y005696D01*
X024370Y005850D01*
X024446Y005926D01*
X024830Y005466D02*
X024830Y005159D01*
X024830Y005312D02*
X024370Y005312D01*
X024523Y005159D01*
X024370Y006387D02*
X024830Y006387D01*
X026620Y011290D02*
X026927Y011290D01*
X027080Y011290D02*
X027387Y011290D01*
X027234Y011290D02*
X027234Y011751D01*
X027080Y011597D01*
X026620Y011751D02*
X026620Y011290D01*
X014358Y009686D02*
X013898Y009686D01*
X013898Y009916D01*
X013975Y009993D01*
X014128Y009993D01*
X014205Y009916D01*
X014205Y009686D01*
X014205Y009533D02*
X013975Y009533D01*
X013898Y009456D01*
X013975Y009379D01*
X014205Y009379D01*
X014205Y009226D02*
X013898Y009226D01*
X013898Y009303D01*
X013975Y009379D01*
X013898Y009072D02*
X014205Y009072D01*
X014205Y008842D01*
X014128Y008765D01*
X013898Y008765D01*
X013975Y008612D02*
X013898Y008535D01*
X013898Y008305D01*
X014358Y008305D01*
X014205Y008305D02*
X014205Y008535D01*
X014128Y008612D01*
X013975Y008612D01*
X013898Y007691D02*
X013898Y007461D01*
X013975Y007384D01*
X014128Y007384D01*
X014205Y007461D01*
X014205Y007691D01*
X013745Y007691D01*
X013975Y007231D02*
X013898Y007154D01*
X013898Y007001D01*
X013975Y006924D01*
X014128Y006924D01*
X014205Y007001D01*
X014205Y007154D01*
X014052Y007231D02*
X014052Y006924D01*
X013898Y006770D02*
X013898Y006694D01*
X014052Y006540D01*
X014205Y006540D02*
X013898Y006540D01*
X013975Y007231D02*
X014052Y007231D01*
X003983Y015694D02*
X003983Y015770D01*
X003907Y015847D01*
X003523Y015847D01*
X003523Y015617D01*
X003600Y015540D01*
X003753Y015540D01*
X003830Y015617D01*
X003830Y015847D01*
X003830Y016001D02*
X003523Y016001D01*
X003523Y016154D02*
X003677Y016001D01*
X003523Y016154D02*
X003523Y016231D01*
X003600Y016384D02*
X003523Y016461D01*
X003523Y016614D01*
X003600Y016691D01*
X003677Y016691D01*
X003677Y016384D01*
X003753Y016384D02*
X003600Y016384D01*
X003753Y016384D02*
X003830Y016461D01*
X003830Y016614D01*
X003753Y016845D02*
X003600Y016845D01*
X003523Y016921D01*
X003523Y017075D01*
X003600Y017152D01*
X003677Y017152D01*
X003677Y016845D01*
X003753Y016845D02*
X003830Y016921D01*
X003830Y017075D01*
X003830Y017305D02*
X003523Y017305D01*
X003523Y017535D01*
X003600Y017612D01*
X003830Y017612D01*
X003830Y018226D02*
X003830Y018456D01*
X003753Y018533D01*
X003600Y018533D01*
X003523Y018456D01*
X003523Y018226D01*
X003983Y018226D01*
X003753Y018686D02*
X003830Y018763D01*
X003830Y018993D01*
X003523Y018993D01*
X003523Y019147D02*
X003523Y019223D01*
X003600Y019300D01*
X003523Y019377D01*
X003600Y019454D01*
X003830Y019454D01*
X003830Y019607D02*
X003830Y019837D01*
X003753Y019914D01*
X003600Y019914D01*
X003523Y019837D01*
X003523Y019607D01*
X003983Y019607D01*
X003830Y019300D02*
X003600Y019300D01*
X003523Y019147D02*
X003830Y019147D01*
X003753Y018686D02*
X003523Y018686D01*
D12*
X003350Y020270D02*
X008350Y020270D01*
X008350Y015270D01*
X003350Y015270D01*
X003350Y020270D01*
X003975Y020520D02*
X013225Y020520D01*
X013225Y025020D01*
X003975Y025020D01*
X003975Y020520D01*
X008350Y020270D02*
X013350Y020270D01*
X013350Y015270D01*
X008350Y015270D01*
X009350Y011270D02*
X014350Y011270D01*
X014350Y006270D01*
X009350Y006270D01*
X009350Y011270D01*
X003350Y011270D01*
X003350Y006270D01*
X009350Y006270D01*
X017600Y006770D02*
X028725Y006770D01*
X028725Y022770D01*
X026350Y022770D01*
X026350Y017645D01*
X017600Y017645D01*
X017600Y006770D01*
X019100Y006770D02*
X019100Y001145D01*
X025100Y001145D01*
X025100Y006770D01*
X019100Y006770D01*
X016975Y019395D02*
X014850Y019395D01*
X014850Y026520D01*
X016975Y026520D01*
X016975Y019395D01*
X014475Y027020D02*
X025475Y027020D01*
X025475Y031020D01*
X014475Y031020D01*
X014475Y027020D01*
D13*
X000964Y004100D02*
X000964Y003795D01*
X001575Y003795D01*
X001575Y004100D01*
X001473Y004202D01*
X001371Y004202D01*
X001270Y004100D01*
X001270Y003795D01*
X001270Y004100D02*
X001168Y004202D01*
X001066Y004202D01*
X000964Y004100D01*
X001168Y004403D02*
X000964Y004606D01*
X001168Y004810D01*
X001575Y004810D01*
X001270Y004810D02*
X001270Y004403D01*
X001168Y004403D02*
X001575Y004403D01*
X000964Y005011D02*
X000964Y005418D01*
X000964Y005618D02*
X000964Y006025D01*
X000964Y006226D02*
X001575Y006226D01*
X001575Y006633D01*
X001575Y006834D02*
X000964Y006834D01*
X000964Y007139D01*
X001066Y007241D01*
X001270Y007241D01*
X001371Y007139D01*
X001371Y006834D01*
X001371Y007037D02*
X001575Y007241D01*
X001575Y007645D02*
X001270Y007645D01*
X001066Y007849D01*
X000964Y007849D01*
X001270Y008049D02*
X001270Y008456D01*
X001473Y008657D02*
X001066Y008657D01*
X000964Y008759D01*
X000964Y008962D01*
X001066Y009064D01*
X001473Y009064D01*
X001575Y008962D01*
X001575Y008759D01*
X001473Y008657D01*
X001371Y009265D02*
X001371Y009570D01*
X001270Y009672D01*
X001066Y009672D01*
X000964Y009570D01*
X000964Y009265D01*
X001575Y009265D01*
X001575Y009872D02*
X000964Y009872D01*
X000964Y010279D01*
X000964Y010480D02*
X000964Y010785D01*
X001066Y010887D01*
X001270Y010887D01*
X001371Y010785D01*
X001371Y010480D01*
X001371Y010684D02*
X001575Y010887D01*
X001575Y011088D02*
X001168Y011088D01*
X000964Y011291D01*
X001168Y011495D01*
X001575Y011495D01*
X001270Y011495D02*
X001270Y011088D01*
X000964Y011696D02*
X000964Y012103D01*
X000964Y012303D02*
X001575Y012303D01*
X001575Y012710D01*
X001575Y012911D02*
X001575Y013216D01*
X001473Y013318D01*
X001066Y013318D01*
X000964Y013216D01*
X000964Y012911D01*
X001575Y012911D01*
X001270Y012507D02*
X001270Y012303D01*
X000964Y012303D02*
X000964Y012710D01*
X000964Y011899D02*
X001575Y011899D01*
X001575Y010480D02*
X000964Y010480D01*
X001270Y010076D02*
X001270Y009872D01*
X001575Y009872D02*
X001575Y010279D01*
X001270Y007645D02*
X001066Y007442D01*
X000964Y007442D01*
X000964Y006633D02*
X000964Y006226D01*
X001270Y006226D02*
X001270Y006430D01*
X001575Y005822D02*
X000964Y005822D01*
X000964Y005214D02*
X001575Y005214D01*
X004400Y007845D02*
X004400Y008070D01*
X004475Y008145D01*
X004625Y008145D01*
X004700Y008070D01*
X004700Y007845D01*
X004850Y007845D02*
X004400Y007845D01*
X004700Y007995D02*
X004850Y008145D01*
X004850Y008306D02*
X004550Y008606D01*
X004475Y008606D01*
X004400Y008531D01*
X004400Y008381D01*
X004475Y008306D01*
X004850Y008306D02*
X004850Y008606D01*
X004775Y008766D02*
X004475Y009066D01*
X004775Y009066D01*
X004850Y008991D01*
X004850Y008841D01*
X004775Y008766D01*
X004475Y008766D01*
X004400Y008841D01*
X004400Y008991D01*
X004475Y009066D01*
X005800Y010345D02*
X005725Y010420D01*
X005725Y010721D01*
X005800Y010796D01*
X005950Y010796D01*
X006025Y010721D01*
X006185Y010721D02*
X006260Y010796D01*
X006411Y010796D01*
X006486Y010721D01*
X006486Y010645D01*
X006411Y010570D01*
X006260Y010570D01*
X006185Y010645D01*
X006185Y010721D01*
X006260Y010570D02*
X006185Y010495D01*
X006185Y010420D01*
X006260Y010345D01*
X006411Y010345D01*
X006486Y010420D01*
X006486Y010495D01*
X006411Y010570D01*
X006025Y010420D02*
X005950Y010345D01*
X005800Y010345D01*
X007400Y008916D02*
X007850Y008916D01*
X007850Y008766D02*
X007850Y009066D01*
X007550Y008766D02*
X007400Y008916D01*
X007475Y008606D02*
X007400Y008531D01*
X007400Y008381D01*
X007475Y008306D01*
X007475Y008145D02*
X007625Y008145D01*
X007700Y008070D01*
X007700Y007845D01*
X007850Y007845D02*
X007400Y007845D01*
X007400Y008070D01*
X007475Y008145D01*
X007700Y007995D02*
X007850Y008145D01*
X007850Y008306D02*
X007550Y008606D01*
X007475Y008606D01*
X007850Y008606D02*
X007850Y008306D01*
X008400Y008381D02*
X008475Y008306D01*
X008400Y008381D02*
X008400Y008531D01*
X008475Y008606D01*
X008550Y008606D01*
X008850Y008306D01*
X008850Y008606D01*
X008850Y008766D02*
X008550Y009066D01*
X008475Y009066D01*
X008400Y008991D01*
X008400Y008841D01*
X008475Y008766D01*
X008850Y008766D02*
X008850Y009066D01*
X008850Y008145D02*
X008700Y007995D01*
X008700Y008070D02*
X008700Y007845D01*
X008850Y007845D02*
X008400Y007845D01*
X008400Y008070D01*
X008475Y008145D01*
X008625Y008145D01*
X008700Y008070D01*
X009900Y008070D02*
X009900Y007845D01*
X010350Y007845D01*
X010200Y007845D02*
X010200Y008070D01*
X010125Y008145D01*
X009975Y008145D01*
X009900Y008070D01*
X009975Y008306D02*
X009900Y008381D01*
X009900Y008531D01*
X009975Y008606D01*
X010050Y008606D01*
X010350Y008306D01*
X010350Y008606D01*
X010275Y008766D02*
X010350Y008841D01*
X010350Y008991D01*
X010275Y009066D01*
X010200Y009066D01*
X010125Y008991D01*
X010125Y008916D01*
X010125Y008991D02*
X010050Y009066D01*
X009975Y009066D01*
X009900Y008991D01*
X009900Y008841D01*
X009975Y008766D01*
X010350Y008145D02*
X010200Y007995D01*
X010900Y008070D02*
X010900Y007845D01*
X011350Y007845D01*
X011200Y007845D02*
X011200Y008070D01*
X011125Y008145D01*
X010975Y008145D01*
X010900Y008070D01*
X010975Y008306D02*
X010900Y008381D01*
X010900Y008531D01*
X010975Y008606D01*
X011050Y008606D01*
X011350Y008306D01*
X011350Y008606D01*
X011125Y008766D02*
X011125Y009066D01*
X011350Y008991D02*
X010900Y008991D01*
X011125Y008766D01*
X011350Y008145D02*
X011200Y007995D01*
X011900Y008070D02*
X011900Y007845D01*
X012350Y007845D01*
X012200Y007845D02*
X012200Y008070D01*
X012125Y008145D01*
X011975Y008145D01*
X011900Y008070D01*
X011975Y008306D02*
X011900Y008381D01*
X011900Y008531D01*
X011975Y008606D01*
X012050Y008606D01*
X012350Y008306D01*
X012350Y008606D01*
X012275Y008766D02*
X012350Y008841D01*
X012350Y008991D01*
X012275Y009066D01*
X012125Y009066D01*
X012050Y008991D01*
X012050Y008916D01*
X012125Y008766D01*
X011900Y008766D01*
X011900Y009066D01*
X012900Y009066D02*
X012975Y008916D01*
X013125Y008766D01*
X013125Y008991D01*
X013200Y009066D01*
X013275Y009066D01*
X013350Y008991D01*
X013350Y008841D01*
X013275Y008766D01*
X013125Y008766D01*
X013050Y008606D02*
X013350Y008306D01*
X013350Y008606D01*
X013050Y008606D02*
X012975Y008606D01*
X012900Y008531D01*
X012900Y008381D01*
X012975Y008306D01*
X012975Y008145D02*
X013125Y008145D01*
X013200Y008070D01*
X013200Y007845D01*
X013350Y007845D02*
X012900Y007845D01*
X012900Y008070D01*
X012975Y008145D01*
X013200Y007995D02*
X013350Y008145D01*
X012350Y008145D02*
X012200Y007995D01*
X014475Y010045D02*
X014925Y010045D01*
X014925Y010345D01*
X014925Y010506D02*
X014925Y010806D01*
X014925Y010966D02*
X014925Y011191D01*
X014850Y011266D01*
X014550Y011266D01*
X014475Y011191D01*
X014475Y010966D01*
X014925Y010966D01*
X014700Y010656D02*
X014700Y010506D01*
X014475Y010506D02*
X014925Y010506D01*
X014475Y010506D02*
X014475Y010806D01*
X014625Y011426D02*
X014475Y011577D01*
X014925Y011577D01*
X014925Y011727D02*
X014925Y011426D01*
X014825Y012920D02*
X014375Y012920D01*
X014825Y012920D02*
X014825Y013220D01*
X014825Y013381D02*
X014825Y013681D01*
X014825Y013841D02*
X014825Y014066D01*
X014750Y014141D01*
X014450Y014141D01*
X014375Y014066D01*
X014375Y013841D01*
X014825Y013841D01*
X014600Y013531D02*
X014600Y013381D01*
X014375Y013381D02*
X014825Y013381D01*
X014375Y013381D02*
X014375Y013681D01*
X014450Y014301D02*
X014375Y014376D01*
X014375Y014527D01*
X014450Y014602D01*
X014525Y014602D01*
X014825Y014301D01*
X014825Y014602D01*
X012350Y016845D02*
X011900Y016845D01*
X011900Y017070D01*
X011975Y017145D01*
X012125Y017145D01*
X012200Y017070D01*
X012200Y016845D01*
X012200Y016995D02*
X012350Y017145D01*
X012275Y017306D02*
X012350Y017381D01*
X012350Y017531D01*
X012275Y017606D01*
X012200Y017606D01*
X012125Y017531D01*
X012125Y017456D01*
X012125Y017531D02*
X012050Y017606D01*
X011975Y017606D01*
X011900Y017531D01*
X011900Y017381D01*
X011975Y017306D01*
X011975Y017766D02*
X011900Y017841D01*
X011900Y017991D01*
X011975Y018066D01*
X012275Y017766D01*
X012350Y017841D01*
X012350Y017991D01*
X012275Y018066D01*
X011975Y018066D01*
X011975Y017766D02*
X012275Y017766D01*
X011350Y017841D02*
X011350Y017991D01*
X011275Y018066D01*
X010975Y018066D01*
X010900Y017991D01*
X010900Y017841D01*
X010975Y017766D01*
X011050Y017766D01*
X011125Y017841D01*
X011125Y018066D01*
X011350Y017841D02*
X011275Y017766D01*
X011350Y017606D02*
X011350Y017306D01*
X011050Y017606D01*
X010975Y017606D01*
X010900Y017531D01*
X010900Y017381D01*
X010975Y017306D01*
X010975Y017145D02*
X011125Y017145D01*
X011200Y017070D01*
X011200Y016845D01*
X011350Y016845D02*
X010900Y016845D01*
X010900Y017070D01*
X010975Y017145D01*
X011200Y016995D02*
X011350Y017145D01*
X010350Y017145D02*
X010200Y016995D01*
X010200Y017070D02*
X010200Y016845D01*
X010350Y016845D02*
X009900Y016845D01*
X009900Y017070D01*
X009975Y017145D01*
X010125Y017145D01*
X010200Y017070D01*
X010350Y017306D02*
X010050Y017606D01*
X009975Y017606D01*
X009900Y017531D01*
X009900Y017381D01*
X009975Y017306D01*
X010350Y017306D02*
X010350Y017606D01*
X010275Y017766D02*
X010200Y017766D01*
X010125Y017841D01*
X010125Y017991D01*
X010200Y018066D01*
X010275Y018066D01*
X010350Y017991D01*
X010350Y017841D01*
X010275Y017766D01*
X010125Y017841D02*
X010050Y017766D01*
X009975Y017766D01*
X009900Y017841D01*
X009900Y017991D01*
X009975Y018066D01*
X010050Y018066D01*
X010125Y017991D01*
X009350Y017766D02*
X009275Y017766D01*
X008975Y018066D01*
X008900Y018066D01*
X008900Y017766D01*
X008975Y017606D02*
X008900Y017531D01*
X008900Y017381D01*
X008975Y017306D01*
X008975Y017145D02*
X009125Y017145D01*
X009200Y017070D01*
X009200Y016845D01*
X009350Y016845D02*
X008900Y016845D01*
X008900Y017070D01*
X008975Y017145D01*
X009200Y016995D02*
X009350Y017145D01*
X009350Y017306D02*
X009050Y017606D01*
X008975Y017606D01*
X009350Y017606D02*
X009350Y017306D01*
X007850Y017381D02*
X007775Y017306D01*
X007850Y017381D02*
X007850Y017531D01*
X007775Y017606D01*
X007700Y017606D01*
X007625Y017531D01*
X007625Y017456D01*
X007625Y017531D02*
X007550Y017606D01*
X007475Y017606D01*
X007400Y017531D01*
X007400Y017381D01*
X007475Y017306D01*
X007475Y017145D02*
X007625Y017145D01*
X007700Y017070D01*
X007700Y016845D01*
X007850Y016845D02*
X007400Y016845D01*
X007400Y017070D01*
X007475Y017145D01*
X007700Y016995D02*
X007850Y017145D01*
X007625Y017766D02*
X007400Y017991D01*
X007850Y017991D01*
X007625Y018066D02*
X007625Y017766D01*
X006850Y017841D02*
X006775Y017766D01*
X006850Y017841D02*
X006850Y017991D01*
X006775Y018066D01*
X006700Y018066D01*
X006625Y017991D01*
X006625Y017916D01*
X006625Y017991D02*
X006550Y018066D01*
X006475Y018066D01*
X006400Y017991D01*
X006400Y017841D01*
X006475Y017766D01*
X006475Y017606D02*
X006550Y017606D01*
X006625Y017531D01*
X006700Y017606D01*
X006775Y017606D01*
X006850Y017531D01*
X006850Y017381D01*
X006775Y017306D01*
X006850Y017145D02*
X006700Y016995D01*
X006700Y017070D02*
X006700Y016845D01*
X006850Y016845D02*
X006400Y016845D01*
X006400Y017070D01*
X006475Y017145D01*
X006625Y017145D01*
X006700Y017070D01*
X006475Y017306D02*
X006400Y017381D01*
X006400Y017531D01*
X006475Y017606D01*
X006625Y017531D02*
X006625Y017456D01*
X005850Y017531D02*
X005850Y017381D01*
X005775Y017306D01*
X005850Y017145D02*
X005700Y016995D01*
X005700Y017070D02*
X005700Y016845D01*
X005850Y016845D02*
X005400Y016845D01*
X005400Y017070D01*
X005475Y017145D01*
X005625Y017145D01*
X005700Y017070D01*
X005475Y017306D02*
X005400Y017381D01*
X005400Y017531D01*
X005475Y017606D01*
X005550Y017606D01*
X005625Y017531D01*
X005700Y017606D01*
X005775Y017606D01*
X005850Y017531D01*
X005625Y017531D02*
X005625Y017456D01*
X005475Y017766D02*
X005400Y017841D01*
X005400Y017991D01*
X005475Y018066D01*
X005550Y018066D01*
X005850Y017766D01*
X005850Y018066D01*
X004850Y018066D02*
X004850Y017766D01*
X004850Y017916D02*
X004400Y017916D01*
X004550Y017766D01*
X004550Y017606D02*
X004625Y017531D01*
X004700Y017606D01*
X004775Y017606D01*
X004850Y017531D01*
X004850Y017381D01*
X004775Y017306D01*
X004850Y017145D02*
X004700Y016995D01*
X004700Y017070D02*
X004700Y016845D01*
X004850Y016845D02*
X004400Y016845D01*
X004400Y017070D01*
X004475Y017145D01*
X004625Y017145D01*
X004700Y017070D01*
X004475Y017306D02*
X004400Y017381D01*
X004400Y017531D01*
X004475Y017606D01*
X004550Y017606D01*
X004625Y017531D02*
X004625Y017456D01*
X001575Y017369D02*
X001371Y017166D01*
X001371Y017268D02*
X001371Y016962D01*
X001575Y016962D02*
X000964Y016962D01*
X000964Y017268D01*
X001066Y017369D01*
X001270Y017369D01*
X001371Y017268D01*
X001575Y016762D02*
X001575Y016355D01*
X000964Y016355D01*
X000964Y016762D01*
X001270Y016558D02*
X001270Y016355D01*
X001270Y016154D02*
X001270Y015951D01*
X001270Y016154D02*
X001473Y016154D01*
X001575Y016052D01*
X001575Y015849D01*
X001473Y015747D01*
X001066Y015747D01*
X000964Y015849D01*
X000964Y016052D01*
X001066Y016154D01*
X000964Y015545D02*
X000964Y015342D01*
X000964Y015444D02*
X001575Y015444D01*
X001575Y015545D02*
X001575Y015342D01*
X001575Y015141D02*
X001575Y014734D01*
X000964Y014734D01*
X000964Y015141D01*
X001270Y014938D02*
X001270Y014734D01*
X001270Y014533D02*
X001270Y014330D01*
X001270Y014533D02*
X001473Y014533D01*
X001575Y014432D01*
X001575Y014228D01*
X001473Y014126D01*
X001066Y014126D01*
X000964Y014228D01*
X000964Y014432D01*
X001066Y014533D01*
X001066Y018178D02*
X001473Y018178D01*
X001575Y018280D01*
X001575Y018483D01*
X001473Y018585D01*
X001473Y018786D02*
X001575Y018887D01*
X001575Y019091D01*
X001473Y019193D01*
X001066Y019193D01*
X000964Y019091D01*
X000964Y018887D01*
X001066Y018786D01*
X001473Y018786D01*
X001066Y018585D02*
X000964Y018483D01*
X000964Y018280D01*
X001066Y018178D01*
X000964Y019393D02*
X001473Y019393D01*
X001575Y019495D01*
X001575Y019699D01*
X001473Y019800D01*
X000964Y019800D01*
X000964Y020001D02*
X001575Y020408D01*
X000964Y020408D01*
X000964Y020609D02*
X000964Y021016D01*
X000964Y021216D02*
X001575Y021216D01*
X001575Y021624D01*
X001575Y021824D02*
X000964Y021824D01*
X000964Y022129D01*
X001066Y022231D01*
X001270Y022231D01*
X001371Y022129D01*
X001371Y021824D01*
X001371Y022028D02*
X001575Y022231D01*
X000964Y021624D02*
X000964Y021216D01*
X001270Y021216D02*
X001270Y021420D01*
X001575Y020812D02*
X000964Y020812D01*
X000964Y020001D02*
X001575Y020001D01*
X005150Y021395D02*
X005150Y021545D01*
X005150Y021470D02*
X005600Y021470D01*
X005600Y021395D02*
X005600Y021545D01*
X005525Y021702D02*
X005600Y021777D01*
X005600Y021927D01*
X005525Y022002D01*
X005525Y022163D02*
X005600Y022238D01*
X005600Y022388D01*
X005525Y022463D01*
X005450Y022463D01*
X005375Y022388D01*
X005375Y022313D01*
X005375Y022388D02*
X005300Y022463D01*
X005225Y022463D01*
X005150Y022388D01*
X005150Y022238D01*
X005225Y022163D01*
X005225Y022002D02*
X005150Y021927D01*
X005150Y021777D01*
X005225Y021702D01*
X005525Y021702D01*
X005875Y021893D02*
X006025Y022043D01*
X005875Y022194D01*
X006325Y022194D01*
X006250Y022354D02*
X006325Y022429D01*
X006325Y022579D01*
X006250Y022654D01*
X006250Y022814D02*
X006325Y022889D01*
X006325Y023039D01*
X006250Y023114D01*
X006100Y023114D01*
X006025Y023039D01*
X006025Y022964D01*
X006100Y022814D01*
X005875Y022814D01*
X005875Y023114D01*
X005875Y023274D02*
X006100Y023274D01*
X006025Y023425D01*
X006025Y023500D01*
X006100Y023575D01*
X006250Y023575D01*
X006325Y023500D01*
X006325Y023349D01*
X006250Y023274D01*
X005875Y023274D02*
X005875Y023575D01*
X005875Y023735D02*
X006100Y023735D01*
X006025Y023885D01*
X006025Y023960D01*
X006100Y024035D01*
X006250Y024035D01*
X006325Y023960D01*
X006325Y023810D01*
X006250Y023735D01*
X005875Y023735D02*
X005875Y024035D01*
X005950Y022654D02*
X005875Y022579D01*
X005875Y022429D01*
X005950Y022354D01*
X006250Y022354D01*
X006325Y021893D02*
X005875Y021893D01*
X006325Y021733D02*
X006325Y021433D01*
X005875Y021433D01*
X005925Y025620D02*
X004275Y025620D01*
X004213Y026170D02*
X004055Y026170D01*
X004050Y027045D02*
X003900Y027195D01*
X003825Y027045D02*
X003750Y027120D01*
X003750Y027421D01*
X003825Y027496D01*
X003975Y027496D01*
X004050Y027421D01*
X004050Y027120D01*
X003975Y027045D01*
X003825Y027045D01*
X004210Y027120D02*
X004285Y027045D01*
X004436Y027045D01*
X004511Y027120D01*
X004511Y027195D01*
X004436Y027270D01*
X004361Y027270D01*
X004436Y027270D02*
X004511Y027345D01*
X004511Y027421D01*
X004436Y027496D01*
X004285Y027496D01*
X004210Y027421D01*
X003850Y027895D02*
X005600Y027895D01*
X005600Y030895D01*
X003850Y030895D01*
X003850Y027895D01*
X004975Y028270D02*
X005100Y028270D01*
X005100Y028145D01*
X005100Y028270D02*
X005225Y028270D01*
X005100Y028270D02*
X005100Y028395D01*
X006225Y028421D02*
X006225Y028120D01*
X006300Y028045D01*
X006450Y028045D01*
X006525Y028120D01*
X006685Y028120D02*
X006760Y028045D01*
X006911Y028045D01*
X006986Y028120D01*
X006986Y028270D01*
X006911Y028345D01*
X006836Y028345D01*
X006685Y028270D01*
X006685Y028496D01*
X006986Y028496D01*
X006525Y028421D02*
X006450Y028496D01*
X006300Y028496D01*
X006225Y028421D01*
X007675Y026971D02*
X007900Y026971D01*
X007975Y026896D01*
X007975Y026745D01*
X007900Y026670D01*
X007675Y026670D01*
X007675Y026520D02*
X007675Y026971D01*
X007825Y026670D02*
X007975Y026520D01*
X008135Y026520D02*
X008436Y026520D01*
X008286Y026520D02*
X008286Y026971D01*
X008135Y026820D01*
X008596Y026745D02*
X008596Y026971D01*
X008896Y026971D01*
X008821Y026820D02*
X008896Y026745D01*
X008896Y026595D01*
X008821Y026520D01*
X008671Y026520D01*
X008596Y026595D01*
X008596Y026745D02*
X008746Y026820D01*
X008821Y026820D01*
X008896Y025971D02*
X008746Y025896D01*
X008596Y025745D01*
X008821Y025745D01*
X008896Y025670D01*
X008896Y025595D01*
X008821Y025520D01*
X008671Y025520D01*
X008596Y025595D01*
X008596Y025745D01*
X008436Y025520D02*
X008135Y025520D01*
X008286Y025520D02*
X008286Y025971D01*
X008135Y025820D01*
X007975Y025745D02*
X007900Y025670D01*
X007675Y025670D01*
X007675Y025520D02*
X007675Y025971D01*
X007900Y025971D01*
X007975Y025896D01*
X007975Y025745D01*
X007825Y025670D02*
X007975Y025520D01*
X006145Y026170D02*
X005987Y026170D01*
X005213Y026170D02*
X004987Y026170D01*
X004275Y025620D02*
X004240Y025668D01*
X004207Y025718D01*
X004176Y025770D01*
X004149Y025824D01*
X004125Y025879D01*
X004105Y025936D01*
X004087Y025993D01*
X004073Y026051D01*
X004062Y026110D01*
X004055Y026170D01*
X004051Y026232D01*
X004050Y026295D01*
X004054Y026357D01*
X004061Y026419D01*
X004071Y026480D01*
X004086Y026541D01*
X004104Y026601D01*
X004125Y026660D01*
X004150Y026717D01*
X004178Y026772D01*
X004209Y026826D01*
X004244Y026878D01*
X004282Y026928D01*
X004322Y026975D01*
X004366Y027020D01*
X004411Y027063D01*
X004460Y027102D01*
X004510Y027139D01*
X004563Y027172D01*
X004617Y027203D01*
X004674Y027230D01*
X004731Y027253D01*
X004790Y027273D01*
X005410Y027273D02*
X005470Y027253D01*
X005529Y027229D01*
X005586Y027201D01*
X005641Y027170D01*
X005695Y027135D01*
X005746Y027098D01*
X005795Y027057D01*
X005841Y027013D01*
X005885Y026967D01*
X005926Y026918D01*
X005964Y026867D01*
X005998Y026814D01*
X006030Y026758D01*
X006057Y026701D01*
X006082Y026642D01*
X006102Y026582D01*
X006120Y026521D01*
X006133Y026459D01*
X006142Y026396D01*
X006148Y026333D01*
X006150Y026269D01*
X006148Y026205D01*
X006142Y026142D01*
X006133Y026079D01*
X006119Y026017D01*
X006102Y025956D01*
X006081Y025896D01*
X006057Y025837D01*
X006029Y025780D01*
X005997Y025724D01*
X005962Y025671D01*
X005925Y025620D01*
X008875Y028430D02*
X008875Y028881D01*
X009100Y028881D01*
X009175Y028806D01*
X009175Y028655D01*
X009100Y028580D01*
X008875Y028580D01*
X009025Y028580D02*
X009175Y028430D01*
X009335Y028430D02*
X009636Y028430D01*
X009486Y028430D02*
X009486Y028881D01*
X009335Y028730D01*
X009796Y028806D02*
X009871Y028881D01*
X010021Y028881D01*
X010096Y028806D01*
X010096Y028730D01*
X010021Y028655D01*
X010096Y028580D01*
X010096Y028505D01*
X010021Y028430D01*
X009871Y028430D01*
X009796Y028505D01*
X009946Y028655D02*
X010021Y028655D01*
X010196Y029770D02*
X010196Y030221D01*
X009971Y029995D01*
X010271Y029995D01*
X009811Y029770D02*
X009510Y029770D01*
X009661Y029770D02*
X009661Y030221D01*
X009510Y030070D01*
X009350Y029995D02*
X009275Y029920D01*
X009050Y029920D01*
X009050Y029770D02*
X009050Y030221D01*
X009275Y030221D01*
X009350Y030146D01*
X009350Y029995D01*
X009200Y029920D02*
X009350Y029770D01*
X009730Y024521D02*
X009955Y024521D01*
X010030Y024446D01*
X010030Y024295D01*
X009955Y024220D01*
X009730Y024220D01*
X009730Y024070D02*
X009730Y024521D01*
X009880Y024220D02*
X010030Y024070D01*
X010190Y024070D02*
X010491Y024070D01*
X010341Y024070D02*
X010341Y024521D01*
X010190Y024370D01*
X010651Y024521D02*
X010951Y024521D01*
X010951Y024446D01*
X010651Y024145D01*
X010651Y024070D01*
X010625Y023031D02*
X010700Y022881D01*
X010850Y022731D01*
X010850Y022956D01*
X010925Y023031D01*
X011000Y023031D01*
X011075Y022956D01*
X011075Y022806D01*
X011000Y022731D01*
X010850Y022731D01*
X011000Y022570D02*
X011075Y022495D01*
X011075Y022345D01*
X011000Y022270D01*
X010700Y022270D01*
X010625Y022345D01*
X010625Y022495D01*
X010700Y022570D01*
X010700Y021656D02*
X011000Y021356D01*
X011075Y021356D01*
X011000Y021195D02*
X011075Y021120D01*
X011075Y020970D01*
X011000Y020895D01*
X010700Y020895D01*
X010625Y020970D01*
X010625Y021120D01*
X010700Y021195D01*
X010625Y021356D02*
X010625Y021656D01*
X010700Y021656D01*
X015125Y023620D02*
X015125Y023770D01*
X015200Y023845D01*
X015500Y023845D01*
X015575Y023770D01*
X015575Y023620D01*
X015500Y023545D01*
X015200Y023545D01*
X015125Y023620D01*
X015425Y023695D02*
X015575Y023845D01*
X015350Y024006D02*
X015350Y024306D01*
X015575Y024231D02*
X015125Y024231D01*
X015350Y024006D01*
X016200Y024225D02*
X016200Y024383D01*
X016750Y024446D02*
X016750Y026095D01*
X016200Y026157D02*
X016200Y026315D01*
X016200Y025383D02*
X016200Y025157D01*
X016750Y024445D02*
X016702Y024410D01*
X016652Y024377D01*
X016600Y024346D01*
X016546Y024319D01*
X016491Y024295D01*
X016434Y024275D01*
X016377Y024257D01*
X016319Y024243D01*
X016260Y024232D01*
X016200Y024225D01*
X016138Y024221D01*
X016075Y024220D01*
X016013Y024224D01*
X015951Y024231D01*
X015890Y024241D01*
X015829Y024256D01*
X015769Y024274D01*
X015710Y024295D01*
X015653Y024320D01*
X015598Y024348D01*
X015544Y024379D01*
X015492Y024414D01*
X015442Y024452D01*
X015395Y024492D01*
X015350Y024536D01*
X015307Y024581D01*
X015268Y024630D01*
X015231Y024680D01*
X015198Y024733D01*
X015167Y024787D01*
X015140Y024844D01*
X015117Y024901D01*
X015097Y024960D01*
X015097Y025580D02*
X015117Y025640D01*
X015141Y025699D01*
X015169Y025756D01*
X015200Y025811D01*
X015235Y025865D01*
X015272Y025916D01*
X015313Y025965D01*
X015357Y026011D01*
X015403Y026055D01*
X015452Y026096D01*
X015503Y026134D01*
X015556Y026168D01*
X015612Y026200D01*
X015669Y026227D01*
X015728Y026252D01*
X015788Y026272D01*
X015849Y026290D01*
X015911Y026303D01*
X015974Y026312D01*
X016037Y026318D01*
X016101Y026320D01*
X016165Y026318D01*
X016228Y026312D01*
X016291Y026303D01*
X016353Y026289D01*
X016414Y026272D01*
X016474Y026251D01*
X016533Y026227D01*
X016590Y026199D01*
X016646Y026167D01*
X016699Y026132D01*
X016750Y026095D01*
X015175Y027620D02*
X015175Y027770D01*
X015175Y027695D02*
X014725Y027695D01*
X014725Y027620D02*
X014725Y027770D01*
X014800Y027927D02*
X014725Y028002D01*
X014725Y028152D01*
X014800Y028227D01*
X014875Y028388D02*
X014725Y028538D01*
X015175Y028538D01*
X015175Y028388D02*
X015175Y028688D01*
X015100Y028227D02*
X015175Y028152D01*
X015175Y028002D01*
X015100Y027927D01*
X014800Y027927D01*
X016800Y030395D02*
X016950Y030395D01*
X017025Y030470D01*
X017185Y030395D02*
X017486Y030695D01*
X017486Y030771D01*
X017411Y030846D01*
X017260Y030846D01*
X017185Y030771D01*
X017025Y030771D02*
X016950Y030846D01*
X016800Y030846D01*
X016725Y030771D01*
X016725Y030470D01*
X016800Y030395D01*
X017185Y030395D02*
X017486Y030395D01*
X018850Y030420D02*
X018925Y030345D01*
X019075Y030345D01*
X019150Y030420D01*
X019310Y030345D02*
X019611Y030345D01*
X019461Y030345D02*
X019461Y030796D01*
X019310Y030645D01*
X019150Y030721D02*
X019075Y030796D01*
X018925Y030796D01*
X018850Y030721D01*
X018850Y030420D01*
X024600Y023770D02*
X024600Y023270D01*
X024600Y022770D01*
X024600Y023270D02*
X024100Y023270D01*
X024600Y023270D02*
X025100Y023270D01*
X026100Y024020D02*
X026100Y028020D01*
X028600Y028020D01*
X028600Y024020D01*
X026100Y024020D01*
X026975Y020106D02*
X026900Y020031D01*
X026900Y019881D01*
X026975Y019806D01*
X027050Y019806D01*
X027125Y019881D01*
X027125Y020031D01*
X027200Y020106D01*
X027275Y020106D01*
X027350Y020031D01*
X027350Y019881D01*
X027275Y019806D01*
X027200Y019806D01*
X027125Y019881D01*
X027125Y020031D02*
X027050Y020106D01*
X026975Y020106D01*
X026975Y019645D02*
X027125Y019645D01*
X027200Y019570D01*
X027200Y019345D01*
X027350Y019345D02*
X026900Y019345D01*
X026900Y019570D01*
X026975Y019645D01*
X027200Y019495D02*
X027350Y019645D01*
X027900Y019570D02*
X027975Y019645D01*
X028125Y019645D01*
X028200Y019570D01*
X028200Y019345D01*
X028350Y019345D02*
X027900Y019345D01*
X027900Y019570D01*
X027900Y019806D02*
X027900Y020106D01*
X027975Y020106D01*
X028275Y019806D01*
X028350Y019806D01*
X028350Y019645D02*
X028200Y019495D01*
X027600Y015535D02*
X027600Y015235D01*
X027375Y015460D01*
X027825Y015460D01*
X027750Y015075D02*
X027825Y015000D01*
X027825Y014849D01*
X027750Y014774D01*
X027450Y014774D01*
X027375Y014849D01*
X027375Y015000D01*
X027450Y015075D01*
X026077Y015045D02*
X025777Y015045D01*
X025927Y015045D02*
X025927Y015496D01*
X025777Y015345D01*
X025617Y015421D02*
X025317Y015120D01*
X025392Y015045D01*
X025542Y015045D01*
X025617Y015120D01*
X025617Y015421D01*
X025542Y015496D01*
X025392Y015496D01*
X025317Y015421D01*
X025317Y015120D01*
X025156Y015120D02*
X025156Y015421D01*
X024856Y015120D01*
X024931Y015045D01*
X025081Y015045D01*
X025156Y015120D01*
X024856Y015120D02*
X024856Y015421D01*
X024931Y015496D01*
X025081Y015496D01*
X025156Y015421D01*
X024696Y015496D02*
X024396Y015496D01*
X024396Y015270D01*
X024546Y015345D01*
X024621Y015345D01*
X024696Y015270D01*
X024696Y015120D01*
X024621Y015045D01*
X024471Y015045D01*
X024396Y015120D01*
X024236Y015045D02*
X023935Y015045D01*
X023935Y015496D01*
X023775Y015496D02*
X023475Y015496D01*
X023625Y015496D02*
X023625Y015045D01*
X023625Y015895D02*
X023475Y015895D01*
X023550Y015895D02*
X023550Y016346D01*
X023475Y016346D02*
X023625Y016346D01*
X023782Y016271D02*
X023782Y015970D01*
X023857Y015895D01*
X024007Y015895D01*
X024082Y015970D01*
X024242Y015895D02*
X024543Y016195D01*
X024543Y016271D01*
X024468Y016346D01*
X024317Y016346D01*
X024242Y016271D01*
X024082Y016271D02*
X024007Y016346D01*
X023857Y016346D01*
X023782Y016271D01*
X024242Y015895D02*
X024543Y015895D01*
X024575Y013871D02*
X024725Y013871D01*
X024800Y013796D01*
X024800Y013495D01*
X024725Y013420D01*
X024575Y013420D01*
X024500Y013495D01*
X024500Y013796D01*
X024575Y013871D01*
X024650Y013570D02*
X024800Y013420D01*
X024960Y013420D02*
X025261Y013420D01*
X025111Y013420D02*
X025111Y013871D01*
X024960Y013720D01*
X023500Y013657D02*
X023500Y012883D01*
X023500Y012657D01*
X023500Y011883D01*
X023500Y011725D01*
X023500Y011315D02*
X023500Y011157D01*
X023500Y010383D01*
X023500Y010157D01*
X023500Y009383D01*
X023500Y009225D01*
X022950Y009446D02*
X022950Y011095D01*
X022950Y011946D02*
X022950Y013595D01*
X023500Y013657D02*
X023500Y013815D01*
X024603Y013080D02*
X024620Y013019D01*
X024633Y012958D01*
X024642Y012895D01*
X024648Y012833D01*
X024650Y012770D01*
X024648Y012707D01*
X024642Y012645D01*
X024633Y012582D01*
X024620Y012521D01*
X024603Y012460D01*
X024603Y013080D02*
X024583Y013139D01*
X024560Y013196D01*
X024533Y013253D01*
X024502Y013307D01*
X024469Y013360D01*
X024432Y013410D01*
X024393Y013459D01*
X024350Y013504D01*
X024305Y013548D01*
X024258Y013588D01*
X024208Y013626D01*
X024156Y013661D01*
X024102Y013692D01*
X024047Y013720D01*
X023990Y013745D01*
X023931Y013766D01*
X023871Y013784D01*
X023810Y013799D01*
X023749Y013809D01*
X023687Y013816D01*
X023625Y013820D01*
X023562Y013819D01*
X023500Y013815D01*
X023440Y013808D01*
X023381Y013797D01*
X023323Y013783D01*
X023266Y013765D01*
X023209Y013745D01*
X023154Y013721D01*
X023100Y013694D01*
X023048Y013663D01*
X022998Y013630D01*
X022950Y013595D01*
X022950Y011945D02*
X023001Y011908D01*
X023054Y011873D01*
X023110Y011841D01*
X023167Y011813D01*
X023226Y011789D01*
X023286Y011768D01*
X023347Y011751D01*
X023409Y011737D01*
X023472Y011728D01*
X023535Y011722D01*
X023599Y011720D01*
X023663Y011722D01*
X023726Y011728D01*
X023789Y011737D01*
X023851Y011750D01*
X023912Y011768D01*
X023972Y011788D01*
X024031Y011813D01*
X024088Y011840D01*
X024144Y011872D01*
X024197Y011906D01*
X024248Y011944D01*
X024297Y011985D01*
X024343Y012029D01*
X024387Y012075D01*
X024428Y012124D01*
X024465Y012175D01*
X024500Y012229D01*
X024531Y012284D01*
X024559Y012341D01*
X024583Y012400D01*
X024603Y012460D01*
X024800Y011270D02*
X024802Y011354D01*
X024808Y011439D01*
X024818Y011522D01*
X024832Y011606D01*
X024849Y011688D01*
X024871Y011770D01*
X024896Y011850D01*
X024925Y011929D01*
X024958Y012007D01*
X024994Y012083D01*
X025034Y012158D01*
X025078Y012230D01*
X025124Y012301D01*
X025174Y012369D01*
X025227Y012434D01*
X025283Y012497D01*
X025342Y012558D01*
X025404Y012615D01*
X025468Y012670D01*
X025535Y012721D01*
X025604Y012770D01*
X025676Y012815D01*
X025749Y012856D01*
X025824Y012894D01*
X025901Y012929D01*
X025980Y012960D01*
X026060Y012987D01*
X026141Y013010D01*
X026223Y013030D01*
X026306Y013046D01*
X026389Y013058D01*
X026474Y013066D01*
X026558Y013070D01*
X026642Y013070D01*
X026726Y013066D01*
X026811Y013058D01*
X026894Y013046D01*
X026977Y013030D01*
X027059Y013010D01*
X027140Y012987D01*
X027220Y012960D01*
X027299Y012929D01*
X027376Y012894D01*
X027451Y012856D01*
X027524Y012815D01*
X027596Y012770D01*
X027665Y012721D01*
X027732Y012670D01*
X027796Y012615D01*
X027858Y012558D01*
X027917Y012497D01*
X027973Y012434D01*
X028026Y012369D01*
X028076Y012301D01*
X028122Y012230D01*
X028166Y012158D01*
X028206Y012083D01*
X028242Y012007D01*
X028275Y011929D01*
X028304Y011850D01*
X028329Y011770D01*
X028351Y011688D01*
X028368Y011606D01*
X028382Y011522D01*
X028392Y011439D01*
X028398Y011354D01*
X028400Y011270D01*
X028398Y011186D01*
X028392Y011101D01*
X028382Y011018D01*
X028368Y010934D01*
X028351Y010852D01*
X028329Y010770D01*
X028304Y010690D01*
X028275Y010611D01*
X028242Y010533D01*
X028206Y010457D01*
X028166Y010382D01*
X028122Y010310D01*
X028076Y010239D01*
X028026Y010171D01*
X027973Y010106D01*
X027917Y010043D01*
X027858Y009982D01*
X027796Y009925D01*
X027732Y009870D01*
X027665Y009819D01*
X027596Y009770D01*
X027524Y009725D01*
X027451Y009684D01*
X027376Y009646D01*
X027299Y009611D01*
X027220Y009580D01*
X027140Y009553D01*
X027059Y009530D01*
X026977Y009510D01*
X026894Y009494D01*
X026811Y009482D01*
X026726Y009474D01*
X026642Y009470D01*
X026558Y009470D01*
X026474Y009474D01*
X026389Y009482D01*
X026306Y009494D01*
X026223Y009510D01*
X026141Y009530D01*
X026060Y009553D01*
X025980Y009580D01*
X025901Y009611D01*
X025824Y009646D01*
X025749Y009684D01*
X025676Y009725D01*
X025604Y009770D01*
X025535Y009819D01*
X025468Y009870D01*
X025404Y009925D01*
X025342Y009982D01*
X025283Y010043D01*
X025227Y010106D01*
X025174Y010171D01*
X025124Y010239D01*
X025078Y010310D01*
X025034Y010382D01*
X024994Y010457D01*
X024958Y010533D01*
X024925Y010611D01*
X024896Y010690D01*
X024871Y010770D01*
X024849Y010852D01*
X024832Y010934D01*
X024818Y011018D01*
X024808Y011101D01*
X024802Y011186D01*
X024800Y011270D01*
X024603Y010580D02*
X024583Y010639D01*
X024560Y010696D01*
X024533Y010753D01*
X024502Y010807D01*
X024469Y010860D01*
X024432Y010910D01*
X024393Y010959D01*
X024350Y011004D01*
X024305Y011048D01*
X024258Y011088D01*
X024208Y011126D01*
X024156Y011161D01*
X024102Y011192D01*
X024047Y011220D01*
X023990Y011245D01*
X023931Y011266D01*
X023871Y011284D01*
X023810Y011299D01*
X023749Y011309D01*
X023687Y011316D01*
X023625Y011320D01*
X023562Y011319D01*
X023500Y011315D01*
X024603Y010580D02*
X024620Y010519D01*
X024633Y010458D01*
X024642Y010395D01*
X024648Y010333D01*
X024650Y010270D01*
X024648Y010207D01*
X024642Y010145D01*
X024633Y010082D01*
X024620Y010021D01*
X024603Y009960D01*
X024600Y009496D02*
X024675Y009421D01*
X024675Y009120D01*
X024600Y009045D01*
X024450Y009045D01*
X024375Y009120D01*
X024375Y009421D01*
X024450Y009496D01*
X024600Y009496D01*
X024835Y009421D02*
X024910Y009496D01*
X025061Y009496D01*
X025136Y009421D01*
X025136Y009345D01*
X024835Y009045D01*
X025136Y009045D01*
X024675Y009045D02*
X024525Y009195D01*
X024603Y009960D02*
X024583Y009900D01*
X024559Y009841D01*
X024531Y009784D01*
X024500Y009729D01*
X024465Y009675D01*
X024428Y009624D01*
X024387Y009575D01*
X024343Y009529D01*
X024297Y009485D01*
X024248Y009444D01*
X024197Y009406D01*
X024144Y009372D01*
X024088Y009340D01*
X024031Y009313D01*
X023972Y009288D01*
X023912Y009268D01*
X023851Y009250D01*
X023789Y009237D01*
X023726Y009228D01*
X023663Y009222D01*
X023599Y009220D01*
X023535Y009222D01*
X023472Y009228D01*
X023409Y009237D01*
X023347Y009251D01*
X023286Y009268D01*
X023226Y009289D01*
X023167Y009313D01*
X023110Y009341D01*
X023054Y009373D01*
X023001Y009408D01*
X022950Y009445D01*
X022365Y009116D02*
X022065Y009116D01*
X022065Y008890D01*
X022215Y008965D01*
X022290Y008965D01*
X022365Y008890D01*
X022365Y008740D01*
X022290Y008665D01*
X022140Y008665D01*
X022065Y008740D01*
X021904Y008665D02*
X021754Y008815D01*
X021829Y008815D02*
X021604Y008815D01*
X021604Y008665D02*
X021604Y009116D01*
X021829Y009116D01*
X021904Y009041D01*
X021904Y008890D01*
X021829Y008815D01*
X021990Y009545D02*
X021915Y009620D01*
X021990Y009545D02*
X022140Y009545D01*
X022215Y009620D01*
X022215Y009695D01*
X022140Y009770D01*
X022065Y009770D01*
X022140Y009770D02*
X022215Y009845D01*
X022215Y009921D01*
X022140Y009996D01*
X021990Y009996D01*
X021915Y009921D01*
X022950Y011095D02*
X022998Y011130D01*
X023048Y011163D01*
X023100Y011194D01*
X023154Y011221D01*
X023209Y011245D01*
X023266Y011265D01*
X023323Y011283D01*
X023381Y011297D01*
X023440Y011308D01*
X023500Y011315D01*
X025725Y009096D02*
X025725Y008795D01*
X025800Y008720D01*
X025950Y008720D01*
X026025Y008795D01*
X026185Y008720D02*
X026185Y009171D01*
X026025Y009096D02*
X025950Y009171D01*
X025800Y009171D01*
X025725Y009096D01*
X026185Y008945D02*
X026486Y008945D01*
X026646Y008870D02*
X026796Y008720D01*
X026946Y008870D01*
X026946Y009171D01*
X026646Y009171D02*
X026646Y008870D01*
X026486Y008720D02*
X026486Y009171D01*
X022821Y004971D02*
X022671Y004971D01*
X022596Y004896D01*
X022821Y004971D02*
X022896Y004896D01*
X022896Y004820D01*
X022596Y004520D01*
X022896Y004520D01*
X022436Y004520D02*
X022135Y004520D01*
X022286Y004520D02*
X022286Y004971D01*
X022135Y004820D01*
X021975Y004745D02*
X021900Y004670D01*
X021675Y004670D01*
X021675Y004520D02*
X021675Y004971D01*
X021900Y004971D01*
X021975Y004896D01*
X021975Y004745D01*
X021825Y004670D02*
X021975Y004520D01*
X021900Y003971D02*
X021675Y003971D01*
X021675Y003520D01*
X021675Y003670D02*
X021900Y003670D01*
X021975Y003745D01*
X021975Y003896D01*
X021900Y003971D01*
X022135Y003820D02*
X022286Y003971D01*
X022286Y003520D01*
X022436Y003520D02*
X022135Y003520D01*
X021975Y003520D02*
X021825Y003670D01*
X021900Y002971D02*
X021675Y002971D01*
X021675Y002520D01*
X021675Y002670D02*
X021900Y002670D01*
X021975Y002745D01*
X021975Y002896D01*
X021900Y002971D01*
X022135Y002820D02*
X022286Y002971D01*
X022286Y002520D01*
X022436Y002520D02*
X022135Y002520D01*
X021975Y002520D02*
X021825Y002670D01*
X021900Y001971D02*
X021675Y001971D01*
X021675Y001520D01*
X021675Y001670D02*
X021900Y001670D01*
X021975Y001745D01*
X021975Y001896D01*
X021900Y001971D01*
X022135Y001896D02*
X022135Y001820D01*
X022210Y001745D01*
X022436Y001745D01*
X022436Y001595D02*
X022436Y001896D01*
X022361Y001971D01*
X022210Y001971D01*
X022135Y001896D01*
X022135Y001595D02*
X022210Y001520D01*
X022361Y001520D01*
X022436Y001595D01*
X021975Y001520D02*
X021825Y001670D01*
X022671Y002520D02*
X022596Y002595D01*
X022896Y002896D01*
X022896Y002595D01*
X022821Y002520D01*
X022671Y002520D01*
X022596Y002595D02*
X022596Y002896D01*
X022671Y002971D01*
X022821Y002971D01*
X022896Y002896D01*
X022896Y003520D02*
X022596Y003520D01*
X022746Y003520D02*
X022746Y003971D01*
X022596Y003820D01*
X020045Y005269D02*
X020045Y005344D01*
X019970Y005419D01*
X019595Y005419D01*
X019595Y005344D02*
X019595Y005494D01*
X019595Y005654D02*
X019595Y005880D01*
X019670Y005955D01*
X019820Y005955D01*
X019895Y005880D01*
X019895Y005654D01*
X020045Y005654D02*
X019595Y005654D01*
X020045Y005269D02*
X019970Y005194D01*
X020045Y006115D02*
X020045Y006415D01*
X020045Y006265D02*
X019595Y006265D01*
X019745Y006115D01*
X020254Y007520D02*
X020479Y007520D01*
X020554Y007595D01*
X020554Y007896D01*
X020479Y007971D01*
X020254Y007971D01*
X020254Y007520D01*
X020715Y007520D02*
X021015Y007820D01*
X021015Y007896D01*
X020940Y007971D01*
X020790Y007971D01*
X020715Y007896D01*
X020715Y007520D02*
X021015Y007520D01*
X019065Y009545D02*
X018765Y009545D01*
X018915Y009545D02*
X018915Y009996D01*
X018765Y009845D01*
X019175Y011520D02*
X019175Y011971D01*
X019400Y011971D01*
X019475Y011896D01*
X019475Y011745D01*
X019400Y011670D01*
X019175Y011670D01*
X019325Y011670D02*
X019475Y011520D01*
X019635Y011745D02*
X019936Y011745D01*
X019861Y011520D02*
X019861Y011971D01*
X019635Y011745D01*
X019710Y012520D02*
X019635Y012595D01*
X019710Y012520D02*
X019861Y012520D01*
X019936Y012595D01*
X019936Y012670D01*
X019861Y012745D01*
X019786Y012745D01*
X019861Y012745D02*
X019936Y012820D01*
X019936Y012896D01*
X019861Y012971D01*
X019710Y012971D01*
X019635Y012896D01*
X019475Y012896D02*
X019475Y012745D01*
X019400Y012670D01*
X019175Y012670D01*
X019175Y012520D02*
X019175Y012971D01*
X019400Y012971D01*
X019475Y012896D01*
X019325Y012670D02*
X019475Y012520D01*
X018911Y013545D02*
X018760Y013545D01*
X018685Y013620D01*
X018525Y013620D02*
X018450Y013545D01*
X018300Y013545D01*
X018225Y013620D01*
X018225Y013921D01*
X018300Y013996D01*
X018450Y013996D01*
X018525Y013921D01*
X018685Y013921D02*
X018760Y013996D01*
X018911Y013996D01*
X018986Y013921D01*
X018986Y013845D01*
X018911Y013770D01*
X018986Y013695D01*
X018986Y013620D01*
X018911Y013545D01*
X018911Y013770D02*
X018836Y013770D01*
X019175Y014520D02*
X019175Y014971D01*
X019400Y014971D01*
X019475Y014896D01*
X019475Y014745D01*
X019400Y014670D01*
X019175Y014670D01*
X019325Y014670D02*
X019475Y014520D01*
X019635Y014595D02*
X019710Y014520D01*
X019861Y014520D01*
X019936Y014595D01*
X019936Y014670D01*
X019861Y014745D01*
X019635Y014745D01*
X019635Y014595D01*
X019635Y014745D02*
X019786Y014896D01*
X019936Y014971D01*
X019936Y015520D02*
X019635Y015520D01*
X019936Y015820D01*
X019936Y015896D01*
X019861Y015971D01*
X019710Y015971D01*
X019635Y015896D01*
X019475Y015896D02*
X019475Y015745D01*
X019400Y015670D01*
X019175Y015670D01*
X019175Y015520D02*
X019175Y015971D01*
X019400Y015971D01*
X019475Y015896D01*
X019325Y015670D02*
X019475Y015520D01*
X019475Y016520D02*
X019325Y016670D01*
X019400Y016670D02*
X019175Y016670D01*
X019175Y016520D02*
X019175Y016971D01*
X019400Y016971D01*
X019475Y016896D01*
X019475Y016745D01*
X019400Y016670D01*
X019635Y016520D02*
X019936Y016520D01*
X019786Y016520D02*
X019786Y016971D01*
X019635Y016820D01*
X016300Y020900D02*
X015850Y020900D01*
X015850Y021125D01*
X015925Y021200D01*
X016075Y021200D01*
X016150Y021125D01*
X016150Y020900D01*
X016150Y021050D02*
X016300Y021200D01*
X016300Y021361D02*
X016300Y021661D01*
X016300Y021511D02*
X015850Y021511D01*
X016000Y021361D01*
X016000Y021821D02*
X015925Y021821D01*
X015850Y021896D01*
X015850Y022046D01*
X015925Y022121D01*
X016000Y022121D01*
X016075Y022046D01*
X016075Y021896D01*
X016000Y021821D01*
X016075Y021896D02*
X016150Y021821D01*
X016225Y021821D01*
X016300Y021896D01*
X016300Y022046D01*
X016225Y022121D01*
X016150Y022121D01*
X016075Y022046D01*
X017050Y022270D02*
X017052Y022405D01*
X017058Y022540D01*
X017068Y022674D01*
X017082Y022808D01*
X017100Y022942D01*
X017122Y023075D01*
X017148Y023207D01*
X017177Y023339D01*
X017211Y023469D01*
X017248Y023599D01*
X017290Y023727D01*
X017335Y023854D01*
X017384Y023980D01*
X017436Y024104D01*
X017492Y024227D01*
X017552Y024348D01*
X017615Y024467D01*
X017682Y024584D01*
X017753Y024699D01*
X017826Y024812D01*
X017903Y024923D01*
X017983Y025031D01*
X018067Y025137D01*
X018153Y025240D01*
X018243Y025341D01*
X018335Y025439D01*
X018431Y025535D01*
X018529Y025627D01*
X018630Y025717D01*
X018733Y025803D01*
X018839Y025887D01*
X018947Y025967D01*
X019058Y026044D01*
X019171Y026117D01*
X019286Y026188D01*
X019403Y026255D01*
X019522Y026318D01*
X019643Y026378D01*
X019766Y026434D01*
X019890Y026486D01*
X020016Y026535D01*
X020143Y026580D01*
X020271Y026622D01*
X020401Y026659D01*
X020531Y026693D01*
X020663Y026722D01*
X020795Y026748D01*
X020928Y026770D01*
X021062Y026788D01*
X021196Y026802D01*
X021330Y026812D01*
X021465Y026818D01*
X021600Y026820D01*
X021735Y026818D01*
X021870Y026812D01*
X022004Y026802D01*
X022138Y026788D01*
X022272Y026770D01*
X022405Y026748D01*
X022537Y026722D01*
X022669Y026693D01*
X022799Y026659D01*
X022929Y026622D01*
X023057Y026580D01*
X023184Y026535D01*
X023310Y026486D01*
X023434Y026434D01*
X023557Y026378D01*
X023678Y026318D01*
X023797Y026255D01*
X023914Y026188D01*
X024029Y026117D01*
X024142Y026044D01*
X024253Y025967D01*
X024361Y025887D01*
X024467Y025803D01*
X024570Y025717D01*
X024671Y025627D01*
X024769Y025535D01*
X024865Y025439D01*
X024957Y025341D01*
X025047Y025240D01*
X025133Y025137D01*
X025217Y025031D01*
X025297Y024923D01*
X025374Y024812D01*
X025447Y024699D01*
X025518Y024584D01*
X025585Y024467D01*
X025648Y024348D01*
X025708Y024227D01*
X025764Y024104D01*
X025816Y023980D01*
X025865Y023854D01*
X025910Y023727D01*
X025952Y023599D01*
X025989Y023469D01*
X026023Y023339D01*
X026052Y023207D01*
X026078Y023075D01*
X026100Y022942D01*
X026118Y022808D01*
X026132Y022674D01*
X026142Y022540D01*
X026148Y022405D01*
X026150Y022270D01*
X026148Y022135D01*
X026142Y022000D01*
X026132Y021866D01*
X026118Y021732D01*
X026100Y021598D01*
X026078Y021465D01*
X026052Y021333D01*
X026023Y021201D01*
X025989Y021071D01*
X025952Y020941D01*
X025910Y020813D01*
X025865Y020686D01*
X025816Y020560D01*
X025764Y020436D01*
X025708Y020313D01*
X025648Y020192D01*
X025585Y020073D01*
X025518Y019956D01*
X025447Y019841D01*
X025374Y019728D01*
X025297Y019617D01*
X025217Y019509D01*
X025133Y019403D01*
X025047Y019300D01*
X024957Y019199D01*
X024865Y019101D01*
X024769Y019005D01*
X024671Y018913D01*
X024570Y018823D01*
X024467Y018737D01*
X024361Y018653D01*
X024253Y018573D01*
X024142Y018496D01*
X024029Y018423D01*
X023914Y018352D01*
X023797Y018285D01*
X023678Y018222D01*
X023557Y018162D01*
X023434Y018106D01*
X023310Y018054D01*
X023184Y018005D01*
X023057Y017960D01*
X022929Y017918D01*
X022799Y017881D01*
X022669Y017847D01*
X022537Y017818D01*
X022405Y017792D01*
X022272Y017770D01*
X022138Y017752D01*
X022004Y017738D01*
X021870Y017728D01*
X021735Y017722D01*
X021600Y017720D01*
X021465Y017722D01*
X021330Y017728D01*
X021196Y017738D01*
X021062Y017752D01*
X020928Y017770D01*
X020795Y017792D01*
X020663Y017818D01*
X020531Y017847D01*
X020401Y017881D01*
X020271Y017918D01*
X020143Y017960D01*
X020016Y018005D01*
X019890Y018054D01*
X019766Y018106D01*
X019643Y018162D01*
X019522Y018222D01*
X019403Y018285D01*
X019286Y018352D01*
X019171Y018423D01*
X019058Y018496D01*
X018947Y018573D01*
X018839Y018653D01*
X018733Y018737D01*
X018630Y018823D01*
X018529Y018913D01*
X018431Y019005D01*
X018335Y019101D01*
X018243Y019199D01*
X018153Y019300D01*
X018067Y019403D01*
X017983Y019509D01*
X017903Y019617D01*
X017826Y019728D01*
X017753Y019841D01*
X017682Y019956D01*
X017615Y020073D01*
X017552Y020192D01*
X017492Y020313D01*
X017436Y020436D01*
X017384Y020560D01*
X017335Y020686D01*
X017290Y020813D01*
X017248Y020941D01*
X017211Y021071D01*
X017177Y021201D01*
X017148Y021333D01*
X017122Y021465D01*
X017100Y021598D01*
X017082Y021732D01*
X017068Y021866D01*
X017058Y022000D01*
X017052Y022135D01*
X017050Y022270D01*
X011418Y013521D02*
X011192Y013295D01*
X011493Y013295D01*
X011418Y013070D02*
X011418Y013521D01*
X011032Y013446D02*
X010957Y013521D01*
X010807Y013521D01*
X010732Y013446D01*
X010732Y013145D01*
X010807Y013070D01*
X010957Y013070D01*
X011032Y013145D01*
X010575Y013070D02*
X010425Y013070D01*
X010500Y013070D02*
X010500Y013521D01*
X010425Y013521D02*
X010575Y013521D01*
X009538Y013270D02*
X009237Y013270D01*
X009463Y013496D01*
X009463Y013045D01*
X009077Y013120D02*
X009077Y013421D01*
X008777Y013120D01*
X008852Y013045D01*
X009002Y013045D01*
X009077Y013120D01*
X008777Y013120D02*
X008777Y013421D01*
X008852Y013496D01*
X009002Y013496D01*
X009077Y013421D01*
X008617Y013421D02*
X008617Y013120D01*
X008542Y013045D01*
X008392Y013045D01*
X008317Y013120D01*
X008617Y013421D01*
X008542Y013496D01*
X008392Y013496D01*
X008317Y013421D01*
X008317Y013120D01*
X008156Y013120D02*
X008156Y013195D01*
X008081Y013270D01*
X007856Y013270D01*
X007856Y013120D01*
X007931Y013045D01*
X008081Y013045D01*
X008156Y013120D01*
X007856Y013270D02*
X008006Y013421D01*
X008156Y013496D01*
X007696Y013421D02*
X007696Y013270D01*
X007621Y013195D01*
X007396Y013195D01*
X007396Y013045D02*
X007396Y013496D01*
X007621Y013496D01*
X007696Y013421D01*
X007236Y013421D02*
X007161Y013496D01*
X007010Y013496D01*
X006935Y013421D01*
X006935Y013120D01*
X007010Y013045D01*
X007161Y013045D01*
X007236Y013120D01*
X006775Y013045D02*
X006775Y013496D01*
X006625Y013345D01*
X006475Y013496D01*
X006475Y013045D01*
X015900Y007491D02*
X015900Y007341D01*
X015975Y007266D01*
X016050Y007266D01*
X016125Y007341D01*
X016125Y007566D01*
X016275Y007566D02*
X015975Y007566D01*
X015900Y007491D01*
X016275Y007566D02*
X016350Y007491D01*
X016350Y007341D01*
X016275Y007266D01*
X016350Y007106D02*
X016350Y006806D01*
X016350Y006956D02*
X015900Y006956D01*
X016050Y006806D01*
X016125Y006645D02*
X016200Y006570D01*
X016200Y006345D01*
X016350Y006345D02*
X015900Y006345D01*
X015900Y006570D01*
X015975Y006645D01*
X016125Y006645D01*
X016200Y006495D02*
X016350Y006645D01*
X018855Y002958D02*
X018855Y002658D01*
X018855Y002808D02*
X018405Y002808D01*
X018555Y002658D01*
X018480Y002497D02*
X018405Y002422D01*
X018405Y002272D01*
X018480Y002197D01*
X018780Y002197D01*
X018855Y002272D01*
X018855Y002422D01*
X018780Y002497D01*
X018480Y002497D01*
X018405Y002040D02*
X018405Y001890D01*
X018405Y001965D02*
X018855Y001965D01*
X018855Y001890D02*
X018855Y002040D01*
D14*
X026480Y007520D02*
X026480Y007770D01*
X026480Y008020D01*
X026730Y008020D02*
X026730Y007770D01*
X026730Y007520D01*
X019400Y010970D02*
X019000Y010570D01*
X006350Y008890D02*
X006100Y008890D01*
X005850Y008890D01*
X005850Y008640D02*
X006100Y008640D01*
X006350Y008640D01*
X017350Y028650D02*
X017600Y028650D01*
X017850Y028650D01*
X017850Y028900D02*
X017600Y028900D01*
X017350Y028900D01*
X019350Y028900D02*
X019600Y028900D01*
X019850Y028900D01*
X019850Y028650D02*
X019600Y028650D01*
X019350Y028650D01*
D15*
X012220Y030020D03*
X011270Y028645D03*
X010020Y026770D03*
X010020Y025770D03*
X009180Y024270D03*
X007180Y025770D03*
X007180Y026770D03*
X008430Y028645D03*
X008480Y030020D03*
X012020Y024270D03*
X018680Y016770D03*
X018680Y015770D03*
X018680Y014770D03*
X018680Y012770D03*
X018680Y011770D03*
X021520Y011770D03*
X021520Y012770D03*
X021520Y014770D03*
X021520Y015770D03*
X021520Y016770D03*
X021180Y004770D03*
X021180Y003770D03*
X021180Y002770D03*
X021180Y001770D03*
X024020Y001770D03*
X024020Y002770D03*
X024020Y003770D03*
X024020Y004770D03*
D16*
X016600Y010150D02*
X015600Y010150D01*
X015681Y011451D02*
X015729Y011479D01*
X015778Y011503D01*
X015830Y011523D01*
X015882Y011540D01*
X015936Y011553D01*
X015990Y011562D01*
X016045Y011568D01*
X016100Y011570D01*
X015703Y011465D02*
X015655Y011435D01*
X015610Y011402D01*
X015567Y011366D01*
X015526Y011328D01*
X015489Y011286D01*
X015454Y011242D01*
X015423Y011196D01*
X015394Y011147D01*
X015370Y011097D01*
X015349Y011045D01*
X015331Y010991D01*
X015318Y010937D01*
X015308Y010882D01*
X015302Y010826D01*
X015300Y010770D01*
X016100Y011570D02*
X016156Y011568D01*
X016213Y011562D01*
X016268Y011552D01*
X016323Y011538D01*
X016376Y011521D01*
X016429Y011499D01*
X016479Y011474D01*
X016900Y010770D02*
X016898Y010716D01*
X016893Y010663D01*
X016884Y010609D01*
X016871Y010557D01*
X016855Y010506D01*
X016835Y010455D01*
X016813Y010406D01*
X016787Y010359D01*
X016757Y010314D01*
X016725Y010271D01*
X016690Y010230D01*
X016652Y010191D01*
X016612Y010155D01*
X016900Y010770D02*
X016898Y010824D01*
X016893Y010878D01*
X016884Y010931D01*
X016871Y010984D01*
X016855Y011035D01*
X016835Y011085D01*
X016812Y011134D01*
X016786Y011182D01*
X016757Y011227D01*
X016724Y011270D01*
X016689Y011311D01*
X016651Y011350D01*
X016611Y011386D01*
X016568Y011419D01*
X016523Y011449D01*
X016476Y011476D01*
X015300Y010770D02*
X015302Y010717D01*
X015307Y010663D01*
X015316Y010611D01*
X015328Y010559D01*
X015344Y010508D01*
X015363Y010458D01*
X015386Y010409D01*
X015412Y010362D01*
X015440Y010317D01*
X015472Y010274D01*
X015506Y010234D01*
X015544Y010195D01*
X015583Y010159D01*
X015530Y012770D02*
X015750Y012770D01*
X016470Y012770D01*
X016450Y012770D02*
X016670Y012770D01*
X015530Y012770D02*
X015473Y012805D01*
X015418Y012843D01*
X015365Y012884D01*
X015315Y012928D01*
X015267Y012975D01*
X015223Y013025D01*
X015181Y013077D01*
X015142Y013132D01*
X015107Y013188D01*
X015075Y013247D01*
X015046Y013307D01*
X015021Y013369D01*
X015000Y013433D01*
X014982Y013497D01*
X014968Y013562D01*
X014958Y013629D01*
X014951Y013695D01*
X014949Y013762D01*
X014950Y013829D01*
X014956Y013895D01*
X014965Y013962D01*
X014978Y014027D01*
X014995Y014092D01*
X015015Y014155D01*
X015040Y014218D01*
X015067Y014279D01*
X015099Y014338D01*
X015133Y014395D01*
X015171Y014450D01*
X015212Y014503D01*
X015256Y014553D01*
X015303Y014601D01*
X015353Y014646D01*
X015405Y014687D01*
X015459Y014726D01*
X015516Y014762D01*
X015575Y014794D01*
X015635Y014823D01*
X015697Y014848D01*
X015760Y014870D01*
X015821Y014887D01*
X015882Y014900D01*
X015944Y014910D01*
X016006Y014917D01*
X016069Y014921D01*
X016131Y014921D01*
X016194Y014917D01*
X016256Y014910D01*
X016318Y014900D01*
X016379Y014887D01*
X016440Y014870D01*
X016503Y014848D01*
X016565Y014823D01*
X016625Y014794D01*
X016684Y014762D01*
X016741Y014726D01*
X016795Y014687D01*
X016847Y014646D01*
X016897Y014601D01*
X016944Y014553D01*
X016988Y014503D01*
X017029Y014450D01*
X017067Y014395D01*
X017101Y014338D01*
X017133Y014279D01*
X017160Y014218D01*
X017185Y014156D01*
X017205Y014092D01*
X017222Y014027D01*
X017235Y013962D01*
X017244Y013895D01*
X017250Y013829D01*
X017251Y013762D01*
X017249Y013695D01*
X017242Y013628D01*
X017232Y013562D01*
X017218Y013497D01*
X017200Y013433D01*
X017179Y013369D01*
X017154Y013307D01*
X017125Y013247D01*
X017093Y013188D01*
X017058Y013132D01*
X017019Y013077D01*
X016977Y013025D01*
X016932Y012975D01*
X016885Y012928D01*
X016835Y012884D01*
X016782Y012843D01*
X016727Y012805D01*
X016670Y012770D01*
X020000Y013470D02*
X020000Y013770D01*
X020000Y014070D01*
X020200Y014070D02*
X020200Y013770D01*
X020200Y013470D01*
X027300Y016670D02*
X027600Y016670D01*
X027900Y016670D01*
X027900Y016870D02*
X027600Y016870D01*
X027300Y016870D01*
X024350Y028020D02*
X024350Y028520D01*
X024100Y028270D02*
X024600Y028270D01*
X022100Y028270D02*
X021600Y028270D01*
X009700Y023070D02*
X009700Y022770D01*
X009700Y022470D01*
X009500Y022470D02*
X009500Y022770D01*
X009500Y023070D01*
X009500Y021570D02*
X009500Y021270D01*
X009500Y020970D01*
X009700Y020970D02*
X009700Y021270D01*
X009700Y021570D01*
X006900Y029670D02*
X006600Y029670D01*
X006300Y029670D01*
X006300Y029870D02*
X006600Y029870D01*
X006900Y029870D01*
D17*
X016100Y023190D03*
X016100Y020350D03*
X012100Y019190D03*
X011100Y019190D03*
X010100Y019190D03*
X009100Y019190D03*
X007600Y019190D03*
X006600Y019190D03*
X005600Y019190D03*
X004600Y019190D03*
X004600Y016350D03*
X005600Y016350D03*
X006600Y016350D03*
X007600Y016350D03*
X009100Y016350D03*
X010100Y016350D03*
X011100Y016350D03*
X012100Y016350D03*
X012100Y010190D03*
X011100Y010190D03*
X010100Y010190D03*
X008600Y010190D03*
X007600Y010190D03*
X007600Y007350D03*
X008600Y007350D03*
X010100Y007350D03*
X011100Y007350D03*
X012100Y007350D03*
X013100Y007350D03*
X013100Y010190D03*
X016100Y008690D03*
X016100Y005850D03*
X004600Y007350D03*
X004600Y010190D03*
X027100Y018850D03*
X028100Y018850D03*
X028100Y021690D03*
X027100Y021690D03*
D18*
X023291Y029810D02*
X023150Y029950D01*
X023150Y030231D01*
X022970Y030161D02*
X022900Y030231D01*
X022760Y030231D01*
X022690Y030161D01*
X022690Y030090D01*
X022760Y030020D01*
X022970Y030020D01*
X022970Y029880D02*
X022970Y030161D01*
X022970Y029880D02*
X022900Y029810D01*
X022760Y029810D01*
X022690Y029880D01*
X023291Y029810D02*
X023431Y029950D01*
X023431Y030231D01*
D19*
X018950Y010770D02*
X018952Y010801D01*
X018958Y010832D01*
X018968Y010862D01*
X018981Y010890D01*
X018998Y010917D01*
X019018Y010941D01*
X019041Y010963D01*
X019066Y010981D01*
X019094Y010996D01*
X019123Y011008D01*
X019153Y011016D01*
X019184Y011020D01*
X019216Y011020D01*
X019247Y011016D01*
X019277Y011008D01*
X019306Y010996D01*
X019334Y010981D01*
X019359Y010963D01*
X019382Y010941D01*
X019402Y010917D01*
X019419Y010890D01*
X019432Y010862D01*
X019442Y010832D01*
X019448Y010801D01*
X019450Y010770D01*
X019448Y010739D01*
X019442Y010708D01*
X019432Y010678D01*
X019419Y010650D01*
X019402Y010623D01*
X019382Y010599D01*
X019359Y010577D01*
X019334Y010559D01*
X019306Y010544D01*
X019277Y010532D01*
X019247Y010524D01*
X019216Y010520D01*
X019184Y010520D01*
X019153Y010524D01*
X019123Y010532D01*
X019094Y010544D01*
X019066Y010559D01*
X019041Y010577D01*
X019018Y010599D01*
X018998Y010623D01*
X018981Y010650D01*
X018968Y010678D01*
X018958Y010708D01*
X018952Y010739D01*
X018950Y010770D01*
D20*
X023650Y007776D03*
D21*
X024045Y007770D03*
X022155Y007770D03*
M02*
