G75*
%MOIN*%
%OFA0B0*%
%FSLAX24Y24*%
%IPPOS*%
%LPD*%
%AMOC8*
5,1,8,0,0,1.08239X$1,22.5*
%
%ADD10OC8,0.0560*%
%ADD11OC8,0.0611*%
%ADD12R,0.0611X0.0611*%
%ADD13R,0.0580X0.0580*%
%ADD14OC8,0.0580*%
%ADD15C,0.0680*%
%ADD16OC8,0.0552*%
%ADD17C,0.0907*%
%ADD18R,0.0560X0.0560*%
%ADD19C,0.0560*%
%ADD20C,0.0560*%
%ADD21OC8,0.0671*%
%ADD22C,0.0749*%
%ADD23C,0.2580*%
D10*
X004600Y006770D03*
X006100Y007770D03*
X007600Y006770D03*
X008600Y006770D03*
X010100Y006770D03*
X011100Y006770D03*
X012100Y006770D03*
X013100Y006770D03*
X016100Y005270D03*
X016100Y009270D03*
X016100Y010270D03*
X016100Y011270D03*
X018100Y011770D03*
X018100Y012770D03*
X019600Y013770D03*
X020600Y013770D03*
X022100Y012770D03*
X022100Y011770D03*
X023600Y012270D03*
X024350Y012770D03*
X023600Y013270D03*
X022100Y014770D03*
X022100Y015770D03*
X022100Y016770D03*
X018100Y016770D03*
X018100Y015770D03*
X018100Y014770D03*
X016100Y019770D03*
X016100Y023770D03*
X016100Y024770D03*
X015350Y025270D03*
X016100Y025770D03*
X017600Y027770D03*
X019600Y027770D03*
X019600Y029770D03*
X017600Y029770D03*
X015600Y029270D03*
X014850Y029770D03*
X015600Y030270D03*
X012850Y030020D03*
X011850Y028645D03*
X010600Y026770D03*
X010600Y025770D03*
X008600Y024270D03*
X009100Y022770D03*
X010100Y022770D03*
X010100Y021270D03*
X009100Y021270D03*
X009100Y019770D03*
X010100Y019770D03*
X011100Y019770D03*
X012100Y019770D03*
X012100Y015770D03*
X011100Y015770D03*
X010100Y015770D03*
X009100Y015770D03*
X007600Y015770D03*
X006600Y015770D03*
X005600Y015770D03*
X004600Y015770D03*
X004600Y019770D03*
X005600Y019770D03*
X006600Y019770D03*
X007600Y019770D03*
X012600Y024270D03*
X007850Y028645D03*
X007850Y030020D03*
X006600Y030270D03*
X006600Y029270D03*
X005100Y027020D03*
X004600Y026270D03*
X005600Y026270D03*
X006600Y025770D03*
X006600Y026770D03*
X007600Y010770D03*
X008600Y010770D03*
X010100Y010770D03*
X011100Y010770D03*
X012100Y010770D03*
X013100Y010770D03*
X006100Y009770D03*
X004600Y010770D03*
X020600Y004770D03*
X020600Y003770D03*
X020600Y002770D03*
X020600Y001770D03*
X024600Y001770D03*
X024600Y002770D03*
X024600Y003770D03*
X024600Y004770D03*
X025600Y007770D03*
X027600Y007770D03*
X024350Y010270D03*
X023600Y009770D03*
X023600Y010770D03*
X027600Y016270D03*
X027600Y017270D03*
X027100Y018270D03*
X028100Y018270D03*
X028100Y022270D03*
X027100Y022270D03*
D11*
X005100Y029975D03*
D12*
X005100Y028825D03*
D13*
X004600Y024270D03*
X023100Y014270D03*
D14*
X024100Y014270D03*
X025100Y014270D03*
X026100Y014270D03*
X026100Y017270D03*
X025100Y017270D03*
X024100Y017270D03*
X023100Y017270D03*
X007600Y021270D03*
X007600Y022270D03*
X007600Y023270D03*
X007600Y024270D03*
X004600Y023270D03*
X004600Y022270D03*
X004600Y021270D03*
D15*
X012600Y002945D02*
X012600Y002345D01*
X013600Y002345D02*
X013600Y002945D01*
X014600Y002945D02*
X014600Y002345D01*
X015600Y002345D02*
X015600Y002945D01*
X016600Y002945D02*
X016600Y002345D01*
X017600Y002345D02*
X017600Y002945D01*
X021600Y005470D02*
X021600Y006070D01*
X022600Y006070D02*
X022600Y005470D01*
X023600Y005470D02*
X023600Y006070D01*
D16*
X026600Y010285D03*
X026600Y012255D03*
X026100Y025020D03*
X028100Y025020D03*
X028100Y027020D03*
X026100Y027020D03*
X023600Y028270D03*
X022600Y028270D03*
D17*
X021600Y029770D03*
X024600Y029770D03*
D18*
X005600Y011770D03*
D19*
X006600Y011770D03*
X007600Y011770D03*
X008600Y011770D03*
X009600Y011770D03*
X010600Y011770D03*
X011600Y011770D03*
X011600Y014770D03*
X010600Y014770D03*
X009600Y014770D03*
X008600Y014770D03*
X007600Y014770D03*
X006600Y014770D03*
X005600Y014770D03*
D20*
X015860Y014770D02*
X016340Y014770D01*
X016340Y013770D02*
X015860Y013770D01*
X015860Y012770D02*
X016340Y012770D01*
X019600Y010510D02*
X019600Y010030D01*
X020600Y010030D02*
X020600Y010510D01*
X021600Y010510D02*
X021600Y010030D01*
D21*
X018650Y022270D03*
X024550Y022270D03*
D22*
X024600Y007770D03*
X021600Y007770D03*
D23*
X002000Y002170D03*
X027000Y002170D03*
X027000Y029670D03*
X002000Y029670D03*
M02*
