%
M48
M72
T01C0.0315
T02C0.0320
T03C0.0354
T04C0.0394
T05C0.0400
T06C0.0433
T07C0.0551
T08C0.1260
%
T01
X22600Y28270
X23600Y28270
X26100Y27020
X26100Y25020
X28100Y25020
X28100Y27020
X26600Y12255
X26600Y10285
T02
X24350Y10270
X23600Y9770
X23600Y10770
X23600Y12270
X24350Y12770
X23600Y13270
X23100Y14270
X22100Y14770
X22100Y15770
X22100Y16770
X23100Y17270
X24100Y17270
X25100Y17270
X26100Y17270
X27100Y18270
X28100Y18270
X27600Y17270
X27600Y16270
X26100Y14270
X25100Y14270
X24100Y14270
X22100Y12770
X22100Y11770
X21600Y10270
X20600Y10270
X19600Y10270
X18100Y11770
X18100Y12770
X19600Y13770
X20600Y13770
X18100Y14770
X18100Y15770
X18100Y16770
X16100Y14770
X16100Y13770
X16100Y12770
X16100Y11270
X16100Y10270
X16100Y9270
X13100Y10770
X12100Y10770
X11100Y10770
X10600Y11770
X9600Y11770
X10100Y10770
X8600Y10770
X7600Y10770
X7600Y11770
X8600Y11770
X6600Y11770
X5600Y11770
X4600Y10770
X6100Y9770
X6100Y7770
X7600Y6770
X8600Y6770
X10100Y6770
X11100Y6770
X12100Y6770
X13100Y6770
X16100Y5270
X20600Y4770
X20600Y3770
X20600Y2770
X20600Y1770
X24600Y1770
X24600Y2770
X24600Y3770
X24600Y4770
X25600Y7770
X27600Y7770
X16100Y19770
X16100Y23770
X16100Y24770
X15350Y25270
X16100Y25770
X17600Y27770
X19600Y27770
X19600Y29770
X17600Y29770
X15600Y29270
X14850Y29770
X15600Y30270
X12850Y30020
X11850Y28645
X10600Y26770
X10600Y25770
X8600Y24270
X7600Y24270
X7600Y23270
X7600Y22270
X7600Y21270
X7600Y19770
X6600Y19770
X5600Y19770
X4600Y19770
X4600Y21270
X4600Y22270
X4600Y23270
X4600Y24270
X4600Y26270
X5100Y27020
X5600Y26270
X6600Y25770
X6600Y26770
X7850Y28645
X7850Y30020
X6600Y30270
X6600Y29270
X9100Y22770
X10100Y22770
X10100Y21270
X9100Y21270
X9100Y19770
X10100Y19770
X11100Y19770
X12100Y19770
X12100Y15770
X11100Y15770
X10600Y14770
X9600Y14770
X9100Y15770
X10100Y15770
X8600Y14770
X7600Y14770
X7600Y15770
X6600Y15770
X6600Y14770
X5600Y14770
X5600Y15770
X4600Y15770
X11600Y14770
X11600Y11770
X4600Y6770
X12600Y24270
X27100Y22270
X28100Y22270
T03
X5100Y28825
X5100Y29975
T04
X18650Y22270
X24550Y22270
T05
X23600Y5770
X22600Y5770
X21600Y5770
X17600Y2645
X16600Y2645
X15600Y2645
X14600Y2645
X13600Y2645
X12600Y2645
T06
X21600Y7770
X24600Y7770
T07
X24600Y29770
X21600Y29770
T08
X2000Y2170
X27000Y2170
X27000Y29670
X2000Y29670
M30
